<?xml version="1.0" encoding="UTF-8"?>
<svg width="318px" height="287px" viewBox="0 0 318 287" version="1.1" xmlns="http://www.w3.org/2000/svg" xmlns:xlink="http://www.w3.org/1999/xlink">
    <!-- Generator: Sketch 47 (45396) - http://www.bohemiancoding.com/sketch -->
    <title>Group 4</title>
    <desc>Created with Sketch.</desc>
    <defs></defs>
    <g id="Page-1" stroke="none" stroke-width="1" fill="none" fill-rule="evenodd">
        <g id="Lalaland_1" transform="translate(-149.000000, -994.000000)">
            <g id="Group-4" transform="translate(149.000000, 994.000000)">
                <g id="Page-1">
                    <polygon id="Fill-1" fill="#000000" opacity="0.106714221" points="126.511496 206.630289 108.247603 285.923211 235.193997 286.598991 244.786164 278.977307 283.022392 279.245246 317.859321 241.53136 311.385428 214.7375 268.170335 215.795947 257.993987 205.142421"></polygon>
                    <polygon id="Fill-3" fill="#E6FFF3" points="5.57493159 237.954361 31.8872113 253.124002 31.8872113 211.157984 58.123497 226.284107 58.123497 268.368809 85.1125191 283.929028 85.1125191 145.561581 5.57493159 99.7059579"></polygon>
                    <polygon id="Fill-4" fill="#DAEDEC" points="5.57493159 99.705814 85.1125191 145.561437 93.869833 140.512682 14.3322455 94.6570596"></polygon>
                    <polygon id="Fill-5" fill="#E6FFF3" points="80.6006386 50.8154719 27.0666728 19.9514632 27.0666728 60.7669632 14.3321014 53.4254456 14.3321014 94.6570596 93.8700491 140.512682 93.8700491 99.2810684 80.6006386 91.6309719"></polygon>
                    <polygon id="Fill-6" fill="#E6FFF3" points="0 224.53017 5.57493159 227.744354 5.57493159 99.7060298 0 96.4918456"></polygon>
                    <polygon id="Fill-7" fill="#DAEDEC" points="27.0666008 60.767107 27.0666008 46.0833526 14.3323895 53.4252298"></polygon>
                    <polygon id="Fill-8" fill="#DAEDEC" points="0 96.4917018 5.57493159 99.705886 14.3322455 94.6571316 14.3322455 88.2287632"></polygon>
                    <polygon id="Fill-9" fill="#DAEDEC" points="80.6006386 91.6309 93.8700491 99.2809965 128.476476 79.3294614 115.207065 71.6793649"></polygon>
                    <polygon id="Fill-10" fill="#DAEDEC" points="61.6730994 -0.000179824561 27.0666728 19.9513553 80.6006386 50.815364 115.207065 30.8638289"></polygon>
                    <polygon id="Fill-11" fill="#DAEDEC" points="49.2511477 14.6521053 75.9487996 30.0440088 93.4547835 19.9515351 66.7571316 4.55963158"></polygon>
                    <polygon id="Fill-12" fill="#E6FFF3" points="49.2511477 23.0015035 75.9487996 38.393407 75.9487996 30.0441526 49.2511477 14.6522491"></polygon>
                    <polygon id="Fill-13" fill="#8FB6B6" points="75.9489437 38.3935149 93.4545674 28.3010412 93.4545674 19.9514272 75.9489437 30.0442605"></polygon>
                    <polygon id="Fill-14" fill="#8FB6B6" points="80.6006386 91.6309 115.207065 71.6793649 115.207065 30.8638649 80.6006386 50.8154"></polygon>
                    <polygon id="Fill-15" fill="#8FB6B6" points="93.869941 140.512826 128.476368 120.560932 128.476368 79.3293175 93.869941 99.2812123"></polygon>
                    <polygon id="Fill-16" fill="#8FB6B6" points="85.1126632 283.929028 137.648623 253.640458 137.648623 115.273011 85.1126632 145.561581"></polygon>
                    <polygon id="Fill-17" fill="#DAEDEC" points="128.476368 120.561075 137.648587 115.273154 128.476368 109.984874"></polygon>
                    <polygon id="Fill-18" fill="#DAEDEC" points="93.2073169 151.610304 106.943136 159.529418 142.212259 139.195575 128.47644 131.276461"></polygon>
                    <polygon id="Fill-19" fill="#E6FFF3" points="93.2072089 279.262257 106.943028 286.89581 106.943028 159.52931 93.2072089 151.610196"></polygon>
                    <polygon id="Fill-20" fill="#8FB6B6" points="106.943172 159.529202 106.943172 286.895702 142.211934 266.562219 142.211934 139.195719"></polygon>
                    <polygon id="Fill-21" fill="#8FB6B6" points="31.8871032 253.124074 39.0139684 249.015082 39.0139684 215.266688 31.8871032 211.157696"></polygon>
                    <polygon id="Fill-22" fill="#1EB476" points="39.0140044 249.015154 58.1237851 260.032286 58.1237851 226.283891 39.0140044 215.26676"></polygon>
                    <polygon id="Fill-23" fill="#1EB476" points="11.0399781 100.224356 29.5601753 110.901619 36.0344288 107.168821 17.5145918 96.4915579"></polygon>
                    <polygon id="Fill-24" fill="#1EB476" points="35.6123201 114.391007 54.1325173 125.06827 60.6067708 121.335832 42.0869338 110.658209"></polygon>
                    <polygon id="Fill-25" fill="#1EB476" points="60.1848783 128.557658 78.7047153 139.234921 85.179329 135.502482 66.6591318 124.825219"></polygon>
                </g>
            </g>
        </g>
    </g>
</svg>