<svg width="1137" height="729" viewBox="0 0 1137 729" xmlns="http://www.w3.org/2000/svg" xmlns:xlink="http://www.w3.org/1999/xlink"><title>Group 24</title><defs><path id="a" d="M.133 25.122H68.75V.066H.133z"/><path id="c" d="M82.788.284H.063v46.83h82.725V.284z"/><path id="e" d="M0 .062V43.16h84.892V.062z"/></defs><g fill="none" fill-rule="evenodd"><g transform="translate(572.662 93.237)"><mask id="b" fill="#fff"><use xlink:href="#a"/></mask><path fill="#000" opacity=".3" mask="url(#b)" d="M23.713.43L.133 14.116l18.965 11.007h19.144l7.161-4.128h3.656L68.751 9.566 56.394 2.394h-5.53L46.854.066H31.147z"/></g><path fill="#DBC600" d="M575.331 88.704v17.339l4.905 2.847V91.55z"/><path fill="#8C7600" d="M580.236 91.551l4.905-2.846v17.338l-4.905 2.847z"/><path fill="#FFE600" d="M556 93.808l18.892 10.964V88.163L556 77.2z"/><path fill="#EFF653" d="M556 77.199l18.892 10.964 17.406-10.101-4.358-2.53-6.453 3.745-12.359-7.172V69.58z"/><path fill="#C8A900" d="M581.487 79.277l6.453-3.744 4.358 2.529v-14.89l-10.81 6.274z"/><path fill="#FFE600" d="M581.487 79.277l-12.359-7.172v-9.831l12.36 7.172z"/><path fill="#EFF653" d="M579.939 56l-10.81 6.274 12.358 7.172 10.811-6.273z"/><path fill="#C8A900" d="M592.298 78.062v7.558l-4.862 2.821v9.05l-12.544 7.28V88.164z"/><path fill="#EFF653" d="M587.436 88.441l5.812 3.373 17.656-10.246-18.606-10.798v14.85z"/><path fill="#FFE600" d="M587.436 88.441v9.05l-5.59 3.245 11.402 6.617V91.814z"/><path fill="#C8A900" d="M610.904 81.568l-17.656 10.246v15.539l17.656-10.246z"/><path fill="#999914" d="M581.487 79.277h8.716l2.095-1.215-4.358-2.53z"/><path fill="#999914" d="M593.248 94.96l-2.393-4.535 7.598-4.259h4.528l7.923-4.598-13.952-8.097h-4.654V85.62l-4.862 2.821v9.05l-5.59 3.245 11.402 6.617z"/><path fill="#000" opacity=".3" d="M968.44 24.6l-23.574-.6-65.684 37.808-1.182.68 17.172 9.887 3.461.625h24.491L989 35.074l-17.727-9.805z"/><path fill="#3B3B3B" d="M909 64v-6l-6 3zm37-21v-6l-6 3z"/><path fill="#3B3B3B" d="M898 65.58l4.544 2.42L907 60.206 902.858 58z"/><path d="M907.318 59.843c-1.386-.716-3.452.456-4.615 2.619-1.163 2.162-.983 4.496.403 5.213 1.386.716 3.452-.456 4.615-2.618 1.163-2.163.983-4.497-.403-5.214" fill="#515151"/><path d="M906.537 61.295a1.17 1.17 0 0 0-.268-.098c.59.604.595 1.872-.043 3.058-.66 1.228-1.783 1.948-2.636 1.747.086.088.185.163.297.221.872.45 2.172-.287 2.904-1.648.732-1.36.618-2.829-.254-3.28" fill="#C7C7C7"/><path d="M903.633 62.942c-.638 1.187-.633 2.455-.043 3.06.853.2 1.976-.52 2.635-1.747.639-1.186.634-2.454.044-3.058-.853-.202-1.976.518-2.636 1.745" fill="#8C8C8C"/><path d="M905.566 61.92c-.541-.28-1.348.177-1.802 1.022-.454.844-.384 1.755.157 2.035.541.28 1.348-.178 1.802-1.022.454-.844.384-1.756-.157-2.035" fill="#ACACAC"/><path d="M905.808 62.057c-.54-.28-1.347.177-1.802 1.022-.454.844-.383 1.756.158 2.035.54.28 1.347-.178 1.802-1.022.454-.844.383-1.755-.158-2.035" fill="#C7C7C7"/><path fill="#3B3B3B" d="M935.489 44.48l4.294 2.432 4.213-7.831-3.916-2.217z"/><path d="M943.996 39.08c-1.386-.716-3.453.456-4.616 2.619-1.163 2.162-.982 4.496.403 5.213 1.386.716 3.452-.456 4.616-2.618 1.163-2.163.982-4.497-.403-5.214" fill="#515151"/><path d="M943.215 40.532a1.17 1.17 0 0 0-.268-.098c.59.604.594 1.872-.044 3.059-.66 1.227-1.782 1.947-2.636 1.746.086.088.186.163.297.221.872.45 2.172-.287 2.904-1.648.732-1.36.619-2.829-.253-3.28" fill="#C7C7C7"/><path d="M940.31 42.18c-.638 1.186-.633 2.454-.043 3.059.854.201 1.976-.52 2.636-1.746.638-1.187.633-2.455.043-3.06-.853-.2-1.975.52-2.636 1.747" fill="#8C8C8C"/><path d="M942.243 41.157c-.54-.28-1.348.177-1.801 1.022-.455.844-.384 1.755.157 2.035.54.28 1.348-.178 1.802-1.022.454-.844.383-1.756-.158-2.035" fill="#ACACAC"/><path d="M942.486 41.294c-.542-.28-1.348.178-1.802 1.022-.454.844-.384 1.755.157 2.035.541.28 1.348-.178 1.802-1.022.454-.844.384-1.755-.157-2.035" fill="#C7C7C7"/><path d="M895.467 66.738l1.163 3.306 4.888-2.767v-1.492c0-6.236 7.303-9.384 7.303-4.135v1.493l29.53-16.717v-1.425c0-6.543 7.151-9.207 7.151-4.048v1.425l6.984-3.953 8.406-6.984V11.919l-65.425 37.037v17.782zM876 57.266l1.115 3.038 17.206 9.74-.998-2.972z" fill="#C7C7C7"/><path fill="#35666C" d="M876 41.287l17.323 9.807v-2.121L876 39.166z"/><path fill="#508085" d="M876 39.166l17.323 9.807 1.095-1.86-17.327-9.808z"/><path fill="#DEDEDE" d="M894.418 47.114l1.049 1.842 65.425-37.037-1.076-1.827z"/><path fill="#35666C" d="M893.323 48.973l2.144-.017-1.05-1.842z"/><g transform="translate(877.028)"><mask id="d" fill="#fff"><use xlink:href="#c"/></mask><path fill="#FFF" mask="url(#d)" d="M.063 37.305l17.327 9.809 65.398-37.022L65.46.284z"/></g><path fill="#295053" d="M893.323 62.53h2.144V48.956l-2.144.017z"/><path fill="#DEDEDE" d="M895.467 62.53h-2.144v4.542l.999 2.972h2.308l-1.163-3.306z"/><path fill="#FFF" d="M876 57.266l17.323 9.806v-4.541L876 52.724z"/><path fill="#1B3B3E" d="M895.467 62.53l63.387-35.883V15.193l-63.387 35.883z"/><path fill="#508085" d="M876.748 50.848V41.71l-.748-.423v11.437l17.323 9.806V51.093l-8.504-4.814z"/><path fill="#508085" d="M876.748 50.848l8.07-4.569-8.07-4.569z"/><path fill="#295053" d="M896.318 62.048l8.162-4.62V48.28l-8.162 4.62zm8.894-5.034l8.161-4.62v-9.149l-8.161 4.62zm8.894-5.035l8.161-4.62V38.21l-8.161 4.62zM923 46.944l8.16-4.62v-9.148l-8.16 4.62zm8.893-5.034l8.161-4.62v-9.15l-8.16 4.62zm8.894-5.035l8.161-4.62v-9.148l-8.161 4.62zm8.893-5.035l8.162-4.62v-9.148l-8.161 4.62z"/><g transform="translate(876 26.885)"><mask id="f" fill="#fff"><use xlink:href="#e"/></mask><path d="M17.323 37.098L0 27.292v3.089l1.116 3.038 17.206 9.74h2.308l4.888-2.766V38.9c0-6.235 7.303-9.384 7.303-4.134v1.492l29.53-16.717v-1.425c0-6.543 7.152-9.206 7.152-4.048v1.425l6.983-3.953 8.406-6.984V.062L19.467 37.098h-2.144z" fill="#118756" mask="url(#f)"/></g><path fill="#8C8C8C" d="M896.802 32.207l6.259 3.543v-1.075l-6.259-3.543z"/><path fill="#666" d="M896.802 31.132l6.259 3.542 6.258-3.542-6.258-3.543z"/><path fill="#515151" d="M903.06 35.75l6.259-3.543v-1.075l-6.258 3.542z"/><path fill="#8C8C8C" d="M924.903 16.3l6.258 3.542v-1.075l-6.258-3.543z"/><path fill="#666" d="M924.903 15.224l6.258 3.543 6.258-3.543-6.258-3.542z"/><path fill="#515151" d="M931.161 19.842l6.258-3.543v-1.075l-6.258 3.543z"/><path fill="#FFF" d="M889.329 64.81l3.994 2.262v-2.28l-3.994-2.262zM876 57.266l3.994 2.26v-2.28L876 54.985z"/><g transform="translate(0 67)" fill-rule="nonzero"><path d="M646.101 215.488L309.433 21.074a67.655 67.655 0 0 0-67.69 0L10.808 154.43c-14.41 8.33-14.41 29.157 0 37.487l335.875 193.918a75.837 75.837 0 0 0 75.854 0l223.564-129.091c15.865-9.19 15.865-32.1 0-41.256zm444.021 281.416l-336.09-193.856a67.606 67.606 0 0 0-67.573 0L481.789 421.09c-14.385 8.307-14.385 29.074 0 37.38l335.265 193.395a75.782 75.782 0 0 0 75.724 0l197.344-113.822c15.837-9.13 15.837-31.974 0-41.138z" fill="#DAEDEC"/><path fill="#5A0A99" d="M58 165.347L294.442 302 520 171.62 283.591 35z"/><path fill="#DAEDEC" d="M294 145.84L429.127 224 524 169.16 388.84 91z"/><path fill="#DAEDEC" d="M225 66.031L336.318 130 359 116.969 247.682 53zm-96 175.323L151.032 254 317 158.679 294.968 146z"/><path fill="#5A0A99" d="M512 206.754L548.88 185 658 247.541 620.56 269z"/><path fill="#447269" d="M495 165.69L407.339 115 348 149.31 435.661 200z"/><path fill="#000" opacity=".3" d="M341 144.736l7.393 4.264L408 114.527V106z"/><path fill="#FFFFFE" d="M502 161.698L407 106v8.605L494.642 166z"/><path d="M234.883 87.875L224 94.557 234.883 101h46.087s7.035-4.193 7.068-4.193c.033-.034-2.356-1.364-2.356-1.364L289 93.466l-11.746-6.955L253.2 86l-3.385 1.875h-14.93z" fill="#000" opacity=".3"/><path fill="#6E4E3A" d="M226 83v11.18l3 1.82V84.82z"/><path fill="#583D2D" d="M229 84.82l3-1.82v11.18L229 96z"/><path fill="#AF6496" d="M226.657 70L235 82.366v3.177L224 92V71.571z"/><path fill="#FFAEE0" d="M229 57.46V86l-2.723-1.52V69.814L221 66.874V53z"/><path fill="#AF6496" d="M229 57.902L236 54v6.276l-4.153 2.31v19.251l2.277 1.301L229 86z"/><path fill="#D873BB" d="M236 53.781L228.94 58 221 53.254 228.06 49z"/><path fill="#FFE600" d="M234 64.33V84l-2-1.33V63z"/><path fill="#AF6496" d="M234 64.317L245 58v19.683L234 84z"/><path fill="#FFAEE0" d="M224 71.868L212 65v20.132L224 92z"/><path fill="#D873BB" d="M212 65.293L224.263 72 227 70.488l-5.37-2.926V60zm34-7.889L233.248 50l-1.248.747 4.79 2.785v1.698l6.477 3.77z"/><path fill="#999914" d="M234 64l8-5z"/><path fill="#9E3C8B" d="M232 82.67l2 1.33V64.33L232 63z"/><path fill="#9E3C8B" d="M236.316 56v5.067L232 63.583 234.367 65 243 59.933zM227 70l3 5.322V86l-3-1.502z"/><path d="M307.883 184.875L297 191.557 307.883 198h46.087s7.035-4.193 7.068-4.193c.033-.034-2.356-1.364-2.356-1.364l3.318-1.977-11.746-6.955L326.2 183l-3.385 1.875h-14.93z" fill="#000" opacity=".3"/><path fill="#6E4E3A" d="M298 179v11.152l3 1.848v-11.152z"/><path fill="#583D2D" d="M301 180.848l3-1.848v11.152L301 192z"/><path fill="#AF6496" d="M299.657 167L308 179.366v3.143L297 189v-20.429z"/><path fill="#FFAEE0" d="M303 153.488V182l-2.723-1.518V165.83L295 162.86V149z"/><path fill="#AF6496" d="M302 153.931l7-3.931v6.27l-4.153 2.34v19.232l2.277 1.267L302 182z"/><path fill="#D873BB" d="M310 149.746L302.94 154l-7.94-4.781 7.06-4.219z"/><path fill="#FFE600" d="M307 160.298V180l-2-1.298V159z"/><path fill="#AF6496" d="M307 160.317L318 154v19.716L307 180z"/><path fill="#FFAEE0" d="M298 167.868L286 161v20.099L298 188z"/><path fill="#D873BB" d="M286 161.293L298.263 168l2.737-1.512-5.37-2.96V156zm32-6.895L305.248 147l-1.248.716 4.79 2.795v1.705l6.477 3.784z"/><path fill="#999914" d="M307 160l8-5z"/><path fill="#9E3C8B" d="M305 178.702l2 1.298v-19.702L305 159z"/><path fill="#9E3C8B" d="M309.316 152v5.067L305 159.618l2.367 1.382 8.633-5.067zM299 167l3 5.29V183l-3-1.502z"/><path fill="#000" opacity=".3" d="M171.83 117.42L144 133.276 166.389 146h22.586l8.457-4.78h4.327L225 128.012l-14.587-8.3h-6.523L199.136 117h-18.52z"/><path fill="#6E4E3A" d="M147 112v20.614l6 3.386v-20.614z"/><path fill="#583D2D" d="M153 115.386l6-3.386v20.614L153 136z"/><path fill="#FFAEE0" d="M125 98v19.271L148 130v-19.271z"/><path fill="#D873BB" d="M125 98.018L140.562 89v3.006l14.64 8.49 7.633-4.427L168 99.042 147.372 111z"/><path fill="#AF6496" d="M155 101l7.753-4.412L168 99.55V82l-13 7.409z"/><path fill="#FFAEE0" d="M155 101l-15-8.44V81l15 8.44z"/><path fill="#D873BB" d="M140 80.469L154.406 89 167 81.531 152.594 73z"/><path fill="#AF6496" d="M168 99v8.778l-5.861 3.272v10.495L147 130v-19.274z"/><path fill="#D873BB" d="M162 110.988l6.678 4.012L189 102.832 167.592 90v17.64z"/><path fill="#FFAEE0" d="M161.863 112v10.991l-6.863 3.97L169 135v-18.895z"/><path fill="#AF6496" d="M190 103l-21 11.916V133l21-11.916z"/><path fill="#9E3C8B" d="M155 101h10.494L168 99.358 162.753 96z"/><path fill="#9E3C8B" d="M168.327 119.37l-2.795-5.37 8.906-5.008h5.298l9.264-5.437L172.683 94h-5.461v14.333l-5.689 3.328v10.675L155 126.191 168.327 134z"/><path fill="#000" opacity=".3" d="M256.018 213.374L233 227.014 251.514 238h18.712l6.988-4.116h3.544L300 222.49l-12.055-7.177h-5.399L278.605 213h-15.334z"/><path fill="#6E4E3A" d="M235 209v17.196l5 2.804v-17.162z"/><path fill="#583D2D" d="M240 211.838l5-2.838v17.196L240 229z"/><path fill="#FFE600" d="M216 197v16.274L235 224v-16.274z"/><path fill="#EFF653" d="M216 198.398L228.659 191v2.444l11.906 6.969 6.248-3.633 4.187 2.444L234.22 209z"/><path fill="#C8A900" d="M241 201l6.586-3.72 4.414 2.502V185l-11 6.224z"/><path fill="#FFE600" d="M241 201l-12-7.188V184l12 7.154z"/><path fill="#EFF653" d="M229 183.071L241.258 190 252 183.929 239.742 177z"/><path fill="#C8A900" d="M252 198v7.372l-4.739 2.756v8.8L235 224v-16.171z"/><path fill="#EFF653" d="M246 209.665l5.684 3.335L269 202.79 250.753 192v14.84z"/><path fill="#FFE600" d="M247.402 208v9.088L242 220.347 253 227v-15.639z"/><path fill="#C8A900" d="M270 202l-18 9.92V227l18-9.92z"/><path fill="#999914" d="M241 200h8.862l2.138-1.31-4.414-2.69z"/><path fill="#999914" d="M252.978 214.314l-2.287-4.282 7.318-4.024h4.346l7.645-4.346L256.54 194h-4.477v11.493l-4.672 2.672v8.531L242 219.755 252.978 226z"/><path fill="#000" opacity=".3" d="M161 166.567h5.848L186.472 178h23.919L228 167.733 199.257 151h-22.862l-14.57 8.467z"/><path fill="#6E4E3A" d="M156 149v16.325l5 2.675v-16.325z"/><path fill="#583D2D" d="M161 151.675l5-2.675v16.325L161 168z"/><path fill="#EFF653" d="M152.118 132.224l-7.637-4.564-2.481 1.488L160.147 140 178 129.283 164.161 121v4.023z"/><path fill="#FFE600" d="M142 129v18.714L161 158v-18.714z"/><path fill="#C8A900" d="M161 140.203L179 130v18.797L161 159z"/><path fill="#FFE600" d="M153 133v-7.241L143 120v9.483l1.931-1.138z"/><path fill="#C8A900" d="M153 125.05V132l12-7.05V118z"/><path fill="#EFF653" d="M143 120.287L155.319 113l9.681 5.713L152.681 126z"/><path fill="#999914" d="M153 132h7.891L173 125.208 165.551 121v3.943z"/><path fill="#000" opacity=".3" d="M290 136.567h5.848L315.472 148h23.919L357 137.767 328.257 121h-22.862l-14.57 8.467z"/><path fill="#6E4E3A" d="M286 118v16.325l5 2.675v-16.325z"/><path fill="#583D2D" d="M290 120.675l5-2.675v16.325L290 137z"/><path fill="#EFF653" d="M282.118 101.21l-7.605-4.538-2.513 1.49L290.147 109 308 98.298 294.161 90v3.996z"/><path fill="#FFE600" d="M272 98v18.735L291 127v-18.735z"/><path fill="#C8A900" d="M291 108.182L309 98v18.818L291 127z"/><path fill="#FFE600" d="M283 101v-7.207L273 88v9.483l1.966-1.104z"/><path fill="#C8A900" d="M283 94.066V101l12-7.066V87z"/><path fill="#EFF653" d="M273 89.268L285.319 82 295 87.732 282.681 95z"/><path fill="#999914" d="M283 101h7.891L303 94.187 295.551 90v3.921z"/><path fill="#000" opacity=".3" d="M264.863 131.42L237 147.262 259.389 160h22.618l8.458-4.753h4.294L318 141.992l-14.587-8.309h-6.523L292.17 131h-18.554z"/><path fill="#6E4E3A" d="M240 126v20.614l6 3.386v-20.614z"/><path fill="#583D2D" d="M245 129.386l6-3.386v20.614L245 150z"/><path fill="#FFE600" d="M217 112v19.271L240 144v-19.271z"/><path fill="#EFF653" d="M217 111.018L232.529 102v2.973l14.64 8.49 7.666-4.427 5.165 3.006L239.372 124z"/><path fill="#C8A900" d="M247 114l7.767-4.412 5.233 2.996V95l-13 7.409z"/><path fill="#FFE600" d="M248 114l-15-8.44V94l15 8.44z"/><path fill="#EFF653" d="M233 93.469L247.39 102 260 94.531 245.61 86z"/><path fill="#C8A900" d="M261 113v8.778l-5.861 3.272v10.495L240 144v-19.274z"/><path fill="#EFF653" d="M254 125.016l6.678 3.984L281 116.815 259.592 104v17.663z"/><path fill="#FFE600" d="M253.88 125v11.007l-6.88 3.941L261 148v-18.923z"/><path fill="#C8A900" d="M282 117l-21 11.916V147l21-11.916z"/><path fill="#999914" d="M247 115h10.467l2.533-1.604-5.233-3.396z"/><path fill="#999914" d="M260.347 132.37l-2.793-5.337 8.865-5.041h5.294l9.287-5.437L264.666 107h-5.423v14.366l-5.683 3.328v10.675l-6.56 3.822L260.347 147z"/><path d="M91.628 175h19.581l10.886-6.45h14.47s7.5-4.437 7.435-4.403c-.067.034-6.705-4.164-6.705-4.164H126.21L117.847 155h-20.51l-14.04 8.294H75v4.914h5.708L91.628 175z" fill="#000" opacity=".3"/><path fill="#6E4E3A" d="M70 150v16.325L75 169v-16.325z"/><path fill="#583D2D" d="M75 152.675L80 150v16.325L75 169z"/><path fill="#FFAEE0" d="M74 144.475V164l-11-6.475V138z"/><path fill="#AF6496" d="M75 144.475L86 138v19.525L75 164z"/><path fill="#D873BB" d="M63 138.72l3.276-1.814 3.31 1.813 3.276-1.813 3.276 1.813L81.086 136 86 138.72 74.5 145zm6.777-8.72L73 128.09l-4.297-2.522V118L59 123.693z"/><path fill="#FFAEE0" d="M70 130.233v8.389l-3.324-1.887-3.29 1.887V146L59 143.54V124z"/><path fill="#AF6496" d="M73 128v8.164L70 138v-8.164zm3 10l4.677-2.77L83 136.616V114l-7 4.12z"/><path fill="#FFAEE0" d="M77 118.434V139l-3.429-1.91v-8.492L69 126.074V114z"/><path fill="#D873BB" d="M69 114.483L76.619 119 84 114.656 76.619 110z"/><path fill="#9E3C8B" d="M73 128l3 6.492V138h-6l3-1.836zm8.017 8L76 139h10z"/><path d="M108.883 175.875L98 182.557 108.883 189h46.087s7.035-4.193 7.068-4.193c.033-.034-2.356-1.364-2.356-1.364l3.318-1.977-11.746-6.955L127.2 174l-3.385 1.875h-14.93z" fill="#000" opacity=".3"/><path fill="#6E4E3A" d="M100 170v11.152l3 1.848v-11.152z"/><path fill="#583D2D" d="M103 171.848l3-1.848v11.152L103 183z"/><path fill="#C8A900" d="M100.657 158L109 170.351v3.182L98 180v-20.426z"/><path fill="#FFE600" d="M104 144.455V173l-2.723-1.518V156.83L96 153.86V140z"/><path fill="#C8A900" d="M104 144.898l7-3.898v6.27l-4.153 2.307v19.265l2.277 1.267L104 173z"/><path fill="#EFF653" d="M111 141.781L103.94 146 96 141.254l7.06-4.254z"/><path fill="#FFE600" d="M109 151.33V171l-2-1.296V150z"/><path fill="#C8A900" d="M109 151.317L120 145v19.683L109 171z"/><path fill="#FFE600" d="M98 158.901L86 152v20.132L98 179z"/><path fill="#EFF653" d="M86 152.26L98.263 159l2.737-1.512-5.37-2.96V147zm34-6.856L107.248 138l-1.248.747 4.79 2.785v1.698l6.477 3.77z"/><path fill="#999914" d="M109 151l8-5zm-2 18.704l2 1.296v-19.67l-2-1.33z"/><path fill="#999914" d="M111.316 143v5.067L107 150.583l2.367 1.417 8.633-5.067zM101 158l3 5.29V174l-3-1.502z"/><path d="M147.602 209h19.591l10.891-6.45h14.478s7.504-4.437 7.438-4.403c-.067.034-6.708-4.164-6.708-4.164h-11.057L173.867 189h-20.52l-14.046 8.294H131v4.914h5.711L147.602 209z" fill="#000" opacity=".3"/><path fill="#6E4E3A" d="M126 183v16.325l5 2.675v-16.29z"/><path fill="#583D2D" d="M131 185.71l5-2.71v16.325L131 202z"/><path fill="#EDA400" d="M131 177.475V197l-11-6.475V171z"/><path fill="#BC7D00" d="M131 177.475L142 171v19.525L131 197z"/><path fill="#FCC556" d="M120 170.72l3.276-1.814 3.31 1.813 3.276-1.813 3.31 1.813 4.914-2.719 4.914 2.72-11.5 6.28zm5.777-7.72l3.223-1.91-4.297-2.522V151L115 156.693z"/><path fill="#EDA400" d="M126 163.233v8.389l-3.324-1.887-3.29 1.887V179L115 176.54V157z"/><path fill="#BC7D00" d="M129 161v8.164L126 171v-8.164zm4 10l4.667-2.77 2.333 1.385V147l-7 4.12z"/><path fill="#EDA400" d="M133 151.434V172l-3.449-1.91v-8.492L125 159.074V147z"/><path fill="#FCC556" d="M125 146.483l7.653 4.517 7.347-4.344-7.347-4.656z"/><path fill="#996200" d="M128.984 161l3.016 6.492V171h-6l2.984-1.836zM143 171l-5-3-5 3z"/><path d="M174.602 224h19.591l10.891-6.45h14.478s7.504-4.437 7.438-4.403c-.067.034-6.708-4.164-6.708-4.164h-11.057L200.867 204h-20.52l-14.046 8.294H158v4.914h5.711L174.602 224z" fill="#000" opacity=".3"/><path fill="#6E4E3A" d="M154 198v16.325l5 2.675v-16.325z"/><path fill="#583D2D" d="M158 200.675l5-2.675v16.325L158 217z"/><path fill="#FFE600" d="M158 193.5V213l-11-6.5V187z"/><path fill="#C8A900" d="M158 193.5l11-6.5v19.5l-11 6.5z"/><path fill="#EFF653" d="M147 186.687l3.305-1.813 3.271 1.813 3.305-1.813 3.272 1.813 4.906-2.687 4.941 2.687L158.483 193zm6.743-7.687l3.257-1.88-4.33-2.564V167l-9.67 5.675z"/><path fill="#FFE600" d="M154 178.223v8.376l-3.3-1.883-3.334 1.883V194L143 191.51V172z"/><path fill="#C8A900" d="M156 177v8.158L153 187v-8.19zm4 10l4.667-2.736 2.333 1.351V163l-7 4.12z"/><path fill="#FFE600" d="M160 166.406V187l-3.413-1.913v-8.47L152 174.056V162z"/><path fill="#EFF653" d="M152 162.517l7.653 4.483 7.347-4.344-7.347-4.656z"/><path fill="#999914" d="M156.016 177l2.984 6.48V187h-6l3.016-1.842zm8.967 7L160 187h10z"/><path d="M548.602 216h19.591l10.891-6.45h14.478s7.504-4.437 7.438-4.403c-.067.034-6.708-4.164-6.708-4.164h-11.057L574.867 196h-20.52l-14.046 8.294H532v4.914h5.711L548.602 216z" fill="#000" opacity=".3"/><path fill="#6E4E3A" d="M528 191v16.325l5 2.675v-16.325z"/><path fill="#583D2D" d="M532 193.675l5-2.675v16.325L532 210z"/><path fill="#FFAEE0" d="M532 185.475V205l-11-6.475V179z"/><path fill="#AF6496" d="M532 185.475L543 179v19.525L532 205z"/><path fill="#D873BB" d="M521 178.72l3.276-1.814 3.31 1.813 3.276-1.813 3.31 1.813 4.914-2.719 4.914 2.72-11.5 6.28zm6.777-7.72l3.223-1.91-4.297-2.522V159L517 164.693z"/><path fill="#FFAEE0" d="M528 171.233v8.389l-3.324-1.887-3.29 1.887V187L517 184.54V165z"/><path fill="#AF6496" d="M530 169v8.164L527 179v-8.164zm4 10l4.667-2.77 2.333 1.385V155l-7 4.12z"/><path fill="#FFAEE0" d="M534 159.434V180l-3.449-1.91v-8.492L526 167.074V155z"/><path fill="#D873BB" d="M526 154.483l7.653 4.517 7.347-4.344-7.347-4.656z"/><path fill="#9E3C8B" d="M529.984 169l3.016 6.492V179h-6l2.984-1.836zm9.016 7l-5 3h10z"/><path d="M567.883 216.875L557 223.557 567.883 230h46.087s7.035-4.193 7.068-4.193c.033-.034-2.356-1.364-2.356-1.364l3.318-1.977-11.746-6.955L586.2 215l-3.385 1.875h-14.93z" fill="#000" opacity=".3"/><path fill="#6E4E3A" d="M559 211v11.152l3 1.848v-11.152z"/><path fill="#583D2D" d="M562 212.848l3-1.848v11.152L562 224z"/><path fill="#C8A900" d="M559.657 198L568 210.351v3.182L557 220v-20.426z"/><path fill="#FFE600" d="M562 186.455V215l-2.723-1.518V198.83L554 195.86V182z"/><path fill="#C8A900" d="M562 186.898l7-3.898v6.27l-4.153 2.307v19.265l2.277 1.267L562 215z"/><path fill="#EFF653" d="M569 182.781L561.94 187l-7.94-4.746 7.06-4.254z"/><path fill="#FFE600" d="M567 192.33V212l-2-1.296V191z"/><path fill="#C8A900" d="M568 192.317L579 186v19.683L568 212z"/><path fill="#FFE600" d="M557 199.901L545 193v20.132L557 220z"/><path fill="#EFF653" d="M545 194.26l12.263 6.74 2.737-1.512-5.37-2.96V189zm34-7.856L566.248 179l-1.248.747 4.79 2.785v1.698l6.477 3.77z"/><path fill="#999914" d="M568 193l8-5zm-3 17.704l2 1.296v-19.67l-2-1.33z"/><path fill="#999914" d="M569.316 184v5.067L565 191.583l2.367 1.417 8.633-5.067zM560 198l3 5.29V214l-3-1.502z"/><path d="M605.602 250h19.591l10.891-6.45h14.478s7.504-4.437 7.438-4.403c-.067.034-6.708-4.164-6.708-4.164h-11.057L631.867 230h-20.52l-14.046 8.294H589v4.914h5.711L605.602 250z" fill="#000" opacity=".3"/><path fill="#6E4E3A" d="M584 224v16.295l5 2.705v-16.295z"/><path fill="#583D2D" d="M589 226.705l5-2.705v16.295L589 243z"/><path fill="#EDA400" d="M588 218.475V238l-11-6.475V212z"/><path fill="#BC7D00" d="M589 218.475L600 212v19.525L589 238z"/><path fill="#FCC556" d="M577 211.72l3.276-1.814 3.31 1.813 3.276-1.813 3.31 1.813 4.914-2.719 4.914 2.72-11.5 6.28zm6.777-6.72l3.223-1.91-4.297-2.522V193L573 198.693z"/><path fill="#EDA400" d="M584 203.233v8.389l-3.324-1.887-3.29 1.887V219L573 216.54V197z"/><path fill="#BC7D00" d="M587 202v8.164L584 212v-8.164zm3 11l4.667-2.77 2.333 1.385V189l-7 4.12z"/><path fill="#EDA400" d="M591 192.406V213l-3.449-1.913v-8.504L583 200.056V188z"/><path fill="#FCC556" d="M583 188.517l7.653 4.483 7.347-4.344-7.347-4.656z"/><path fill="#996200" d="M586.984 202l3.016 6.492V212h-6l2.984-1.836zM600 212l-5-3-5 3z"/><path d="M633.602 265h19.591l10.891-6.45h14.478s7.504-4.437 7.438-4.403c-.067.034-6.708-4.164-6.708-4.164h-11.057L659.867 245h-20.52l-14.046 8.294H617v4.914h5.711L633.602 265z" fill="#000" opacity=".3"/><path fill="#6E4E3A" d="M612 240v16.325l5 2.675v-16.325z"/><path fill="#583D2D" d="M617 242.675l5-2.675v16.325L617 259z"/><path fill="#FFE600" d="M617 234.5V254l-11-6.5V228z"/><path fill="#C8A900" d="M617 234.5l11-6.5v19.5l-11 6.5z"/><path fill="#EFF653" d="M606 227.687l3.305-1.813 3.271 1.813 3.305-1.813 3.272 1.813 4.906-2.687 4.941 2.687L617.517 234zm5.743-7.687l3.257-1.88-4.33-2.53V208l-9.67 5.675z"/><path fill="#FFE600" d="M612 219.223v8.376l-3.3-1.883-3.334 1.883V235L601 232.51V213z"/><path fill="#C8A900" d="M615 218v8.158L612 228v-8.19zm4 9l4.645-2.736 2.355 1.351V203l-7 4.12z"/><path fill="#FFE600" d="M619 207.406V228l-3.413-1.913v-8.47L611 215.09V203z"/><path fill="#EFF653" d="M611 203.517l7.636 4.483 7.364-4.344-7.364-4.656z"/><path fill="#999914" d="M615.016 218l2.984 6.48V228h-6l3.016-1.842zm8.967 7L619 228h10z"/><path d="M282.628 66h19.581l10.886-6.45h14.47s7.5-4.437 7.435-4.403c-.067.034-6.705-4.164-6.705-4.164h-11.051L308.88 46h-20.51l-14.073 8.328H266v4.914h5.708L282.628 66z" fill="#000" opacity=".3"/><path fill="#6E4E3A" d="M262 40v16.325L267 59V42.675z"/><path fill="#583D2D" d="M266 42.675L271 40v16.325L266 59z"/><path fill="#EDA400" d="M266 34.5V54l-11-6.5V28z"/><path fill="#BC7D00" d="M266 34.5l11-6.5v19.5L266 54z"/><path fill="#FCC556" d="M255 28.687l3.276-1.813 3.31 1.813 3.276-1.813 3.31 1.813L273.086 26 278 28.687 266.5 35zM261.777 21L265 19.12l-4.297-2.53V9L251 14.675z"/><path fill="#EDA400" d="M262 21.223V29.6l-3.324-1.883-3.29 1.883V37L251 34.51V15z"/><path fill="#BC7D00" d="M265 19v8.158L262 29v-8.19zm3 10l4.667-2.74L275 27.613V5l-7 4.127z"/><path fill="#EDA400" d="M268 9.44V30l-3.449-1.913v-8.47L260 17.09V5z"/><path fill="#FCC556" d="M260 4.5l7.653 4.5L275 4.673 267.653 0z"/><path fill="#996200" d="M264.984 19L268 25.48V29h-6l2.984-1.842zM278 29l-5-3-5 3z"/><path d="M301.883 65.875L291 72.557 301.883 79h46.087s7.035-4.193 7.068-4.193c.033-.034-2.356-1.364-2.356-1.364L356 71.466l-11.746-6.955L320.2 64l-3.385 1.875h-14.93z" fill="#000" opacity=".3"/><path fill="#6E4E3A" d="M292 60v11.152L295 73V61.848z"/><path fill="#583D2D" d="M296 61.848L299 60v11.152L296 73z"/><path fill="#C8A900" d="M293.657 47L302 59.351v3.182L291 69V48.574z"/><path fill="#FFE600" d="M296 34.455V63l-2.723-1.518V46.83L288 43.86V30z"/><path fill="#C8A900" d="M296 34.898L303 31v6.27l-4.153 2.307v19.265l2.277 1.267L296 63z"/><path fill="#EFF653" d="M303 31.781L295.94 36 288 31.254 295.06 27z"/><path fill="#FFE600" d="M300 41.33V61l-2-1.296V40z"/><path fill="#C8A900" d="M300 41.317L311 35v19.683L300 61z"/><path fill="#FFE600" d="M291 48.901L279 42v20.132L291 69z"/><path fill="#EFF653" d="M279 42.26L291.263 49 294 47.488l-5.37-2.96V37zm33-6.856L299.248 28l-1.248.747 4.79 2.785v1.698l6.477 3.77z"/><path fill="#999914" d="M300 41l8-5zm-2 18.704L300 61V41.33L298 40zM302.316 32v5.067L298 39.583 300.367 41 309 35.933zM294 47l3 5.29V63l-3-1.502z"/><path d="M339.602 99h19.591l10.891-6.45h14.478s7.504-4.437 7.438-4.403c-.067.034-6.708-4.164-6.708-4.164h-11.057L365.867 79h-20.52L331.3 87.294H323v4.914h5.711L339.602 99z" fill="#000" opacity=".3"/><path fill="#6E4E3A" d="M318 73v16.295L323 92V75.705z"/><path fill="#583D2D" d="M323 75.705L328 73v16.295L323 92z"/><path fill="#FFAEE0" d="M323 67.475V87l-11-6.475V61z"/><path fill="#AF6496" d="M323 67.475L334 61v19.525L323 87z"/><path fill="#D873BB" d="M312 61.72l3.276-1.814 3.31 1.813 3.276-1.813 3.31 1.813L330.086 59 335 61.72 323.5 68zm5.777-8.72L321 51.09l-4.297-2.522V41L307 46.693z"/><path fill="#FFAEE0" d="M318 53.233v8.389l-3.324-1.887-3.29 1.887V69L307 66.54V47z"/><path fill="#AF6496" d="M321 51v8.164L318 61v-8.164zm4 10l4.667-2.77L332 59.616V37l-7 4.12z"/><path fill="#FFAEE0" d="M325 41.406V62l-3.449-1.913v-8.504L317 49.056V37z"/><path fill="#D873BB" d="M317 36.517L324.653 41 332 36.656 324.653 32z"/><path fill="#9E3C8B" d="M320.984 51L324 57.492V61h-6l2.984-1.836zM330 59l-5 3h10z"/><path d="M367.602 114h19.591l10.891-6.45h14.478s7.504-4.437 7.438-4.403c-.067.034-6.708-4.164-6.708-4.164h-11.057L393.867 94h-20.52l-14.046 8.294H351v4.914h5.711L367.602 114z" fill="#000" opacity=".3"/><path fill="#6E4E3A" d="M346 88v16.325l5 2.675V90.675z"/><path fill="#583D2D" d="M351 90.675L356 88v16.325L351 107z"/><path fill="#FFE600" d="M350 83.5V103l-11-6.5V77z"/><path fill="#C8A900" d="M351 83.5l11-6.5v19.5l-11 6.5z"/><path fill="#EFF653" d="M339 76.687l3.305-1.813 3.271 1.813 3.305-1.813 3.272 1.813L357.059 74 362 76.687 350.483 83zM345.743 69L349 67.12l-4.33-2.564V57L335 62.675z"/><path fill="#FFE600" d="M346 68.223V76.6l-3.3-1.883-3.334 1.883V84L335 81.51V62z"/><path fill="#C8A900" d="M349 67v8.158L346 77v-8.19zm3 9l4.667-2.736L359 74.615V52l-7 4.12z"/><path fill="#FFE600" d="M353 56.406V77l-3.413-1.913v-8.47L345 64.056V52z"/><path fill="#EFF653" d="M345 52.517L352.653 57 360 52.656 352.653 48z"/><path fill="#999914" d="M349.016 67L352 73.48V77h-6l3.016-1.842zm7.967 7L352 77h10z"/><path fill="#000" opacity=".3" d="M394.096 207.371L369 222.12 389.19 234h20.355l7.624-4.455h3.88L442 217.226l-13.161-7.728h-5.868L418.694 207h-16.708z"/><path fill="#6E4E3A" d="M372 202v18.891l5 3.109v-18.891z"/><path fill="#583D2D" d="M377 205.109l5-3.109v18.891L377 224z"/><path fill="#FFAEE0" d="M352 191v17.479L372 220v-17.479z"/><path fill="#D873BB" d="M352 191.196L365.732 183v2.732l12.95 7.723 6.751-4.047L390 192.14 371.767 203z"/><path fill="#AF6496" d="M378 193l7.159-3.969 4.841 2.68V176l-12 6.615z"/><path fill="#FFAEE0" d="M378 193l-13-7.591V175l13 7.591z"/><path fill="#D873BB" d="M365 174.527L378.34 182l11.66-6.527L376.66 168z"/><path fill="#AF6496" d="M390 192v7.91l-5.302 2.955v9.487L371 220v-17.43z"/><path fill="#D873BB" d="M385 203.304l6.175 3.696L410 195.808 390.18 184v16.223z"/><path fill="#FFAEE0" d="M384.902 202v9.57L379 215.013 391 222v-16.424z"/><path fill="#AF6496" d="M410 195l-19 11.125V223l19-11.125z"/><path fill="#9E3C8B" d="M378 193h9.683l2.317-1.3-4.841-2.7z"/><path fill="#9E3C8B" d="M390.768 209.19l-2.443-4.658 7.813-4.399h4.695l8.167-4.755L394.595 187h-4.791v12.55l-5.016 2.912v9.349L379 215.175 390.768 222z"/><path d="M332.602 249h19.591l10.891-6.45h14.478s7.504-4.437 7.438-4.403c-.067.034-6.708-4.164-6.708-4.164h-11.057L358.867 229h-20.52l-14.046 8.294H316v4.914h5.711L332.602 249z" fill="#000" opacity=".3"/><path fill="#6E4E3A" d="M311 223v16.29l5 2.71v-16.325z"/><path fill="#583D2D" d="M316 225.675l5-2.675v16.29l-5 2.71z"/><path fill="#EDA400" d="M315 217.475V237l-11-6.475V211z"/><path fill="#BC7D00" d="M316 217.475L327 211v19.525L316 237z"/><path fill="#FCC556" d="M304 210.697l3.276-1.82 3.31 1.82 3.276-1.82 3.31 1.82 4.914-2.697 4.914 2.697L315.5 217zm6.777-6.697l3.223-1.91-4.297-2.522V192L300 197.693z"/><path fill="#EDA400" d="M311 202.233v8.389l-3.324-1.887-3.29 1.887V218L300 215.54V196z"/><path fill="#BC7D00" d="M314 201v8.164L311 211v-8.164zm3 10l4.667-2.736 2.333 1.351V187l-7 4.12z"/><path fill="#EDA400" d="M318 191.406V212l-3.449-1.913v-8.504L310 199.056V187z"/><path fill="#FCC556" d="M310 187.517l7.653 4.483 7.347-4.344-7.347-4.656z"/><path fill="#996200" d="M313.984 201l3.016 6.492V211h-6l2.984-1.836zM327 211l-5-3-5 3z"/><path d="M340.883 254.875L330 261.557 340.883 268h46.087s7.035-4.193 7.068-4.193c.033 0-2.356-1.364-2.356-1.364l3.318-1.977-11.746-6.955L359.2 253l-3.385 1.875h-14.93z" fill="#000" opacity=".3"/><path fill="#6E4E3A" d="M332 249v11.152l3 1.848v-11.152z"/><path fill="#583D2D" d="M335 250.848l3-1.848v11.152L335 262z"/><path fill="#C8A900" d="M332.657 238L341 250.351v3.182L330 260v-20.426z"/><path fill="#FFE600" d="M335 224.455V253l-2.723-1.518V236.83L327 233.86V220z"/><path fill="#C8A900" d="M335 224.898l7-3.898v6.27l-4.153 2.34v19.232l2.277 1.267L335 253z"/><path fill="#EFF653" d="M342 220.781L334.94 225l-7.94-4.746 7.06-4.254z"/><path fill="#FFE600" d="M340 231.298V251l-2-1.298V230z"/><path fill="#C8A900" d="M340 231.317L351 225v19.683L340 251z"/><path fill="#FFE600" d="M330 238.901L318 232v20.132L330 259z"/><path fill="#EFF653" d="M318 232.26l12.263 6.74 2.737-1.512-5.37-2.96V227zm33-7.856L338.248 217l-1.248.747 4.79 2.785v1.698l6.477 3.77z"/><path fill="#999914" d="M340 231l8-5zm-2 18.702l2 1.298v-19.702L338 230z"/><path fill="#999914" d="M342.316 223v5.067L338 230.618l2.367 1.382 8.633-5.067zM333 238l3 5.29V254l-3-1.502z"/><path fill="#000" opacity=".3" d="M294.83 266.42L267 282.244 289.389 295h22.586l8.457-4.78h4.327L348 276.98l-14.587-8.3h-6.523l-4.754-2.68h-18.52z"/><path fill="#6E4E3A" d="M270 260v20.614l6 3.386v-20.614z"/><path fill="#583D2D" d="M276 263.386l6-3.386v20.614L276 284z"/><path fill="#EDA400" d="M247 247v19.271L270 279v-19.271z"/><path fill="#FCC556" d="M247 247.018L262.562 238v2.973l14.64 8.49 7.633-4.427 5.165 3.006L269.405 260z"/><path fill="#BC7D00" d="M277 249l7.753-4.412 5.247 2.996V230l-13 7.409z"/><path fill="#EDA400" d="M278 249l-15-8.44V229l15 8.44z"/><path fill="#FCC556" d="M263 229.469L277.406 238 290 230.531 275.594 222z"/><path fill="#BC7D00" d="M291 248v8.778l-5.87 3.272v10.495L270 279v-19.274z"/><path fill="#FCC556" d="M285 260.988l6.71 4.012L312 252.798 290.592 240v17.64z"/><path fill="#EDA400" d="M284.847 260v11.007L278 274.948 292 283v-18.89z"/><path fill="#BC7D00" d="M313 252l-21 11.948V282l21-11.916z"/><path fill="#996200" d="M277 250h10.494l2.506-1.604-5.247-3.396z"/><path fill="#996200" d="M291.36 268.37l-2.828-5.337 8.906-5.041h5.298l9.264-5.437L295.683 243h-5.461v14.366l-5.689 3.328v10.675L278 275.191 291.36 283z"/><path fill="#000" opacity=".3" d="M545.05 226.778l-12.254-7.41L522.9 218l-25.786 3.07-1.114 5.14L526.242 244h2.851l1.966-1.168h1.737L546 234.488l-5.898-4.906z"/><path fill="#3B3B3B" d="M516.426 234.118l-1.426.847V238l4-2.365V232h-2.574zm-19-11.965l-1.426.812V226l4-2.33V220h-2.574z"/><path fill="#3B3B3B" d="M517 234.012l3.483 6.988 3.517-2.188-3.782-6.812z"/><ellipse fill="#515151" transform="rotate(-27.808 518.5 237)" cx="518.5" cy="237" rx="2.5" ry="4"/><path d="M517.86 237.367c-.526-.922-.526-1.906-.032-2.367-.066.03-.165.03-.23.061-.725.339-.79 1.507-.198 2.552.592 1.045 1.646 1.63 2.37 1.291a.436.436 0 0 0 .23-.184c-.658.184-1.58-.4-2.14-1.353z" fill="#C7C7C7"/><path d="M517.378 235.027c-.51.49-.51 1.533.034 2.511.544 1.011 1.496 1.598 2.21 1.435.51-.49.51-1.533-.034-2.511-.544-1.011-1.496-1.598-2.21-1.435z" fill="#8C8C8C"/><ellipse fill="#ACACAC" transform="rotate(-27.808 519 236.5)" cx="519" cy="236.5" rx="1" ry="1.5"/><ellipse fill="#C7C7C7" transform="rotate(-27.808 519 236.5)" cx="519" cy="236.5" rx="1" ry="1.5"/><path fill="#3B3B3B" d="M498 221.976l3.45 7.024 3.55-2.188-3.782-6.812z"/><ellipse fill="#515151" transform="rotate(-27.808 500.5 226)" cx="500.5" cy="226" rx="2.5" ry="4"/><path d="M498.86 225.367c-.526-.922-.526-1.906-.032-2.367-.066.03-.165.03-.23.061-.725.339-.79 1.507-.198 2.552.592 1.045 1.646 1.63 2.37 1.291a.436.436 0 0 0 .23-.184c-.691.153-1.613-.4-2.14-1.353z" fill="#C7C7C7"/><path d="M499.378 223.036c-.51.488-.51 1.53.034 2.505.544 1.009 1.496 1.595 2.21 1.432.51-.488.51-1.53-.034-2.505-.544-1.01-1.496-1.627-2.21-1.432z" fill="#8C8C8C"/><ellipse fill="#ACACAC" transform="rotate(-27.808 501 225.5)" cx="501" cy="225.5" rx="1" ry="1.5"/><ellipse fill="#C7C7C7" transform="rotate(-27.808 500 225.5)" cx="500" cy="225.5" rx="1" ry="1.5"/><path fill="#EFF653" d="M514 228.18l10.011 7.82L538 228.016 528.287 220z"/><path fill="#9F9522" d="M524 238l14-7.82V228l-14 7.788z"/><path d="M510.035 216.082L497.647 209 494 215.266v4.536l3.253 1.86c2.727-3.002 5.586 3.198 5.586 3.198l13.57 7.767c2.662-3.068 5.75 3.296 5.75 3.296L524 237v-2.252l-9.923-7.767-4.042-10.9z" fill="#FFE600"/><path fill="#EFF653" d="M498 209.467L510.658 217 525 208.499 512.308 201zm4 17.357L515.642 235l1.358-.824L503.325 226z"/><path fill="#FFE600" d="M502 229.886L516 238v-2.92L502 227z"/><path fill="#515151" d="M521 241.094l3 1.906v-3.094L521 238z"/><path fill="#8C8C8C" d="M494.464 219L492 220.416l4.536 2.584 1.464-.814-3.536-2.018z"/><path fill="#515151" d="M492 223.704l4 2.296v-2.704L492 221z"/><path fill="#8C8C8C" d="M538.683 230.252l-14.378 8.259-1.908-1.117-1.397.812 3.169 1.794L541 230.32l-2.317-1.32z"/><path fill="#3B3B3B" d="M524 243l17-9.995V230l-17 9.995zm5-7l5-2.979V231l-5 3.014z"/><path fill="#FFFFFE" d="M523 235.68v1.71l1.043.61 3.957-2.29V234l-3.957 2.26zm11.033-3.68l3.967-2.236V228l-4 2.236z"/><path fill="#508085" d="M504 214v7.72l9 5.28-3.302-9.668z"/><path fill="#295053" d="M524.784 210.298l3.085 8.517-9.186-5.137-6.683 3.745 3.702 9.577L529 219.577 525.333 210z"/><path fill="#295053" opacity=".5" d="M517 213.572l9 5.428-3.022-9z"/><path d="M511 216.448L515.218 228 530 219.414 525.576 208 511 216.448zm4.767 10.38l-3.704-9.931 6.722-3.897 6.07-3.517.55-.31 3.669 9.965-13.307 7.69z" fill="#9F9522"/><path fill="#508085" d="M498 217.727l6 3.273v-7.625L501.503 212z"/><path fill="#000" opacity=".3" d="M537.78 230.185L524 238h2.351L540 230.25l-2.22-1.25z"/><path fill="#3B3B3B" d="M367.426 320.118l-1.426.847V324l4-2.365V318h-2.574zm-18-11.965l-1.426.812V312l4-2.33V306h-2.574z"/><path fill="#3B3B3B" d="M368 319.976l3.467 7.024 3.533-2.188-3.797-6.812z"/><ellipse fill="#515151" transform="rotate(-27.808 370.5 323)" cx="370.5" cy="323" rx="2.5" ry="4"/><path d="M368.86 323.367c-.526-.922-.526-1.906-.032-2.367-.066.03-.165.03-.23.061-.725.339-.79 1.507-.198 2.552.592 1.045 1.646 1.63 2.37 1.291a.436.436 0 0 0 .23-.184c-.658.184-1.58-.4-2.14-1.353z" fill="#C7C7C7"/><path d="M369.378 321.027c-.51.49-.51 1.533.034 2.511.544 1.011 1.496 1.598 2.21 1.435.51-.49.51-1.533-.034-2.511-.544-1.011-1.496-1.598-2.21-1.435z" fill="#8C8C8C"/><ellipse fill="#ACACAC" transform="rotate(-27.808 370 322.5)" cx="370" cy="322.5" rx="1" ry="1.5"/><ellipse fill="#C7C7C7" transform="rotate(-27.808 370 322.5)" cx="370" cy="322.5" rx="1" ry="1.5"/><path fill="#3B3B3B" d="M350 307.976l3.483 7.024 3.517-2.188-3.782-6.812z"/><ellipse fill="#515151" transform="rotate(-27.808 351.5 312)" cx="351.5" cy="312" rx="2.5" ry="4"/><path d="M350.86 311.367c-.526-.922-.526-1.906-.032-2.367-.066.03-.165.03-.23.061-.725.339-.79 1.507-.198 2.552.592 1.045 1.646 1.63 2.37 1.291a.436.436 0 0 0 .23-.184c-.691.153-1.613-.4-2.14-1.353z" fill="#C7C7C7"/><path d="M350.378 309.036c-.51.488-.51 1.53.034 2.505.544 1.009 1.496 1.595 2.21 1.432.51-.488.51-1.53-.034-2.505-.544-1.01-1.496-1.627-2.21-1.432z" fill="#8C8C8C"/><ellipse fill="#ACACAC" transform="rotate(-27.808 352 311.5)" cx="352" cy="311.5" rx="1" ry="1.5"/><ellipse fill="#C7C7C7" transform="rotate(-27.808 352 311.5)" cx="352" cy="311.5" rx="1" ry="1.5"/><path fill="#F89C19" d="M365 313.18l10.011 7.82L389 313.016 379.287 305zM375 324l14-7.82V314l-14 7.788z"/><path d="M362.035 303.082L349.647 296 346 302.266v4.536l3.253 1.86c2.727-3.002 5.586 3.198 5.586 3.198l13.57 7.767c2.662-3.068 5.75 3.296 5.75 3.296L376 324v-2.252l-9.923-7.767-4.042-10.9z" fill="#FFBB4E"/><path fill="#F89C19" d="M349 296.467L361.692 304 376 295.499 363.308 288zm3 16.323l13.642 8.21 1.358-.824L353.325 312z"/><path fill="#FFBB4E" d="M352 314.91l14 8.09v-2.91L352 312z"/><path fill="#515151" d="M372 327.094l3 1.906v-3.094L372 324z"/><path fill="#8C8C8C" d="M345.464 305L343 306.416l4.536 2.584 1.464-.814-3.536-2.018z"/><path fill="#515151" d="M343 309.704l4 2.296v-2.704L343 307z"/><path fill="#8C8C8C" d="M389.683 316.252l-14.378 8.259-1.908-1.117-1.397.812 3.169 1.794L392 316.32l-2.317-1.32z"/><path fill="#3B3B3B" d="M375 329l17-9.995V316l-17 9.995z"/><path fill="#515151" d="M380 322l5-2.979V317l-5 3.014z"/><path fill="#FFFFFE" d="M374 321.68v1.71l1.043.61 3.957-2.29V320l-3.957 2.26zm11.033-3.68l3.967-2.236V314l-4 2.236z"/><path fill="#508085" d="M355 301v7.72l9 5.28-3.314-9.668z"/><path fill="#295053" d="M374.784 296.298l3.085 8.517-9.186-5.137-6.683 3.745 3.702 9.577L379 305.577 375.333 296z"/><path fill="#295053" opacity=".5" d="M369 300.572l9 5.428-3.022-9z"/><path d="M361 303.448L365.218 315 380 306.414 375.576 295 361 303.448zm4.733 10.38l-3.704-9.931L368.75 300l6.07-3.517.549-.31 3.67 9.965-13.307 7.69z" fill="#D47A00"/><path fill="#508085" d="M349 304.727l6 3.273v-7.625L352.503 299z"/><path fill="#000" opacity=".3" d="M388.78 316.185L375 324h2.351L391 316.25l-2.22-1.25zm138.236-70.747l-19.131-11.02L497.417 233l-27.269 3.126-1.148 5.252L507.13 263h3.02l2.066-1.16h1.838L528 253.333l-6.235-4.995z"/><path fill="#3B3B3B" d="M497.388 252.145l-1.388.805V256l4-2.346V250h-2.612zm-27-15l-1.388.805V241l4-2.346V235h-2.612z"/><path fill="#3B3B3B" d="M499 252.007l3.946 6.993 4.054-2.175-4.34-6.825z"/><ellipse fill="#515151" transform="rotate(-27.808 500.5 256)" cx="500.5" cy="256" rx="2.5" ry="4"/><path d="M499.854 255.96c-.528-1.155-.528-2.382-.03-2.96-.063.036-.156.036-.218.108-.716.434-.809 1.842-.218 3.177.59 1.3 1.648 2.022 2.363 1.589a1.67 1.67 0 0 0 .249-.217c-.684.18-1.586-.541-2.146-1.696z" fill="#C7C7C7"/><path d="M499.371 253.032c-.484.49-.516 1.529.032 2.507.549 1.009 1.516 1.59 2.226 1.437.484-.49.516-1.529-.032-2.507-.549-1.009-1.484-1.62-2.226-1.437z" fill="#8C8C8C"/><ellipse fill="#ACACAC" transform="rotate(-27.808 501 255.5)" cx="501" cy="255.5" rx="1" ry="1.5"/><ellipse fill="#C7C7C7" transform="rotate(-27.808 501 255.5)" cx="501" cy="255.5" rx="1" ry="1.5"/><path fill="#3B3B3B" d="M472 236.981l3.946 7.019 4.054-2.183-4.34-6.817z"/><ellipse fill="#515151" transform="rotate(-27.808 473.5 241)" cx="473.5" cy="241" rx="2.5" ry="4"/><path d="M472.854 241.96c-.528-1.155-.528-2.382-.03-2.96-.063.036-.156.036-.218.108-.716.434-.809 1.842-.218 3.177.59 1.3 1.648 2.022 2.363 1.589a1.67 1.67 0 0 0 .249-.217c-.684.18-1.586-.505-2.146-1.696z" fill="#C7C7C7"/><path d="M472.371 239.024c-.484.49-.516 1.532.032 2.512.549 1.01 1.516 1.593 2.226 1.44.484-.49.516-1.532-.032-2.512-.549-1.01-1.484-1.593-2.226-1.44z" fill="#8C8C8C"/><ellipse fill="#ACACAC" transform="rotate(-27.808 474 240.5)" cx="474" cy="240.5" rx="1" ry="1.5"/><ellipse fill="#C7C7C7" transform="rotate(-27.808 474 240.5)" cx="474" cy="240.5" rx="1" ry="1.5"/><path fill="#DEDEDE" d="M495 246.698L505.856 255 521 246.5l-10.516-8.5z"/><path fill="#ACACAC" d="M506 258l15-8.567V247l-15 8.567z"/><path fill="#DEDEDE" d="M467 221.568L490.19 235l14.81-8.568L481.81 213zm8 20.245L495.613 254l1.387-.813L476.387 241z"/><path fill="#FFFFFE" d="M475 245.027L496 257v-3.027L475 242z"/><path fill="#515151" d="M503 260.095l3 1.905v-3.095L503 257z"/><path fill="#8C8C8C" d="M467.455 234L465 235.412l4.568 2.588 1.432-.807-3.545-2.05z"/><path fill="#515151" d="M465 239.25l5 2.75v-3.25l-5-2.75z"/><path fill="#8C8C8C" d="M521.527 249.4l-15.072 8.99-1.999-1.224-1.456.875 3.32 1.959L524 249.47l-2.473-1.47z"/><path fill="#3B3B3B" d="M506 261l18-10.015V248l-18 9.982zm5-7l5-3.007V249l-5 3.007z"/><path fill="#FFFFFE" d="M505 254.122v2.123l1.228.755 4.772-2.842V252l-4.772 2.842zM516.031 252l3.969-2.761V247l-4 2.799z"/><path fill="#295053" d="M505.534 228.332l3.264 9-9.687-5.413L492 235.87l3.916 10.13L510 238.13 506.118 228z"/><path fill="#295053" opacity=".5" d="M499 231.587l9 5.413-3.032-9z"/><path d="M491 235.887L495.444 248 511 238.975 506.35 227 491 235.887zm4.991 10.912l-3.897-10.431 7.077-4.084 6.393-3.706.581-.343 3.864 10.466-14.018 8.098z" fill="#ACACAC"/><path fill="#000" opacity=".3" d="M520.604 249.347L506 258h2.494L523 249.414 520.604 248z"/><path d="M490.17 235.121L467 222v13.508l3.46 1.94c2.9-3.167 5.933 3.36 5.933 3.36l20.565 11.635c2.835-3.2 6.098 3.458 6.098 3.458L505 257v-2.327l-10.513-8.112-4.318-11.44zm-13.909-1.163l-6.36-3.62v-5.784l3.328 1.906 3.032 1.713v5.785zm7.25 6.27l-6.393-3.588v-7.95l6.36 3.62v7.917h.034zm.956.58v-7.95l5.274 3.006 3.56 9.986-8.834-5.041z" fill="#FFFFFE"/><path fill="#508085" d="M485 233v8.602l9 5.398-3.613-10.761zm-7 4.28l7 3.72v-8.246L478 229zm-8-9.246v2.138l6 3.828v-6.172L473.14 226z"/><path fill="#295053" opacity=".5" d="M470 228l3-2.017-3-1.983z"/><path fill="#000" opacity=".3" d="M379.016 330.438l-19.131-11.02L349.417 318l-27.269 3.126-1.148 5.252L359.13 348h3.02l2.066-1.192h1.838L380 338.333l-6.202-5.027z"/><path fill="#3B3B3B" d="M349.388 339.133l-1.388.834V343l4-2.333V337h-2.612zm-26.967-16l-1.421.834V327l4-2.333V321h-2.579z"/><path fill="#3B3B3B" d="M350 338.974l3.946 7.026 4.054-2.175-4.305-6.825z"/><ellipse fill="#515151" transform="rotate(-27.808 351.5 342)" cx="351.5" cy="342" rx="2.5" ry="4"/><path d="M350.854 342.96c-.528-1.155-.528-2.382-.03-2.96-.063.036-.156.036-.218.108-.716.434-.809 1.842-.218 3.177.59 1.3 1.648 2.022 2.363 1.589a1.67 1.67 0 0 0 .249-.217c-.715.18-1.617-.505-2.146-1.696z" fill="#C7C7C7"/><path d="M350.371 340.024c-.484.49-.516 1.532.032 2.512.549 1.01 1.516 1.593 2.226 1.44.484-.49.516-1.532-.032-2.512-.549-1.01-1.484-1.593-2.226-1.44z" fill="#8C8C8C"/><ellipse fill="#ACACAC" transform="rotate(-27.808 352 341.5)" cx="352" cy="341.5" rx="1" ry="1.5"/><ellipse fill="#C7C7C7" transform="rotate(-27.808 352 342.5)" cx="352" cy="342.5" rx="1" ry="1.5"/><path fill="#3B3B3B" d="M323 323.007l3.946 6.993 4.054-2.175-4.305-6.825z"/><ellipse fill="#515151" transform="rotate(-27.808 324.5 327)" cx="324.5" cy="327" rx="2.5" ry="4"/><path d="M323.854 326.96c-.528-1.155-.528-2.382-.03-2.96-.063.036-.156.036-.218.108-.716.434-.809 1.842-.218 3.177.59 1.3 1.648 2.022 2.363 1.589a1.67 1.67 0 0 0 .249-.217c-.715.18-1.617-.541-2.146-1.696z" fill="#C7C7C7"/><path d="M323.371 324.032c-.484.49-.516 1.529.032 2.507.549 1.009 1.516 1.59 2.226 1.437.484-.49.516-1.529-.032-2.507-.549-1.009-1.484-1.62-2.226-1.437z" fill="#8C8C8C"/><ellipse fill="#ACACAC" transform="rotate(-27.808 325 326.5)" cx="325" cy="326.5" rx="1" ry="1.5"/><ellipse fill="#C7C7C7" transform="rotate(-27.808 325 326.5)" cx="325" cy="326.5" rx="1" ry="1.5"/><path fill="#DEDEDE" d="M347 332.698L357.856 341 373 332.5l-10.482-8.5z"/><path fill="#ACACAC" d="M356 344l15-8.593V333l-15 8.593z"/><path fill="#DEDEDE" d="M319 308.589L342.19 322l14.81-8.589L333.81 300zm8 19.255L347.613 340l1.387-.844L328.387 327z"/><path fill="#FFFFFE" d="M327 330.993L348 343v-3.027L327 328z"/><path fill="#515151" d="M353 346.061l3 1.939v-3.095L353 343z"/><path fill="#8C8C8C" d="M318.44 320l-2.44 1.378 4.542 2.622 1.458-.84-3.56-2.017z"/><path fill="#515151" d="M316 325.23l5 2.77v-3.23l-5-2.77z"/><path fill="#8C8C8C" d="M371.527 335.364l-15.072 8.992-1.999-1.19-1.456.875 3.32 1.959L374 335.434 371.527 334z"/><path fill="#3B3B3B" d="M356 348l18-9.99V335l-18 9.99zm5-7l5-2.987V336l-5 2.987z"/><path fill="#FFFFFE" d="M355 341.101v2.174l1.22.725 4.78-2.826V339l-4.78 2.862zM367.031 338l3.969-2.799V333l-4 2.761z"/><path fill="#295053" d="M356.534 313.333l3.264 9.016-9.687-5.423-7.111 3.96L346.916 331 361 323.148 357.118 313z"/><path fill="#295053" opacity=".5" d="M350 317.587l9 5.413-3.032-9z"/><path d="M342 320.887L346.444 333 362 323.975 357.35 312 342 320.887zm4.991 10.878l-3.897-10.432 7.077-4.083 6.393-3.706.581-.343 3.864 10.466-14.018 8.098z" fill="#ACACAC"/><path fill="#000" opacity=".3" d="M370.604 335.318L356 344h2.494L373 335.385 370.604 334z"/><path d="M342.17 320.121L319 307v13.508l3.46 1.94c2.9-3.167 5.933 3.36 5.933 3.36l20.565 11.635c2.835-3.2 6.098 3.458 6.098 3.458L357 342v-2.327l-10.513-8.112-4.318-11.44zm-13.909-1.163l-6.36-3.62v-5.784l3.328 1.906 3.032 1.713v5.785zm7.25 6.27l-6.36-3.62v-7.95l6.36 3.619v7.95zm.956.549v-7.95l5.274 3.005 3.56 9.986-8.834-5.041z" fill="#FFFFFE"/><path fill="#508085" d="M336 319v7.975l9 5.025-3.613-10.017zm-7 3.28l6 3.72v-8.246L329 314zm-7-8.246v2.104l6 3.862v-6.172L325.171 312z"/><path fill="#295053" opacity=".5" d="M322 314l3-2-3-2z"/><path fill="#000" opacity=".3" d="M452.96 256.937L430.68 253l-7.68 6.042L456.735 279h2.88l1.788-1.086h4.138l6.157-2.139L486 267.358l-12.282-7.502z"/><path fill="#3B3B3B" d="M444.404 267.13l-1.404.817V271l4-2.343V265h-2.596zm-20-11l-1.404.817V260l4-2.343V254h-2.596z"/><path fill="#3B3B3B" d="M445 266.957l3.467 7.043 3.533-2.206-3.8-6.794z"/><ellipse fill="#515151" transform="rotate(-27.808 446.5 270.5)" cx="446.5" cy="270.5" rx="2.5" ry="3.5"/><path d="M445.86 270.376c-.526-.925-.526-1.913-.032-2.376-.066.03-.165.03-.23.062-.725.34-.79 1.481-.198 2.561.592 1.05 1.646 1.636 2.37 1.266a.436.436 0 0 0 .23-.186c-.691.186-1.58-.4-2.14-1.327z" fill="#C7C7C7"/><path d="M445.378 268.036c-.51.488-.51 1.53.034 2.505.544 1.009 1.496 1.595 2.21 1.432.51-.488.51-1.53-.034-2.505-.544-1.01-1.496-1.627-2.21-1.432z" fill="#8C8C8C"/><ellipse fill="#ACACAC" transform="rotate(-27.808 447 270.5)" cx="447" cy="270.5" rx="1" ry="1.5"/><ellipse fill="#C7C7C7" transform="rotate(-27.808 447 270.5)" cx="447" cy="270.5" rx="1" ry="1.5"/><path fill="#3B3B3B" d="M425 255.992l3.467 7.008 3.533-2.17-3.8-6.83z"/><ellipse fill="#515151" transform="rotate(-27.808 427.5 259.5)" cx="427.5" cy="259.5" rx="2.5" ry="3.5"/><path d="M426.86 259.376c-.526-.925-.526-1.913-.032-2.376-.066.03-.165.03-.23.062-.725.34-.79 1.481-.198 2.561.592 1.05 1.646 1.636 2.37 1.266a.436.436 0 0 0 .23-.186c-.691.186-1.613-.37-2.14-1.327z" fill="#C7C7C7"/><path d="M426.378 257.027c-.51.49-.51 1.533.034 2.511.544 1.011 1.496 1.598 2.21 1.435.51-.49.51-1.533-.034-2.511-.578-1.011-1.496-1.598-2.21-1.435z" fill="#8C8C8C"/><ellipse fill="#ACACAC" transform="rotate(-27.808 428 259.5)" cx="428" cy="259.5" rx="1" ry="1.5"/><ellipse fill="#C7C7C7" transform="rotate(-27.808 427 259.5)" cx="427" cy="259.5" rx="1" ry="1.5"/><path fill="#E52E0A" d="M423 253.676l9.02 3.324 13.98-8.466-8.72-3.534z"/><path fill="#B1300E" d="M454 273l14-8.15V260l-14 8.184z"/><path d="M437.526 250l-5.58 5.874-8.946-3.152v2.323l1.618.929c2.74-3.053 5.612 3.253 5.612 3.253l13.569 7.865c2.674-3.12 5.744 3.32 5.744 3.32L454 273v-4.78l-4.028-11.051L437.526 250z" fill="#FF5050"/><path fill="#E52E0A" d="M438 250.862L450.815 258 465 250.138 452.151 243zm-9 8.934L442.67 268l1.33-.796L430.33 259z"/><path fill="#FF5050" d="M429 262.929L443 271v-2.929L429 260z"/><path fill="#515151" d="M449 273.772l6 3.228v-2.804L449 271z"/><path fill="#8C8C8C" d="M423.325 254L421 255.429l2.632 1.571 1.368-.821-1.675-1z"/><path fill="#515151" d="M421 257.615l3 1.385v-2.646L421 255z"/><path fill="#8C8C8C" d="M468.71 265.26l-13.903 8.242-4.48-2.657-1.327.818 5.641 3.337L471 265.328 468.71 264z"/><path fill="#3B3B3B" d="M454 277l17-9.243V265l-17 9.21z"/><path fill="#DEDEDE" d="M463.483 265.714L459 268.393V269l5-3v-2l-.517.321z"/><path fill="#FFFFFE" d="M459 268l4-2.632V264l-4 2.632z"/><path fill="#FF3903" d="M455 271l4-2.222V267l-4 2.19zm8-5l4-2.208V262l-4 2.208z"/><path fill="#508085" d="M444 254v8.14l6 3.86-3.361-10.28z"/><path fill="#295053" d="M461.759 251.464l1.138 5.123-5.207-2.894-6.69 3.76 3.69 9.547 13.31-7.419-3.655-9.581z"/><path fill="#508085" opacity=".5" d="M458 254.175l5 2.825-1.093-5z"/><path d="M450 256.92l4.052 11.08L468 259.947 463.75 249 450 256.92zm4.583 9.949l-3.587-9.55 6.144-3.56 5.878-3.395.532-.3 3.553 9.55-12.52 7.255z" fill="#B1300E"/><path fill="#508085" d="M433 256.223L443 262v-8.025L437.879 251z"/><path fill="#000" opacity=".3" d="M467.738 265.194L454 273h2.328L470 265.258 467.738 264zm-36.778 9.777L408.68 271l-7.68 6.042L434.735 297h2.88l1.788-1.086h4.138l6.157-2.139L464 285.358l-12.282-7.502z"/><path fill="#3B3B3B" d="M422.404 285.13l-1.404.817V289l4-2.343V283h-2.596zm-19-12l-1.404.817V277l4-2.343V271h-2.596z"/><path fill="#3B3B3B" d="M423 284.992l3.45 7.008 3.55-2.17-3.782-6.83z"/><ellipse fill="#515151" transform="rotate(-27.808 424.5 287.5)" cx="424.5" cy="287.5" rx="2.5" ry="3.5"/><path d="M423.86 288.376c-.526-.925-.526-1.913-.032-2.376-.066.03-.165.03-.23.062-.725.34-.79 1.481-.198 2.561.592 1.05 1.646 1.636 2.37 1.266a.436.436 0 0 0 .23-.186c-.691.186-1.58-.37-2.14-1.327z" fill="#C7C7C7"/><path d="M423.378 286.027c-.51.49-.51 1.533.034 2.511.544 1.011 1.496 1.598 2.21 1.435.51-.49.51-1.533-.034-2.511-.544-1.011-1.496-1.598-2.21-1.435z" fill="#8C8C8C"/><ellipse fill="#ACACAC" transform="rotate(-27.808 425 287.5)" cx="425" cy="287.5" rx="1" ry="1.5"/><ellipse fill="#C7C7C7" transform="rotate(-27.808 425 287.5)" cx="425" cy="287.5" rx="1" ry="1.5"/><path fill="#3B3B3B" d="M404 273.957l3.467 7.043 3.533-2.206-3.8-6.794z"/><ellipse fill="#515151" transform="rotate(-27.808 406.5 276.5)" cx="406.5" cy="276.5" rx="2.5" ry="3.5"/><path d="M404.86 277.375c-.526-.926-.526-1.912-.032-2.375-.066.03-.165.03-.23.062-.725.339-.79 1.48-.198 2.56.592 1.079 1.646 1.634 2.37 1.264a.436.436 0 0 0 .23-.185c-.691.185-1.613-.401-2.14-1.326z" fill="#C7C7C7"/><path d="M405.378 275.036c-.51.488-.51 1.53.034 2.505.544 1.009 1.496 1.595 2.21 1.432.51-.488.51-1.53-.034-2.505-.578-1.01-1.496-1.627-2.21-1.432z" fill="#8C8C8C"/><ellipse fill="#ACACAC" transform="rotate(-27.808 407 276.5)" cx="407" cy="276.5" rx="1" ry="1.5"/><ellipse fill="#C7C7C7" transform="rotate(-27.808 406 276.5)" cx="406" cy="276.5" rx="1" ry="1.5"/><path fill="#DEDEDE" d="M402 270.676l9.02 3.324 13.98-8.466-8.72-3.534z"/><path fill="#ACACAC" d="M432 291l14-8.15V278l-14 8.184z"/><path d="M416.526 267l-5.58 5.874-8.946-3.152v2.323l1.618.929c2.74-3.053 5.612 3.253 5.612 3.253l13.569 7.865c2.674-3.12 5.744 3.32 5.744 3.32L433 290v-4.78l-4.028-11.051L416.526 267z" fill="#FFFFFE"/><path fill="#DEDEDE" d="M416 266.846L428.833 274 443 266.12 430.167 259zm-9 10.95L420.67 286l1.33-.796L408.33 277z"/><path fill="#FFFFFE" d="M407 280.929L421 289v-2.929L407 278z"/><path fill="#515151" d="M426 291.772l6 3.228v-2.804L426 289z"/><path fill="#8C8C8C" d="M401.325 271L399 272.429l2.632 1.571 1.368-.821-1.675-1z"/><path fill="#515151" d="M399 275.615l3 1.385v-2.646L399 273z"/><path fill="#8C8C8C" d="M445.71 282.26l-13.903 8.242-4.48-2.623-1.327.784 5.641 3.337L448 282.328 445.71 281z"/><path fill="#3B3B3B" d="M432 295l17-9.21V283l-17 9.21z"/><path fill="#DEDEDE" d="M441.483 282.714L437 285.393V286l5-2.964V281l-.517.321z"/><path fill="#FFFFFE" d="M437 286l4-2.632V282l-4 2.632z"/><path fill="#FF3903" d="M433 288l4-2.222V284l-4 2.222zm9-5l4-2.222V279l-4 2.19z"/><path fill="#508085" d="M422 272v8.175l6 3.825-3.361-10.28z"/><path fill="#295053" d="M439.759 269.464l1.138 5.123-5.207-2.861-6.69 3.726 3.69 9.548 13.31-7.419-3.655-9.581z"/><path fill="#508085" opacity=".5" d="M435 271.208l5 2.792-1.093-5z"/><path d="M428 274.92l4.052 11.08L446 277.947 441.75 267 428 274.92zm4.583 9.949l-3.587-9.55 6.144-3.56 5.878-3.395.532-.3 3.553 9.55-12.52 7.255z" fill="#ACACAC"/><path fill="#508085" d="M411 273.223L421 279v-8.025L415.844 268z"/><path fill="#000" opacity=".3" d="M445.738 282.194L432 290h2.328L448 282.258 445.738 281z"/><path fill="#3B3B3B" d="M531.391 306.118l-1.391.847V310l4-2.365V304h-2.609zm-19-9.965l-1.391.812V300l4-2.33V294h-2.609z"/><path fill="#3B3B3B" d="M532 305.976l3.45 7.024 3.55-2.188-3.782-6.812z"/><ellipse fill="#515151" transform="rotate(-27.808 533.5 309)" cx="533.5" cy="309" rx="2.5" ry="4"/><path d="M532.86 309.367c-.526-.922-.526-1.906-.032-2.367-.066.03-.165.03-.23.061-.725.339-.79 1.507-.198 2.552.592 1.045 1.646 1.63 2.37 1.291a.436.436 0 0 0 .23-.184c-.691.184-1.613-.4-2.14-1.353z" fill="#C7C7C7"/><path d="M532.378 307.027c-.51.49-.51 1.533.034 2.511.544 1.011 1.496 1.598 2.21 1.435.51-.49.51-1.533-.034-2.511-.544-1.011-1.496-1.598-2.21-1.435z" fill="#8C8C8C"/><ellipse fill="#ACACAC" transform="rotate(-27.808 534 308.5)" cx="534" cy="308.5" rx="1" ry="1.5"/><ellipse fill="#C7C7C7" transform="rotate(-27.808 534 308.5)" cx="534" cy="308.5" rx="1" ry="1.5"/><path fill="#3B3B3B" d="M513 295.976l3.467 7.024 3.533-2.188-3.764-6.812z"/><ellipse fill="#515151" transform="rotate(-27.808 515.5 299)" cx="515.5" cy="299" rx="2.5" ry="4"/><path d="M513.86 299.367c-.526-.922-.526-1.906-.032-2.367-.066.03-.165.03-.23.061-.725.339-.79 1.507-.198 2.552.592 1.045 1.646 1.63 2.37 1.291a.436.436 0 0 0 .23-.184c-.658.153-1.58-.4-2.14-1.353z" fill="#C7C7C7"/><path d="M514.378 297.036c-.51.488-.51 1.53.034 2.505.544 1.009 1.496 1.595 2.21 1.432.51-.488.51-1.53-.034-2.505-.544-1.01-1.462-1.627-2.21-1.432z" fill="#8C8C8C"/><ellipse fill="#ACACAC" transform="rotate(-27.808 515 298.5)" cx="515" cy="298.5" rx="1" ry="1.5"/><ellipse fill="#C7C7C7" transform="rotate(-27.808 515 298.5)" cx="515" cy="298.5" rx="1" ry="1.5"/><path fill="#F89C19" d="M529 301.18l10.011 7.82L553 301.016 543.32 293z"/><path fill="#F89C19" d="M539 311l14-7.82V301l-14 7.788z"/><path d="M525.035 290.082L512.647 283 509 289.266v4.536l3.253 1.86c2.727-3.002 5.586 3.198 5.586 3.198l13.57 7.767c2.662-3.068 5.75 3.296 5.75 3.296L539 311v-2.252l-9.923-7.767-4.042-10.9z" fill="#FFBB4E"/><path fill="#F89C19" d="M513 282.467L525.692 290 540 281.499 527.342 274zm3 17.323l13.675 8.21 1.325-.824L517.358 299z"/><path fill="#FFBB4E" d="M516 302.91l14 8.09v-2.91L516 300z"/><path fill="#515151" d="M536 313.094l3 1.906v-3.094L536 310z"/><path fill="#8C8C8C" d="M509.443 293L507 294.416l4.563 2.584 1.437-.814-3.557-2.018z"/><path fill="#515151" d="M507 296.704l4 2.296v-2.704L507 294z"/><path fill="#8C8C8C" d="M553.65 303.252l-14.38 8.259-1.907-1.117-1.363.812 3.135 1.794L556 303.32l-2.35-1.32z"/><path fill="#3B3B3B" d="M539 316l17-9.995V303l-17 9.995z"/><path fill="#515151" d="M544 308l5-2.979V303l-5 2.979z"/><path fill="#FFFFFE" d="M538 307.68v1.71l1.012.61 3.988-2.29V306l-3.988 2.26zm11-2.68l4-2.236V301l-4 2.236z"/><path fill="#508085" d="M518 287v7.72l9 5.28-3.335-9.668z"/><path fill="#295053" d="M538.759 283.298l3.112 8.517-9.167-5.137-6.704 3.745 3.694 9.577L543 292.577 539.306 283z"/><path fill="#295053" opacity=".5" d="M532 286.572l9 5.428-3.056-9z"/><path d="M525 290.448L529.218 302 544 293.414 539.576 282 525 290.448zm4.733 10.38l-3.704-9.931L532.75 287l6.07-3.517.549-.31 3.67 9.965-13.307 7.69z" fill="#D47A00"/><path fill="#508085" d="M512 290.727l6 3.273v-7.625L515.503 285z"/><path fill="#000" opacity=".3" d="M553.611 303.185L539 311h2.527L556 303.25l-2.389-1.25zm-51.595 40.285l-19.164-11.052L472.417 331l-27.269 3.126-1.148 5.252L482.13 361h3.02l2.066-1.16h1.838L503 351.333l-6.235-4.995z"/><path fill="#3B3B3B" d="M471.41 351.145l-1.41.805V355l4-2.346V349h-2.59zm-26.022-16l-1.388.805V339l4-2.346V333h-2.612z"/><path fill="#3B3B3B" d="M472 351.007l3.946 6.993 4.054-2.175-4.34-6.825z"/><ellipse fill="#515151" transform="rotate(-27.808 473.5 355)" cx="473.5" cy="355" rx="2.5" ry="4"/><path d="M472.854 354.958c-.528-1.154-.528-2.38-.03-2.958-.063.036-.156.036-.218.108-.716.433-.809 1.84-.218 3.175.59 1.335 1.648 2.02 2.363 1.588.094-.072.187-.145.249-.217-.684.18-1.617-.541-2.146-1.696z" fill="#C7C7C7"/><path d="M473.371 352.032c-.484.49-.516 1.529.032 2.507.549 1.009 1.516 1.59 2.226 1.437.484-.49.516-1.529-.032-2.507-.549-1.009-1.516-1.62-2.226-1.437z" fill="#8C8C8C"/><ellipse fill="#ACACAC" transform="rotate(-27.808 474 354.5)" cx="474" cy="354.5" rx="1" ry="1.5"/><ellipse fill="#C7C7C7" transform="rotate(-27.808 474 354.5)" cx="474" cy="354.5" rx="1" ry="1.5"/><path fill="#3B3B3B" d="M446 334.981l3.946 7.019 4.054-2.183-4.34-6.817z"/><ellipse fill="#515151" transform="rotate(-27.808 447.5 339)" cx="447.5" cy="339" rx="2.5" ry="4"/><path d="M446.854 339.958c-.528-1.154-.528-2.38-.03-2.958-.063.036-.156.036-.218.108-.716.433-.809 1.84-.218 3.175.59 1.335 1.648 2.02 2.363 1.588.094-.072.187-.145.249-.217-.684.18-1.617-.505-2.146-1.696z" fill="#C7C7C7"/><path d="M447.371 337.024c-.484.49-.516 1.532.032 2.512.549 1.01 1.516 1.593 2.226 1.44.484-.49.516-1.532-.032-2.512-.549-1.01-1.516-1.593-2.226-1.44z" fill="#8C8C8C"/><ellipse fill="#ACACAC" transform="rotate(-27.808 448 338.5)" cx="448" cy="338.5" rx="1" ry="1.5"/><ellipse fill="#C7C7C7" transform="rotate(-27.808 448 338.5)" cx="448" cy="338.5" rx="1" ry="1.5"/><path fill="#DEDEDE" d="M469 344.698L479.856 353 495 344.5l-10.516-8.5z"/><path fill="#ACACAC" d="M480 356l15-8.567V345l-15 8.567z"/><path fill="#DEDEDE" d="M442 319.568L465.19 333l14.81-8.568L456.81 311zm8 20.245L470.582 352l1.418-.813L451.418 339z"/><path fill="#FFFFFE" d="M450 343.027L471 355v-3.027L450 340z"/><path fill="#515151" d="M476 359.095l3 1.905v-3.095L476 356z"/><path fill="#8C8C8C" d="M441.475 332L439 333.412l4.576 2.588 1.424-.807-3.525-2.05z"/><path fill="#515151" d="M439 337.25l5 2.75v-3.25l-5-2.75z"/><path fill="#8C8C8C" d="M494.557 347.4l-15.097 8.99-2.001-1.224-1.459.875 3.29 1.959L497 347.47l-2.443-1.47z"/><path fill="#3B3B3B" d="M479 360l18-9.982V347l-18 9.982zm6-7l5-3.007V348l-5 3.007z"/><path fill="#FFFFFE" d="M478 353.122v2.123l1.256.755 4.744-2.842V351l-4.744 2.842zM490 350l4-2.761V345l-4 2.799z"/><path fill="#295053" d="M479.534 326.332l3.264 9-9.722-5.413L466 333.87l3.916 10.13L484 336.13 480.084 326z"/><path fill="#295053" opacity=".5" d="M472 329.587L482 335l-3.357-9z"/><path d="M464 332.887L468.444 345 484 335.975 479.35 324 464 332.887zm4.991 10.912l-3.897-10.431 7.077-4.084 6.393-3.706.581-.343 3.864 10.466-14.018 8.098z" fill="#ACACAC"/><path fill="#000" opacity=".3" d="M494.632 347.347L480 356h2.499L497 347.414 494.632 346z"/><path d="M465.17 332.121L442 319v13.508l3.46 1.94c2.9-3.167 5.933 3.36 5.933 3.36l20.565 11.635c2.835-3.2 6.098 3.458 6.098 3.458L480 354v-2.327l-10.513-8.112-4.318-11.44zm-13.909-1.163l-6.36-3.62v-5.784l3.328 1.906 3.032 1.713v5.785zm7.218 6.301l-6.361-3.62v-7.95l6.36 3.62v7.95zm.988.55v-7.95l5.274 3.005 3.56 9.986-8.834-5.041z" fill="#FFFFFE"/><path fill="#508085" d="M460 331v8.602l9 5.398-3.647-10.761zm-8 3.246l6 3.754v-8.28l-6-3.72zm-7-8.212v2.138l6 3.828v-6.172L448.14 324z"/><path fill="#295053" opacity=".5" d="M445 326l3-2.017-3-1.983z"/><path fill="#000" opacity=".3" d="M443.96 351.971L421.68 348l-7.68 6.042L447.768 374h2.847l1.788-1.086h4.138l6.19-2.139L477 362.358l-12.25-7.502z"/><path fill="#3B3B3B" d="M436.404 361.13l-1.404.817V365l4-2.343V359h-2.596zm-20-11l-1.404.817V354l4-2.343V348h-2.596z"/><path fill="#3B3B3B" d="M437 360.992l3.467 7.008 3.533-2.17-3.8-6.83z"/><ellipse fill="#515151" transform="rotate(-27.808 438.5 363.5)" cx="438.5" cy="363.5" rx="2.5" ry="3.5"/><path d="M437.86 364.376c-.526-.925-.526-1.913-.032-2.376-.066.03-.165.03-.23.062-.725.34-.79 1.481-.198 2.561.592 1.05 1.646 1.636 2.37 1.266a.436.436 0 0 0 .23-.186c-.691.186-1.613-.37-2.14-1.327z" fill="#C7C7C7"/><path d="M437.378 362.027c-.51.49-.51 1.533.034 2.511.544 1.011 1.496 1.598 2.21 1.435.51-.49.51-1.533-.034-2.511-.578-1.011-1.496-1.598-2.21-1.435z" fill="#8C8C8C"/><ellipse fill="#ACACAC" transform="rotate(-27.808 439 363.5)" cx="439" cy="363.5" rx="1" ry="1.5"/><ellipse fill="#C7C7C7" transform="rotate(-27.808 439 363.5)" cx="439" cy="363.5" rx="1" ry="1.5"/><path fill="#3B3B3B" d="M417 350.957l3.467 7.043 3.533-2.206-3.767-6.794z"/><ellipse fill="#515151" transform="rotate(-27.808 419.5 353.5)" cx="419.5" cy="353.5" rx="2.5" ry="3.5"/><path d="M417.86 354.376c-.526-.925-.526-1.913-.032-2.376-.066.03-.165.03-.23.062-.725.34-.79 1.481-.198 2.561.592 1.05 1.646 1.636 2.37 1.266a.436.436 0 0 0 .23-.186c-.691.186-1.613-.37-2.14-1.327z" fill="#C7C7C7"/><path d="M418.378 352.027c-.51.49-.51 1.533.034 2.511.544 1.011 1.496 1.598 2.21 1.435.51-.49.51-1.533-.034-2.511-.544-1.011-1.496-1.598-2.21-1.435z" fill="#8C8C8C"/><ellipse fill="#ACACAC" transform="rotate(-27.808 420 353.5)" cx="420" cy="353.5" rx="1" ry="1.5"/><ellipse fill="#C7C7C7" transform="rotate(-27.808 419 353.5)" cx="419" cy="353.5" rx="1" ry="1.5"/><path fill="#DEDEDE" d="M415 347.676l9.02 3.324 13.98-8.466-8.72-3.534z"/><path fill="#ACACAC" d="M446 368l14-8.15V355l-14 8.184z"/><path d="M429.526 344l-5.58 5.874-8.946-3.152v2.323l1.618.929c2.74-3.053 5.612 3.253 5.612 3.253l13.569 7.865c2.674-3.12 5.744 3.32 5.744 3.32L446 367v-4.78l-4.028-11.051L429.526 344z" fill="#FFFFFE"/><path fill="#DEDEDE" d="M430 343.862L442.849 351 457 343.138 444.151 336zm-9 10.934L434.67 363l1.33-.796L422.364 354z"/><path fill="#FFFFFE" d="M421 357.929L435 366v-2.929L421 355z"/><path fill="#515151" d="M440 367.772l6 3.228v-2.804L440 365z"/><path fill="#8C8C8C" d="M415.325 348L413 349.429l2.632 1.571 1.368-.821-1.675-1z"/><path fill="#515151" d="M413 352.615l3 1.385v-2.646L413 350z"/><path fill="#8C8C8C" d="M459.744 359.26l-13.937 8.242-4.48-2.657-1.327.818 5.674 3.337L462 359.328 459.744 358z"/><path fill="#3B3B3B" d="M446 371l17-9.243V359l-17 9.21z"/><path fill="#DEDEDE" d="M455.483 360.714L451 363.393V364l5-3v-2l-.517.321z"/><path fill="#FFFFFE" d="M451 363l4-2.632V359l-4 2.632z"/><path fill="#FF3903" d="M447 364l4-2.222V360l-4 2.19zm9-4l4-2.208V356l-4 2.208z"/><path fill="#508085" d="M436 349v8.14l6 3.86-3.375-10.28z"/><path fill="#295053" d="M453.737 346.464l1.135 5.123-5.161-2.894-6.711 3.76 3.682 9.547L460 354.581 456.318 345z"/><path fill="#508085" opacity=".5" d="M449 348.175l5 2.825-1.1-5z"/><path d="M442 351.92l4.052 11.08L460 354.947 455.75 344 442 351.92zm4.55 9.949l-3.587-9.55 6.144-3.56 5.878-3.395.532-.3 3.553 9.55-12.52 7.255z" fill="#ACACAC"/><path fill="#508085" d="M425 350.223L435 356v-8.025L429.879 345z"/><path fill="#000" opacity=".3" d="M459.77 359.194L446 367h2.36l13.64-7.742-2.23-1.258zm75.313-44.438l-12.287-7.386L512.9 306l-25.786 3.041-1.114 5.18L516.242 332h2.851l1.966-1.136h1.737L536 322.509l-5.898-4.913z"/><path fill="#3B3B3B" d="M506.426 322.153l-1.426.812V326l4-2.33V320h-2.574zm-19-11.035l-1.426.847V315l4-2.365V309h-2.574z"/><path fill="#3B3B3B" d="M507 321.976l3.467 7.024 3.533-2.188-3.797-6.812z"/><ellipse fill="#515151" transform="rotate(-27.808 509.5 326)" cx="509.5" cy="326" rx="2.5" ry="4"/><path d="M507.86 325.367c-.526-.922-.526-1.906-.032-2.367-.066.03-.165.03-.23.061-.725.339-.79 1.507-.198 2.552.592 1.045 1.646 1.63 2.37 1.291a.436.436 0 0 0 .23-.184c-.658.153-1.58-.4-2.14-1.353z" fill="#C7C7C7"/><path d="M508.378 323.026c-.51.49-.51 1.533.034 2.512.544 1.01 1.496 1.598 2.21 1.435.51-.49.51-1.533-.034-2.512-.544-.978-1.462-1.598-2.21-1.435z" fill="#8C8C8C"/><ellipse fill="#ACACAC" transform="rotate(-27.808 509 325.5)" cx="509" cy="325.5" rx="1" ry="1.5"/><ellipse fill="#C7C7C7" transform="rotate(-27.808 509 325.5)" cx="509" cy="325.5" rx="1" ry="1.5"/><path fill="#3B3B3B" d="M488 310.984l3.483 7.016 3.517-2.161-3.782-6.839z"/><ellipse fill="#515151" transform="rotate(-27.808 489.5 314)" cx="489.5" cy="314" rx="2.5" ry="4"/><path d="M488.86 314.367c-.526-.922-.526-1.906-.032-2.367-.066.03-.165.03-.23.061-.725.339-.79 1.507-.198 2.552.592 1.045 1.646 1.63 2.37 1.291a.436.436 0 0 0 .23-.184c-.691.153-1.613-.4-2.14-1.353z" fill="#C7C7C7"/><path d="M488.378 312.027c-.51.49-.51 1.533.034 2.511.544 1.011 1.496 1.598 2.21 1.435.51-.49.51-1.533-.034-2.511-.544-1.011-1.496-1.598-2.21-1.435z" fill="#8C8C8C"/><ellipse fill="#ACACAC" transform="rotate(-27.808 490 313.5)" cx="490" cy="313.5" rx="1" ry="1.5"/><ellipse fill="#C7C7C7" transform="rotate(-27.808 490 313.5)" cx="490" cy="313.5" rx="1" ry="1.5"/><path fill="#EFF653" d="M504 316.18l10.011 7.82L528 315.984 518.287 308z"/><path fill="#9F9522" d="M514 326l14-7.788V316l-14 7.82z"/><path d="M500.035 306.082L487.647 299 484 305.266v4.536l3.253 1.86c2.727-3.002 5.586 3.198 5.586 3.198l13.57 7.767c2.662-3.068 5.75 3.296 5.75 3.296L514 327v-2.252l-9.923-7.767-4.042-10.9z" fill="#FFE600"/><path fill="#EFF653" d="M487 299.501L499.692 307 514 298.533 501.308 291zm4 15.292L504.642 323l1.358-.793L492.325 314z"/><path fill="#FFE600" d="M491 317.92l14 8.08v-2.92L491 315z"/><path fill="#515151" d="M511 329.071l3 1.929v-3.071L511 326z"/><path fill="#8C8C8C" d="M483.464 308L481 309.38l4.536 2.62 1.464-.85-3.536-2.017z"/><path fill="#515151" d="M481 311.688l4 2.312v-2.688L481 309z"/><path fill="#8C8C8C" d="M528.683 318.282l-14.378 8.2-1.908-1.08-1.397.776 3.169 1.822L531 318.35l-2.317-1.35z"/><path fill="#3B3B3B" d="M514 332l17-9.995V319l-17 9.995zm4-8l5-3.014V319l-5 2.979z"/><path fill="#FFFFFE" d="M513 323.692v1.723l1.043.585 3.957-2.277V322l-3.957 2.277zM523.033 321l3.967-2.222V317l-4 2.222z"/><path fill="#508085" d="M494 303v7.688l9 5.312-3.314-9.668z"/><path fill="#295053" d="M513.784 299.298l3.085 8.55-9.186-5.136-6.683 3.744 3.702 9.544L518 308.577 514.333 299z"/><path fill="#295053" opacity=".5" d="M508 302.593l9 5.407-3.022-9z"/><path d="M500 306.448L504.218 318 519 309.414 514.576 298 500 306.448zm4.733 10.38l-3.704-9.931L507.75 303l6.07-3.517.549-.31 3.67 9.965-13.307 7.69z" fill="#9F9522"/><path fill="#508085" d="M487 307.727l6 3.273v-7.658L490.503 302z"/><path fill="#000" opacity=".3" d="M527.78 318.217L514 326h2.351L530 318.281 527.78 317zm-109.82 46.72L395.68 361l-7.68 6.042L421.735 387h2.88l1.788-1.12h4.138l6.157-2.105L451 375.358l-12.282-7.502z"/><path fill="#3B3B3B" d="M408.404 375.13l-1.404.817V379l4-2.379V373h-2.596zm-19-11l-1.404.817V368l4-2.343V362h-2.596z"/><path fill="#3B3B3B" d="M409 374.957l3.467 7.043 3.533-2.206-3.8-6.794z"/><ellipse fill="#515151" transform="rotate(-27.808 410.5 378.5)" cx="410.5" cy="378.5" rx="2.5" ry="3.5"/><path d="M409.86 378.376c-.526-.925-.526-1.913-.032-2.376-.066.03-.165.03-.23.062-.725.34-.79 1.481-.198 2.561.592 1.05 1.646 1.636 2.37 1.266a.436.436 0 0 0 .23-.186c-.691.186-1.613-.37-2.14-1.327z" fill="#C7C7C7"/><path d="M409.378 376.027c-.51.49-.51 1.533.034 2.511.544 1.011 1.496 1.598 2.21 1.435.51-.49.51-1.533-.034-2.511-.544-1.011-1.462-1.598-2.21-1.435z" fill="#8C8C8C"/><ellipse fill="#ACACAC" transform="rotate(-27.808 411 378.5)" cx="411" cy="378.5" rx="1" ry="1.5"/><ellipse fill="#C7C7C7" transform="rotate(-27.808 411 378.5)" cx="411" cy="378.5" rx="1" ry="1.5"/><path fill="#3B3B3B" d="M390 363.992l3.467 7.008 3.533-2.17-3.8-6.83z"/><ellipse fill="#515151" transform="rotate(-27.808 392.5 367.5)" cx="392.5" cy="367.5" rx="2.5" ry="3.5"/><path d="M391.86 367.376c-.526-.925-.526-1.913-.032-2.376-.066.03-.165.03-.23.062-.725.34-.79 1.481-.198 2.561.592 1.05 1.646 1.636 2.37 1.266a.436.436 0 0 0 .23-.186c-.691.186-1.613-.37-2.14-1.327z" fill="#C7C7C7"/><path d="M391.378 365.027c-.51.49-.51 1.533.034 2.511.544 1.011 1.496 1.598 2.21 1.435.51-.49.51-1.533-.034-2.511-.578-1.011-1.496-1.598-2.21-1.435z" fill="#8C8C8C"/><ellipse fill="#ACACAC" transform="rotate(-27.808 393 367.5)" cx="393" cy="367.5" rx="1" ry="1.5"/><ellipse fill="#C7C7C7" transform="rotate(-27.808 392 367.5)" cx="392" cy="367.5" rx="1" ry="1.5"/><path fill="#E52E0A" d="M388 361.676l9.02 3.324 13.98-8.466-8.72-3.534z"/><path fill="#B1300E" d="M418 381l14-8.15V368l-14 8.15z"/><path d="M402.526 359l-5.58 5.874-8.946-3.152v2.323l1.618.929c2.74-3.053 5.612 3.253 5.612 3.253l13.569 7.865c2.674-3.12 5.744 3.32 5.744 3.32L419 382v-4.78l-4.028-11.051L402.526 359z" fill="#FF5050"/><path fill="#E52E0A" d="M403 358.88l12.815 7.12L430 358.154 417.151 351zm-9 8.916L407.67 376l1.33-.796L395.364 367z"/><path fill="#FF5050" d="M394 370.895L408 379v-2.929L394 368z"/><path fill="#515151" d="M413 381.804l6 3.196v-2.772L413 379z"/><path fill="#8C8C8C" d="M388.325 362L386 363.429l2.632 1.571 1.368-.821-1.675-1z"/><path fill="#515151" d="M386 365.615l3 1.385v-2.646L386 363z"/><path fill="#8C8C8C" d="M432.71 373.29l-13.903 8.216-4.48-2.648-1.327.78 5.641 3.362L435 373.358 432.71 372z"/><path fill="#3B3B3B" d="M418 385l17-9.236V373l-17 9.236z"/><path fill="#DEDEDE" d="M427.483 373.679L423 376.357V377l5-3v-2l-.517.321z"/><path fill="#FFFFFE" d="M423 376l4-2.655V372l-4 2.655z"/><path fill="#FF3903" d="M419 379l4-2.208V375l-4 2.208zm9-5l4-2.208V370l-4 2.208z"/><path fill="#508085" d="M408 362v8.14l6 3.86-3.375-10.28z"/><path fill="#295053" d="M425.737 360.464l1.135 5.123-5.196-2.894-6.676 3.76 3.682 9.547L432 368.581 428.318 359z"/><path fill="#508085" opacity=".5" d="M422 362.175l5 2.825-1.093-5z"/><path d="M414 365.92l4.052 11.08L432 368.947 427.75 358 414 365.92zm4.583 9.982l-3.587-9.55 6.144-3.56 5.878-3.394.532-.3 3.553 9.55-12.52 7.254z" fill="#B1300E"/><path fill="#508085" d="M398 364.223L408 370v-8.06l-5.121-2.94z"/><path fill="#000" opacity=".3" d="M431.738 373.221L418 381h2.36l13.64-7.714-2.262-1.286zM715.181 232L671.6 252.71l-1.599.921L686.427 263h2.599l1.499-.855h3.299l17.06-2.17 6.563-3.747 8.597.099L751 242.092 733.274 232z"/><path fill="#515151" d="M709 243.455l3 1.545v-1.515L709 242z"/><path fill="#8C8C8C" d="M712 245l8-4.421V239l-8 4.421zm-3-3.523l2.85 1.523 8.15-4.352-3.085-1.648z"/><path fill="#3B3B3B" d="M703 245.873l5.065 3.127 2.935-6.012-4.774-2.988z"/><ellipse fill="#515151" transform="rotate(-62.192 710.5 246)" cx="710.5" cy="246" rx="3.5" ry="2"/><path d="M711.417 244.07c-.075-.035-.15-.07-.226-.07.49.452.49 1.426-.038 2.366-.529.939-1.473 1.496-2.153 1.357a.95.95 0 0 0 .227.173c.717.348 1.775-.208 2.38-1.252.604-1.078.49-2.227-.19-2.574z" fill="#C7C7C7"/><path d="M708.413 245.464c-.544.96-.544 1.995-.04 2.512.7.148 1.67-.406 2.214-1.44.544-.96.544-1.995.04-2.512-.739-.148-1.67.406-2.214 1.44z" fill="#8C8C8C"/><ellipse fill="#ACACAC" transform="rotate(-62.192 709.5 246)" cx="709.5" cy="246" rx="1.5" ry="1"/><ellipse fill="#C7C7C7" transform="rotate(-62.192 709.5 246)" cx="709.5" cy="246" rx="1.5" ry="1"/><path fill="#8C8C8C" d="M691 257l16-9.331V246l-16 9.297z"/><path fill="#8C8C8C" d="M687 252.968l3.795 2.032L707 246.194 703 244z"/><path fill="#515151" d="M689.953 251.127L688 251v3.386l3 1.614v-1.582l-1.047-.538z"/><path fill="#FF5050" d="M679 240.005L697 250v-18.005L679 222z"/><path fill="#B1300E" d="M697 250l25-13.961V218l-25 13.961z"/><path fill="#E52E0A" d="M679 222.558L696.552 233 721 218.442 703.448 208z"/><path fill="#3B3B3B" d="M683 257.297l3.033 1.703 2.967-5.455-2.74-1.545z"/><ellipse fill="#515151" transform="rotate(-62.192 688.5 257)" cx="688.5" cy="257" rx="3.5" ry="2"/><path d="M689.395 255.07a.56.56 0 0 0-.225-.07c.487.452.487 1.426-.037 2.366-.524.939-1.46 1.496-2.133 1.357.075.07.15.139.225.173.71.348 1.758-.208 2.357-1.252.636-1.113.524-2.227-.187-2.574z" fill="#C7C7C7"/><path d="M686.413 256.464c-.544.96-.544 1.995-.04 2.512.7.148 1.67-.406 2.214-1.44.544-.961.544-1.996.04-2.513-.739-.148-1.67.443-2.214 1.44z" fill="#8C8C8C"/><ellipse fill="#ACACAC" transform="rotate(-62.192 687.5 257)" cx="687.5" cy="257" rx="1.5" ry="1"/><ellipse fill="#C7C7C7" transform="rotate(-62.192 687.5 257)" cx="687.5" cy="257" rx="1.5" ry="1"/><path d="M684 255.158V259l1.611-.861c1.787-4.273 4.975-4.107 5.255-2.981l4.134-2.253V238l-7.111 3.875L684 255.158z" fill="#C7C7C7"/><path fill="#DEDEDE" d="M670 250.021L685 259v-4.021L670 246zm3-17.008L688.226 242l6.774-4.013L679.808 229z"/><path fill="#DEDEDE" d="M684.692 258.066l-14.986-8.96V248L668 249.038 684.692 259l2.308-1.384-.77-.45z"/><path fill="#ACACAC" d="M668 250.682L685 260v-1.682L668 249z"/><path fill="#3B3B3B" d="M673 251.519l8 4.481v-2.519L673 249z"/><path fill="#FFFFFE" d="M680 255.484l3 1.516v-2.452L680 253zm-10-5.133l3 1.649v-2.351L670 248z"/><path fill="#8C8C8C" d="M684 260l2-1.304V257l-2 1.304z"/><path fill="#295053" d="M685 254l7-4.334V240l-4.155 2.58z"/><path fill="#508085" d="M678.214 240.422l-7.339 4.17 2.76-10.162-.774-.43L670 245.089 683.97 253l3.03-10.99-8.786-4.965z"/><path fill="#508085" opacity=".5" d="M671 245l7-4.104v-3.323L673.633 235z"/><path d="M670 246.406L685.227 255 689 241.694 673.569 233 670 246.406zm4.487-11.481l4.656 2.621 8.871 5.01-3.059 11.017-14.105-7.964 2.889-11.116.748.432z" fill="#FFFFFE"/><path fill="#000" opacity=".3" d="M684 258h1.391l.609-.5-.667-.5zm12.611-7.217v-11.289L693.946 238v14.178L690 254.436l1.012.564L707 245.936l-.91-.532zM711 242.545l.84.455 8.16-4.545-.84-.455zm-539.984 41.893l-19.131-11.02L141.417 272l-27.269 3.126-1.148 5.252L151.13 302h3.02l2.066-1.16h1.838L172 292.333l-6.202-4.995z"/><path fill="#3B3B3B" d="M140.388 293.145l-1.388.805V297l4-2.346V291h-2.612zm-25.967-16l-1.421.805V281l4-2.346V275h-2.579z"/><path fill="#3B3B3B" d="M141 292.974l3.946 7.026 4.054-2.175-4.305-6.825z"/><ellipse fill="#515151" transform="rotate(-27.808 143.5 296)" cx="143.5" cy="296" rx="2.5" ry="4"/><path d="M141.854 296.96c-.528-1.155-.528-2.382-.03-2.96-.063.036-.156.036-.218.108-.716.434-.809 1.842-.218 3.177.59 1.3 1.648 2.022 2.363 1.589a1.67 1.67 0 0 0 .249-.217c-.715.18-1.617-.505-2.146-1.696z" fill="#C7C7C7"/><path d="M142.371 294.034c-.484.489-.516 1.528.032 2.505.549 1.009 1.516 1.59 2.226 1.437.484-.49.516-1.528-.032-2.506-.549-1.04-1.484-1.62-2.226-1.436z" fill="#8C8C8C"/><ellipse fill="#ACACAC" transform="rotate(-27.808 143 295.5)" cx="143" cy="295.5" rx="1" ry="1.5"/><ellipse fill="#C7C7C7" transform="rotate(-27.808 143 295.5)" cx="143" cy="295.5" rx="1" ry="1.5"/><path fill="#3B3B3B" d="M115 276.981l3.946 7.019 4.054-2.183-4.305-6.817z"/><ellipse fill="#515151" transform="rotate(-27.808 117.5 281)" cx="117.5" cy="281" rx="2.5" ry="4"/><path d="M115.854 280.96c-.528-1.155-.528-2.382-.03-2.96-.063.036-.156.036-.218.108-.716.434-.809 1.842-.218 3.177.59 1.3 1.648 2.022 2.363 1.589a1.67 1.67 0 0 0 .249-.217c-.715.18-1.617-.505-2.146-1.696z" fill="#C7C7C7"/><path d="M116.371 278.024c-.484.49-.516 1.532.032 2.512.549 1.01 1.516 1.593 2.226 1.44.484-.49.516-1.532-.032-2.512-.549-1.01-1.484-1.593-2.226-1.44z" fill="#8C8C8C"/><ellipse fill="#ACACAC" transform="rotate(-27.808 117 280.5)" cx="117" cy="280.5" rx="1" ry="1.5"/><ellipse fill="#C7C7C7" transform="rotate(-27.808 117 280.5)" cx="117" cy="280.5" rx="1" ry="1.5"/><path fill="#DEDEDE" d="M138 286.698L148.856 295 164 286.5l-10.482-8.5z"/><path fill="#ACACAC" d="M149 297l15-8.56V286l-15 8.593z"/><path fill="#DEDEDE" d="M111 260.568L134.19 274l14.81-8.568L125.81 252zm8 21.276L139.613 294l1.387-.81L120.387 281z"/><path fill="#FFFFFE" d="M119 285.027L140 297v-3.027L119 282z"/><path fill="#515151" d="M145 300.061l3 1.939v-3.095L145 297z"/><path fill="#8C8C8C" d="M110.44 274l-2.44 1.412 4.542 2.588 1.458-.807-3.56-2.05z"/><path fill="#515151" d="M108 278.214l5 2.786v-3.25l-5-2.75z"/><path fill="#8C8C8C" d="M163.527 289.364l-15.072 8.992-1.999-1.19-1.456.875 3.32 1.959L166 289.47l-2.473-1.47z"/><path fill="#3B3B3B" d="M148 302l18-10.015V289l-18 9.982zm6-7l5-2.987V290l-5 2.987z"/><path fill="#FFFFFE" d="M147 295.101v2.174l1.22.725 4.78-2.826V293l-4.78 2.862zM159.031 292l3.969-2.799V287l-4 2.799z"/><path fill="#295053" d="M148.534 267.333l3.264 9.016-9.687-5.423-7.111 3.96L138.916 285 153 277.148 149.118 267z"/><path fill="#295053" opacity=".5" d="M142 271.587l9 5.413-3.032-9z"/><path d="M134 274.887L138.444 287 154 277.975 149.35 266 134 274.887zm4.991 10.878l-3.897-10.432 7.077-4.083 6.393-3.706.581-.343 3.864 10.466-14.018 8.098z" fill="#ACACAC"/><path fill="#000" opacity=".3" d="M163.604 289.318L149 298h2.494L166 289.419 163.604 288z"/><path d="M134.17 274.121L111 261v13.508l3.46 1.94c2.9-3.167 5.933 3.36 5.933 3.36l20.565 11.635c2.835-3.2 6.098 3.458 6.098 3.458L149 296v-2.327l-10.513-8.112-4.318-11.44zm-13.909-1.163l-6.36-3.62v-5.784l3.328 1.906 3.032 1.713v5.785zm7.25 6.27l-6.36-3.62v-7.95l6.36 3.619v7.95zm.956.549v-7.95l5.274 3.005 3.56 9.986-8.834-5.041z" fill="#FFFFFE"/><path fill="#508085" d="M129 272v8.567l9 5.433-3.613-10.761zm-8 4.28l7 3.72v-8.246L121 268zm-7-8.246v2.138l6 3.828v-6.172L117.14 266z"/><path fill="#295053" opacity=".5" d="M114 268l3-2.017-3-1.983z"/><path fill="#000" opacity=".3" d="M239.082 327.778l-12.262-7.41-9.902-1.368-25.836 3.07-1.082 5.14L220.262 345h2.853l1.967-1.168h1.738l13.18-8.344-5.869-4.906z"/><path fill="#3B3B3B" d="M209.391 335.118l-1.391.847V339l4-2.365V333h-2.609zm-18-10.965l-1.391.812V328l4-2.33V322h-2.609z"/><path fill="#3B3B3B" d="M210 334.976l3.45 7.024 3.55-2.188-3.782-6.812z"/><ellipse fill="#515151" transform="rotate(-27.808 212.5 338)" cx="212.5" cy="338" rx="2.5" ry="4"/><path d="M210.86 338.367c-.526-.922-.526-1.906-.032-2.367-.066.03-.165.03-.23.061-.725.339-.79 1.507-.198 2.552.592 1.045 1.646 1.63 2.37 1.291a.436.436 0 0 0 .23-.184c-.691.184-1.613-.4-2.14-1.353z" fill="#C7C7C7"/><path d="M211.378 336.027c-.51.49-.51 1.533.034 2.511.544 1.011 1.496 1.598 2.21 1.435.51-.49.51-1.533-.034-2.511-.544-1.011-1.496-1.598-2.21-1.435z" fill="#8C8C8C"/><ellipse fill="#ACACAC" transform="rotate(-27.808 212 337.5)" cx="212" cy="337.5" rx="1" ry="1.5"/><ellipse fill="#C7C7C7" transform="rotate(-27.808 212 338.5)" cx="212" cy="338.5" rx="1" ry="1.5"/><path fill="#3B3B3B" d="M191 323.976l3.45 7.024 3.55-2.188-3.782-6.812z"/><ellipse fill="#515151" transform="rotate(-27.808 192.5 327)" cx="192.5" cy="327" rx="2.5" ry="4"/><path d="M191.86 327.367c-.526-.922-.526-1.906-.032-2.367-.066.03-.165.03-.23.061-.725.339-.79 1.507-.198 2.552.592 1.045 1.646 1.63 2.37 1.291a.436.436 0 0 0 .23-.184c-.691.153-1.613-.4-2.14-1.353z" fill="#C7C7C7"/><path d="M191.378 325.036c-.51.488-.51 1.53.034 2.505.544 1.009 1.496 1.595 2.21 1.432.51-.488.51-1.53-.034-2.505-.544-1.01-1.496-1.627-2.21-1.432z" fill="#8C8C8C"/><ellipse fill="#ACACAC" transform="rotate(-27.808 193 326.5)" cx="193" cy="326.5" rx="1" ry="1.5"/><ellipse fill="#C7C7C7" transform="rotate(-27.808 193 326.5)" cx="193" cy="326.5" rx="1" ry="1.5"/><path fill="#EFF653" d="M207 329.18l10.044 7.82L231 329.016 221.32 321z"/><path fill="#9F9522" d="M217 339l14-7.82V329l-14 7.788z"/><path d="M204.035 318.082L191.647 311 188 317.266v4.536l3.253 1.86c2.727-3.002 5.586 3.198 5.586 3.198l13.57 7.767c2.662-3.068 5.75 3.296 5.75 3.296L218 339v-2.252l-9.923-7.767-4.042-10.9z" fill="#FFE600"/><path fill="#EFF653" d="M190 311.467L202.658 319 217 310.499 204.308 303zm4 16.357L207.675 336l1.325-.824L195.358 327z"/><path fill="#FFE600" d="M194 330.886L208 339v-2.92L194 328z"/><path fill="#515151" d="M214 342.094l3 1.906v-3.094L214 339z"/><path fill="#8C8C8C" d="M187.443 321L185 322.416l4.563 2.584 1.437-.814-3.557-2.018z"/><path fill="#515151" d="M185 324.704l4 2.296v-2.704L185 322z"/><path fill="#8C8C8C" d="M231.65 331.252l-14.345 8.259-1.942-1.117-1.363.812 3.135 1.794L234 331.32l-2.35-1.32z"/><path fill="#3B3B3B" d="M217 344l17-9.995V331l-17 9.995zm5-7l5-2.979V332l-5 3.014z"/><path fill="#FFFFFE" d="M216 336.68v1.71l1.043.61 3.957-2.29V335l-3.957 2.26zm11.033-3.68l3.967-2.236V329l-4 2.236z"/><path fill="#508085" d="M197 315v7.72l9 5.28-3.335-9.668z"/><path fill="#295053" d="M216.793 311.298l3.078 8.517-9.167-5.137-6.704 3.745 3.694 9.577L221 320.577 217.34 311z"/><path fill="#295053" opacity=".5" d="M211 314.572l9 5.428-3.022-9z"/><path d="M203 318.448L207.218 330 222 321.414 217.576 310 203 318.448zm4.733 10.38l-3.704-9.931L210.75 315l6.07-3.517.549-.31 3.67 9.965-13.307 7.69z" fill="#9F9522"/><path fill="#508085" d="M190 318.727l6 3.273v-7.625L193.538 313z"/><path fill="#000" opacity=".3" d="M230.747 331.185L217 339h2.351L233 331.25l-2.253-1.25z"/><path fill="#FFFFFE" d="M523 363v12.507L673 462v-12.507z"/><path fill="#DAEDEC" d="M523 362.505L708 256v2.6L527.49 362.505l145.748 83.928V449z"/><path fill="#FFFFFE" d="M523 381v12.507L673 480v-12.507z"/><path fill="#DAEDEC" d="M523 380.565l4.483-2.565 2.208 1.283-2.208 1.282L673 464.435V467z"/><path fill="#1EB476" d="M530.2 379l-2.2 1.28L673 464v-2.594z"/><path fill="#FFFFFE" d="M523 380.041V375l4 1.959V382z"/><path fill="#000" opacity=".3" d="M527 382v-5l2 1.242v2.516z"/><path fill="#FFFFFE" d="M573 410.041V405l4 1.959V412z"/><path fill="#000" opacity=".3" d="M577 412v-5l2 1.274v2.484z"/><path fill="#FFFFFE" d="M622 437.041V432l4 1.959V439z"/><path fill="#000" opacity=".3" d="M625 439v-5l2 1.274v2.484z"/><path fill="#FFFFFE" d="M671 466.041V461l4 1.959V468z"/><path fill="#79C99E" d="M529.5 381l-2.5 1h5zm50 30l-2.5 1h5zm48 27l-2.5 1h5z"/><path fill="#000" opacity=".3" d="M861 360v12.61L675 480v-12.61z"/><path fill="#79C99E" d="M861 361.565L856.487 359l-2.257 1.283 2.257 1.282L675 465.435V468z"/><path fill="#1EB476" d="M853.75 359l2.25 1.293L675 465v-2.62z"/><path fill="#000" opacity=".3" d="M859 361.041V356l-4 1.959V363z"/><path fill="#79C99E" d="M855 363v-5l-2 1.274v2.484z"/><path fill="#000" opacity=".3" d="M775 410.041V405l-4 1.959V412z"/><path fill="#79C99E" d="M771 412v-5l-2 1.274v2.484z"/><path fill="#000" opacity=".3" d="M821 383.041V378l-4 1.959V385z"/><path fill="#79C99E" d="M817 385v-5l-2 1.242v2.516z"/><path fill="#000" opacity=".3" d="M727 437.041V432l-4 1.959V439z"/><path fill="#79C99E" d="M723 439v-5l-2 1.274v2.484z"/><path fill="#000" opacity=".3" d="M679 466.041V461l-4 1.959V468z"/><path fill="#FFFFFE" d="M523 399v12.507L673 498v-12.507z"/><path fill="#DAEDEC" d="M523 398.565l4.483-2.565 2.208 1.283-2.208 1.282L673 482.435V485z"/><path fill="#1EB476" d="M530.2 397l-2.2 1.28L673 482v-2.594z"/><path fill="#FFFFFE" d="M523 398.041V393l4 1.959V400z"/><path fill="#000" opacity=".3" d="M527 400v-5l2 1.242v2.516z"/><path fill="#FFFFFE" d="M573 427.041V422l4 1.959V429z"/><path fill="#000" opacity=".3" d="M577 429v-5l2 1.274v2.484z"/><path fill="#FFFFFE" d="M622 455.041V450l4 1.959V457z"/><path fill="#000" opacity=".3" d="M625 457v-5l2 1.274v2.484z"/><path fill="#FFFFFE" d="M671 483.041V478l4 1.959V485z"/><path fill="#79C99E" d="M529.5 399l-2.5 1h5zm50 29l-2.5 1h5zm48 28l-2.5 1h5z"/><path fill="#000" opacity=".3" d="M861 378v12.61L675 498v-12.61z"/><path fill="#79C99E" d="M861 378.565L856.487 376l-2.257 1.283 2.257 1.282L675 482.435V485z"/><path fill="#1EB476" d="M853.75 377l2.25 1.293L675 483v-2.62z"/><path fill="#000" opacity=".3" d="M859 378.041V373l-4 1.959V380z"/><path fill="#79C99E" d="M855 380v-5l-2 1.274v2.484z"/><path fill="#000" opacity=".3" d="M775 427.041V422l-4 1.959V429z"/><path fill="#79C99E" d="M771 429v-5l-2 1.274v2.484z"/><path fill="#000" opacity=".3" d="M821 401.041V396l-4 1.959V403z"/><path fill="#79C99E" d="M817 403v-5l-2 1.242v2.516z"/><path fill="#000" opacity=".3" d="M727 455.041V450l-4 1.959V457z"/><path fill="#79C99E" d="M723 457v-5l-2 1.274v2.484z"/><path fill="#000" opacity=".3" d="M679 483.041V478l-4 1.959V485z"/><path fill="#FFFFFE" d="M523 416v12.507L673 515v-12.507z"/><path fill="#DAEDEC" d="M523 416.565l4.483-2.565 2.208 1.283-2.208 1.282L673 500.435V503z"/><path fill="#1EB476" d="M530.2 414l-2.2 1.28L673 499v-2.594z"/><path fill="#FFFFFE" d="M523 416.041V411l4 1.959V418z"/><path fill="#000" opacity=".3" d="M527 419v-5l2 1.242v2.516z"/><path fill="#FFFFFE" d="M573 445.041V440l4 1.959V447z"/><path fill="#000" opacity=".3" d="M577 447v-5l2 1.274v2.484z"/><path fill="#FFFFFE" d="M622 473.041V468l4 1.959V475z"/><path fill="#000" opacity=".3" d="M625 474v-5l2 1.274v2.484z"/><path fill="#FFFFFE" d="M671 501.041V496l4 1.959V503z"/><path fill="#79C99E" d="M529.5 416l-2.5 1h5zm50 30l-2.5 1h5zm48 27l-2.5 1h5z"/><path fill="#000" opacity=".3" d="M861 396v12.61L675 516v-12.61z"/><path fill="#79C99E" d="M861 396.565L856.487 394l-2.257 1.283 2.257 1.282L675 500.435V503z"/><path fill="#1EB476" d="M853.75 395l2.25 1.293L675 501v-2.62z"/><path fill="#000" opacity=".3" d="M859 396.041V391l-4 1.959V398z"/><path fill="#79C99E" d="M855 398v-5l-2 1.274v2.484z"/><path fill="#000" opacity=".3" d="M775 445.041V440l-4 1.959V447z"/><path fill="#79C99E" d="M771 447v-5l-2 1.274v2.484z"/><path fill="#000" opacity=".3" d="M821 419.041V414l-4 1.959V421z"/><path fill="#79C99E" d="M817 420v-5l-2 1.242v2.516z"/><path fill="#000" opacity=".3" d="M727 473.041V468l-4 1.959V475z"/><path fill="#79C99E" d="M723 474v-5l-2 1.274v2.484z"/><path fill="#000" opacity=".3" d="M679 501.041V496l-4 1.959V503z"/><path fill="#FFFFFE" d="M523 434v12.507L673 533v-12.507z"/><path fill="#DAEDEC" d="M523 433.565l4.483-2.565 2.208 1.283-2.208 1.282L673 517.435V520z"/><path fill="#1EB476" d="M530.2 432l-2.2 1.28L673 517v-2.594z"/><path fill="#FFFFFE" d="M523 434.041V429l4 1.959V436z"/><path fill="#000" opacity=".3" d="M527 436v-5l2 1.242v2.516z"/><path fill="#FFFFFE" d="M573 463.041V458l4 1.959V465z"/><path fill="#000" opacity=".3" d="M577 465v-5l2 1.274v2.484z"/><path fill="#FFFFFE" d="M622 490.041V485l4 1.959V492z"/><path fill="#000" opacity=".3" d="M625 492v-5l2 1.274v2.484z"/><path fill="#FFFFFE" d="M671 519.041V514l4 1.959V521z"/><path fill="#79C99E" d="M529.5 435l-2.5 1h5zm50 29l-2.5 1h5zm48 27l-2.5 1h5z"/><path fill="#000" opacity=".3" d="M861 414v12.61L675 534v-12.61z"/><path fill="#79C99E" d="M861 414.565L856.487 412l-2.257 1.283 2.257 1.282L675 518.435V521z"/><path fill="#1EB476" d="M853.75 413l2.25 1.293L675 519v-2.62z"/><path fill="#000" opacity=".3" d="M859 414.041V409l-4 1.959V416z"/><path fill="#79C99E" d="M855 416v-5l-2 1.274v2.484z"/><path fill="#000" opacity=".3" d="M775 463.041V458l-4 1.959V465z"/><path fill="#79C99E" d="M771 465v-5l-2 1.274v2.484z"/><path fill="#000" opacity=".3" d="M821 436.041V431l-4 1.959V438z"/><path fill="#79C99E" d="M817 438v-5l-2 1.242v2.516z"/><path fill="#000" opacity=".3" d="M727 490.041V485l-4 1.959V492z"/><path fill="#79C99E" d="M723 492v-5l-2 1.274v2.484z"/><path fill="#000" opacity=".3" d="M679 519.041V514l-4 1.959V521zM861 343v12.61L675 463v-12.61zm-333 19.524l5.991 3.476L709 264.953V258z"/><path fill="#FFFFFE" d="M855 341.527L848.983 345 709 264.881V258z"/><path fill="#DAEDEC" d="M861 342.495L709.943 256v2.6l146.544 83.895L675 446.433V449z"/><path fill="#DAEDEC" d="M708.364 265L534 366.049 673.636 447 848 345.951z"/><path fill="#1EB476" d="M699.17 324L756 356.686 692.844 393 638 359.16z"/><path fill="#FFFFFE" d="M699 320v4.144L755.416 357l3.584-2.089z"/><path fill="#000" opacity=".3" d="M698 320l-74 42 12.956-3.283L698 324.063z"/><path fill="#BEDFE3" d="M624 363.21L696.242 344 737 367.534 684.23 398z"/><path fill="#1EB476" d="M539 326v27.484l11.02-6.308 2.25 1.275v6.863L571 366v-21.765z"/><path fill="#307F5B" d="M570 366v-21.69L592 332v21.69z"/><path fill="#79C99E" d="M539 326.539L560.773 314 593 332.494 571.194 345z"/><path fill="#000" opacity=".3" d="M742 562l9-5.467v-16.066L742 535z"/><path fill="#1EB476" d="M752 541v15.42L781 573v-15.453z"/><path fill="#000" opacity=".3" d="M801 597l9-5.467v-16.066L801 570z"/><path fill="#1EB476" d="M810 575v15.76L840 608v-15.76z"/><path fill="#79C99E" d="M921 596l-9-5.467v-16.066l9-5.467z"/><path fill="#307F5B" d="M912 575v15.842L881 609v-15.842z"/><path fill="#79C99E" d="M982 560l-9-5.44v-16.12l9-5.44z"/><path fill="#307F5B" d="M973 539v15.799L942 573v-15.799z"/><path fill="#79C99E" d="M1043 525l-9-5.44v-16.086l9-5.474z"/><path fill="#307F5B" d="M1034 504v15.452L1002 538v-15.452z"/><path fill="#DAEDEC" d="M886.048 325L865 336.918 903.985 359 925 347.082z"/><path fill="#000" opacity=".3" d="M913 355.156V474l13-7.19V348z"/><path fill="#307F5B" d="M843 335.934V346l60-34.9V301z"/><path fill="#79C99E" d="M805 312.647L843.79 335 904 300.32 865.178 278z"/><path fill="#FFFFFE" d="M825 287v15.39L845 314v-15.424z"/><path fill="#000" opacity=".3" d="M844 298.729V314l20-11.729V287z"/><path fill="#DAEDEC" d="M825 286.649L844.29 298 864 286.384 844.71 275z"/><path fill="#79C99E" d="M843 344.988l8.63 5.012L912 314.98l-8.596-4.98z"/><path fill="#307F5B" d="M852 349.77v149.595L866.885 508 912 481.865V315z"/><path fill="#1EB476" d="M805 313v59.177l38.47 22.53V496.03L852 501V350.607l-8.53-5.004v-10.072z"/><path fill="#DAEDEC" d="M805.026 372L784 383.918 822.974 406 844 394.082z"/><path fill="#D3DDDC" d="M823 407.121v76.758L844 496V395z"/><path fill="#FFFFFE" d="M784 384v76.59L823 483v-76.59z"/><path fill="#DAEDEC" d="M784.63 461.098l97.479 56.094 101.613-58.467-57.72-33.189V379L1064 458.395 861.336 575 724 495.967z"/><path fill="#FFFFFE" d="M724 496v55.649l18.94 10.957v-26.649l38.704 22.412v26.649l19.633 11.388v-26.65l39.232 22.744v26.615L861 631v-55.649z"/><path fill="#000" opacity=".3" d="M860 575.622V631l20.474-11.8v-26.503l40.617-23.47v26.536l19.65-11.34v-26.535l40.848-23.568v26.502l18.924-10.91v-26.503l42.134-24.326v26.502L1062 514.41V459z"/><path fill="#DAEDEC" d="M801.367 553L841 575.274 823.633 585 784 562.726z"/><path fill="#FFFFFE" d="M784 563l39 23.215V590l-39-23.215z"/><path fill="#000" opacity=".3" d="M823 586.194L841 576v3.772L823 590z"/><path fill="#DAEDEC" d="M742.333 520L782 542.251 764.633 552 725 529.749z"/><path fill="#FFFFFE" d="M725 529l39 23.244V556l-39-23.21z"/><path fill="#000" opacity=".3" d="M764 552.228L782 542v3.806L764 556z"/><path fill="#DAEDEC" d="M920.828 552L937 561.088 896.172 584 880 574.945z"/><path fill="#FFFFFE" d="M880 576l16 9.295V589l-16-9.328z"/><path fill="#000" opacity=".3" d="M896 586.19L936 562v3.81L896 590z"/><path fill="#DAEDEC" d="M982.828 517L999 526.088 958.172 549 942 539.912z"/><path fill="#FFFFFE" d="M942 540l16 9.328V553l-16-9.328z"/><path fill="#000" opacity=".3" d="M957 550.219L997 526v3.781L957 554z"/><path fill="#DAEDEC" d="M1042.828 482l16.172 9.088L1018.172 514 1002 504.912z"/><path fill="#FFFFFE" d="M1002 506l16 9.305V519l-16-9.305z"/><path fill="#000" opacity=".3" d="M1017 515.19l40-24.19v3.81L1017 519z"/><path fill="#FFFFFE" d="M925 425v40.999L947.469 479 983 458.484z"/><path fill="#000" opacity=".3" d="M698.162 320l2.583 5.526L755 356.28l-4.538 2.568-27.823-15.767-13.083 7.412L624 362l13.315-3.478 60.847-34.459zm-146.083 36.095V349l3.921 9.392L537.921 369 534 366.703zM570 367h25.613L618 354.113 591.788 339v15.445zm22-34.263V337l120-69.874-3.666-9.126v6.994zM844 313h18.869L882 301.57 863.917 291v10.37zm-1 31h10.961L910 313.452 903.87 310zm70-3v15l13-7.483zm-70 54l9 19.726V501l-9-4.956zM675 533h49v-28zm126 62.837l9.367-5.32V582l9.633 5.483V596zm24-7.519l2.756 1.627 6.259 15.073-2.627 1.56 8.301 4.914v-3.12L856 618v-4.416L839.592 576v3.685zm-83-26.481l9.334-5.32V548l9.666 5.483V562zm24-7.496l2.786 1.626 6.252 15.061-2.624 1.56 8.292 4.91v-3.119L797 584v-4.412L780.61 542v3.716zM925 403h42.132L1051 451.376l-44.348 25.542h-55.691L947.356 479 925 466.08zm-45 172.45v3.655L890.131 585l-2.524-5.138L928 556.446 920.393 552zm62-35.01v3.659L952.131 550l-2.524-5.143L990 521.417 982.393 517zm60-35v3.692l10.131 5.868-2.524-5.143 40.393-23.44-7.607-4.417z"/><path d="M860 631h64.357l11.915-6.884 6.831 3.971h5.05l40.396-23.4-9.406-5.461 149.408-86.518-10.462-6.057 15.578-9.002-2.74-1.59 6.073-3.507s-37.69-21.812-37.855-21.911c-.165-.1-30.364 0-30.364 0l-6.567-3.641v46.999l-19.407 11.22-9.307-5.395-32.871 19.031v10.757l-18.944 10.956-9.307-5.395-31.618 18.303v10.757l-19.67 11.385-9.307-5.395-31.354 18.171v10.757L860 631z" fill="#000" opacity=".3"/></g></g></svg>