<?xml version="1.0" encoding="UTF-8"?>
<svg width="106px" height="125px" viewBox="0 0 106 125" version="1.1" xmlns="http://www.w3.org/2000/svg" xmlns:xlink="http://www.w3.org/1999/xlink">
    <!-- Generator: Sketch 47 (45396) - http://www.bohemiancoding.com/sketch -->
    <title>Group 16</title>
    <desc>Created with Sketch.</desc>
    <defs></defs>
    <g id="Page-1" stroke="none" stroke-width="1" fill="none" fill-rule="evenodd">
        <g id="Lalaland_1" transform="translate(-925.000000, -3655.000000)">
            <g id="Group-16" transform="translate(925.000000, 3655.000000)">
                <g id="Page-1">
                    <polygon id="Fill-1" fill="#FF2FF3" points="3.22485843 35.8631064 20.2032656 45.652178 20.2032656 85.0347498 3.22485843 75.2456782"></polygon>
                    <polygon id="Fill-2" fill="#AA02AF" points="37.1817094 35.8631064 20.2033022 45.652178 20.2033022 85.0347498 37.1817094 75.2456782"></polygon>
                    <polygon id="Fill-3" fill="#FC99FF" points="3.22485843 35.8631064 20.2032656 45.652178 37.1816729 35.8631064 20.2032656 26.0740348"></polygon>
                    <polygon id="Fill-4" fill="#FF2FF3" points="26.1550568 29.3951677 43.133464 39.1842394 43.133464 98.255453 26.1550568 88.4663814"></polygon>
                    <polygon id="Fill-5" fill="#AA02AF" points="60.1118986 29.3951677 43.1334914 39.1842394 43.1334914 98.255453 60.1118986 88.4663814"></polygon>
                    <polygon id="Fill-6" fill="#FC99FF" points="26.1550568 29.3951677 43.133464 39.1842394 60.1118713 29.3951677 43.133464 19.6060961"></polygon>
                    <polygon id="Fill-7" fill="#FF2FF3" points="49.0852461 22.3012248 66.0636533 32.0902964 66.0636533 111.476038 49.0852461 101.686966"></polygon>
                    <polygon id="Fill-8" fill="#AA02AF" points="83.0420879 22.3012248 66.0636807 32.0902964 66.0636807 111.476038 83.0420879 101.686966"></polygon>
                    <polygon id="Fill-9" fill="#FC99FF" points="49.0852461 22.3012248 66.0636533 32.0902964 83.0420605 22.3012248 66.0636533 12.5121532"></polygon>
                    <polygon id="Fill-10" fill="#FF2FF3" points="72.0154171 114.907615 88.9938243 124.696686 88.9938243 19.5781524 72.0154171 9.78908073"></polygon>
                    <polygon id="Fill-11" fill="#AA02AF" points="88.9938608 19.578125 88.9938608 124.696659 105.972268 114.907587 105.972268 9.78905338"></polygon>
                    <polygon id="Fill-12" fill="#FC99FF" points="88.9938608 0 72.0154536 9.78907162 88.9938608 19.5781432 105.972268 9.78907162"></polygon>
                    <g id="Group-26" transform="translate(0.000000, 22.312165)" fill="#FFFFFF">
                        <g id="Group-15" transform="translate(0.000000, 40.206206)">
                            <path d="M4.76181821,1.87773012 C5.65879653,3.42917914 5.44397821,5.22997956 4.28206035,5.89990066 C3.12014249,6.56982176 1.45107811,5.85513593 0.554099794,4.30368692 C-0.342878519,2.75223791 -0.128151497,0.951437479 1.03385766,0.281516381 C2.19577552,-0.388404717 3.8648399,0.326189944 4.76181821,1.87773012" id="Fill-13"></path>
                        </g>
                        <path d="M22.307134,43.7831456 C23.2041123,45.3346858 22.989294,47.1354862 21.8273761,47.8053161 C20.6654583,48.4752372 18.9963939,47.7606426 18.0994156,46.2091024 C17.2024372,44.6576534 17.4171643,42.8568529 18.5791734,42.1869318 C19.7410913,41.5171019 21.4101557,42.2316054 22.307134,43.7831456" id="Fill-16"></path>
                        <path d="M45.2373324,32.9301047 C46.1343107,34.4816449 45.9194924,36.2824453 44.7575745,36.9522752 C43.5956567,37.6222875 41.9265923,36.9076017 41.029614,35.3560615 C40.1326356,33.8047036 40.347454,32.0039032 41.5093718,31.333891 C42.6712897,30.664061 44.3403541,31.3786557 45.2373324,32.9301047" id="Fill-18"></path>
                        <path d="M68.1675216,44.5024446 C69.0645,46.0538937 68.8496816,47.8546941 67.6877638,48.5246152 C66.5258459,49.1945363 64.8567815,48.4798504 63.9598032,46.9284014 C63.0628249,45.3769524 63.2775519,43.576152 64.4395611,42.9062309 C65.601479,42.2363098 67.2705433,42.9509045 68.1675216,44.5024446" id="Fill-20"></path>
                        <path d="M91.09772,1.87630786 C91.9946984,3.42784805 91.77988,5.22864847 90.6179622,5.8984784 C89.4560443,6.56849067 87.7869799,5.85380484 86.8900016,4.30235583 C85.9930233,2.75090682 86.2078416,0.950106389 87.3697595,0.280094121 C88.5316774,-0.389735807 90.2007417,0.324858854 91.09772,1.87630786" id="Fill-22"></path>
                        <polygon id="Fill-24" points="66.1983416 46.1428032 43.1289723 34.5003257 20.2606357 45.3240006 2.6269094 43.6161941 2.68899035 42.9775445 20.1459686 44.6683021 43.1380106 33.7860046 65.9289285 45.2879882 88.7108996 2.93754202 89.2768404 3.24123108"></polygon>
                    </g>
                </g>
            </g>
        </g>
    </g>
</svg>