<?xml version="1.0" encoding="UTF-8"?>
<svg width="100px" height="147px" viewBox="0 0 100 147" version="1.1" xmlns="http://www.w3.org/2000/svg" xmlns:xlink="http://www.w3.org/1999/xlink">
    <!-- Generator: Sketch 47 (45396) - http://www.bohemiancoding.com/sketch -->
    <title>Group 12</title>
    <desc>Created with Sketch.</desc>
    <defs></defs>
    <g id="Page-1" stroke="none" stroke-width="1" fill="none" fill-rule="evenodd">
        <g id="Lalaland_1" transform="translate(-537.000000, -3631.000000)">
            <g id="Group-12" transform="translate(587.000000, 3704.500000) scale(-1, 1) translate(-587.000000, -3704.500000) translate(537.000000, 3631.000000)">
                <g id="Page-1">
                    <polygon id="Fill-1" fill="#FF2FF3" points="99.1189469 0.112120607 0.126972577 57.7422473 -1.12375057e-05 146.120499 99.1189469 88.9841206"></polygon>
                    <polygon id="Fill-2" fill="#FFFFFF" points="20.3244899 86.4751764 20.3244899 74.6548556 7.15817875 82.3198545 7.14132249 94.0743872"></polygon>
                    <polygon id="Fill-3" fill="#FFFFFF" points="20.3244899 103.415043 20.3244899 91.5948344 7.15817875 99.2598333 7.14132249 111.014366"></polygon>
                    <polygon id="Fill-4" fill="#FFFFFF" points="20.3244899 120.355011 20.3244899 108.534802 7.15817875 116.199689 7.14132249 127.954221"></polygon>
                    <polygon id="Fill-5" fill="#480087" points="99.1189469 0.112120607 0.131242829 57.1693511 0.114948446 66.1498895 99.2337942 9.01328657"></polygon>
                    <polygon id="Fill-6" fill="#FDE51C" points="0.114892258 66.1498783 0.0984854999 75.1304167 99.2174436 17.9938138 99.1025963 9.09264779"></polygon>
                    <polygon id="Fill-7" fill="#FFFFFF" points="18.3813566 62.3647328 18.3291022 58.3165132 2.46275556 67.461073 2.45533881 71.545218"></polygon>
                    <polygon id="Fill-8" fill="#C6C6C6" points="97.7679402 8.41331165 97.6918623 2.51898079 92.8962567 5.28320787 92.8877162 11.2263747"></polygon>
                    <polygon id="Fill-9" fill="#FFFFFF" points="91.6524447 11.9383018 91.5763667 6.04397095 86.7807612 8.80819803 86.7722207 14.7513648"></polygon>
                    <polygon id="Fill-10" fill="#FFFFFF" points="85.5369491 15.4633032 85.4608712 9.56897233 80.6652656 12.3331994 80.6567251 18.2763662"></polygon>
                    <polygon id="Fill-11" fill="#FF2FF3" points="85.2608661 80.4293419 94.4526962 89.6122969 88.6581888 86.2700093 79.5116458 77.1132124"></polygon>
                    <g id="Group-22" transform="translate(24.947263, 36.211577)">
                        <path d="M3.96135561,33.0485565 L60.4018403,0.494062649 C61.5240176,-0.153154032 62.8011602,0.00806073854 63.7167921,0.677506197 L63.7172416,0.676832598 L68.4108106,3.3829056 L64.518251,7.76758812 L64.518251,32.7053576 C64.518251,34.7772369 63.4119186,36.6917184 61.6158281,37.7277142 L13.0544081,65.7375457 L6.04355304,73.6347118 L1.81004752,71.2005484 C1.67339945,71.1347602 1.54169588,71.0590926 1.41617294,70.9739945 L1.41055419,70.9708511 L1.41100369,70.970402 C0.629547544,70.4384831 0.0882368947,69.5469744 0.0882368947,68.4676437 L0.0882368947,39.7504207 C0.0882368947,36.9856323 1.56462039,34.4308946 3.96135561,33.0485565" id="Fill-12" fill="#AA02AF"></path>
                        <path d="M8.51199478,35.6591917 L64.9524795,3.10458559 C66.9760171,1.9374625 69.5054673,3.39647863 69.5054673,5.73072481 L69.5054673,35.567919 C69.5054673,37.683919 68.3744124,39.639041 66.5391029,40.6954693 L9.19186387,73.7044181 C7.16832622,74.8715412 4.63887606,73.4126374 4.63887606,71.0782789 L4.63887606,42.3610559 C4.63887606,39.5962675 6.11525956,37.0415298 8.51199478,35.6591917" id="Fill-14" fill="#FFFFFF"></path>
                        <polygon id="Fill-16" fill="#FF2FF3" points="60.0675358 14.9157567 60.0675358 17.9018225 25.6228952 37.7691854 25.6228952 34.7832319"></polygon>
                        <polygon id="Fill-18" fill="#FF2FF3" points="60.0675358 22.6407622 60.0675358 25.6269402 15.7850208 51.1687038 15.7850208 48.182638"></polygon>
                        <polygon id="Fill-20" fill="#FF2FF3" points="60.0675358 30.3658911 60.0675358 33.3519569 35.3474955 47.6102582 35.3474955 44.6241924"></polygon>
                    </g>
                </g>
            </g>
        </g>
    </g>
</svg>