<?xml version="1.0" encoding="UTF-8"?>
<svg width="101px" height="153px" viewBox="0 0 101 153" version="1.1" xmlns="http://www.w3.org/2000/svg" xmlns:xlink="http://www.w3.org/1999/xlink">
    <!-- Generator: Sketch 47 (45396) - http://www.bohemiancoding.com/sketch -->
    <title>Group 9</title>
    <desc>Created with Sketch.</desc>
    <defs></defs>
    <g id="Page-1" stroke="none" stroke-width="1" fill="none" fill-rule="evenodd">
        <g id="Lalaland_1" transform="translate(-147.000000, -3632.000000)">
            <g id="Group-9" transform="translate(147.000000, 3632.000000)">
                <g id="Page-1">
                    <path d="M68.2633863,71.522055 L1.46966323,58.0230675 L1.46966323,67.72698 C1.46966323,73.4805675 4.5591083,78.7973175 9.57423386,81.674055 L92.9293527,129.48948 C96.481337,131.52708 100.921261,128.98008 100.921261,124.905105 L100.921261,62.59203 C100.921261,59.5640925 100.064686,56.65788 98.5231901,54.16398 L68.2633863,71.522055 Z" id="Fill-1" fill="#480087"></path>
                    <g id="Group-5" transform="translate(1.358744, 0.003375)" fill="#480087">
                        <path d="M97.1644571,54.1606163 C95.7766129,51.9154538 93.8338349,50.0044163 91.4579571,48.6413663 L8.10283823,0.82594125 C4.55085392,-1.21143375 0.110930157,1.33534125 0.110930157,5.41042875 L0.110930157,58.0197038 L66.9046533,71.5186913 L97.1644571,54.1606163 Z" id="Fill-3"></path>
                    </g>
                    <path d="M7.99193072,1.6724025 C4.43994641,-0.365085 2.26457399e-05,2.1818025 2.26457399e-05,6.25689 L2.26457399e-05,68.569965 C2.26457399e-05,74.323665 3.08946771,79.6403025 8.10459327,82.51704 L11.9844879,84.74274 L82.3953018,44.352765 L7.99193072,1.6724025 Z" id="Fill-6" fill="#FF2FF3"></path>
                    <path d="M99.4516655,125.748045 L99.4516655,63.43497 C99.4516655,57.68127 96.3622204,52.3646325 91.3469816,49.4877825 L82.3952339,44.35272 L11.9845332,84.7428075 L91.4596442,130.332532 C95.0116285,132.37002 99.4516655,129.823132 99.4516655,125.748045" id="Fill-8" fill="#FF2FF3"></path>
                    <polygon id="Fill-10" fill="#480087" points="0 51.1186837 99.4517108 108.167659 99.4517108 124.061996 0 67.0130212"></polygon>
                    <polygon id="Fill-12" fill="#FFFFFF" points="57.7285994 58.7400187 57.7285994 71.3216812 74.8154896 81.1233562 74.8154896 68.5416937"></polygon>
                    <path d="M44.9339715,52.1705137 C44.5975691,52.1705137 44.2344446,52.4362387 44.2344446,52.8656512 L44.2344446,58.1167012 C44.2344446,58.6945012 44.5471823,59.2328137 45.0507103,59.5216012 L46.736346,60.4885387 C46.8453852,60.5510887 46.9624637,60.5828137 47.0840713,60.5828137 L47.0841845,60.5828137 C47.2628594,60.5828137 47.4405152,60.5113762 47.5715209,60.3865012 C47.7083011,60.2563387 47.7835982,60.0791512 47.7835982,59.8879012 L47.7835982,54.6366262 C47.7835982,54.0589387 47.4707473,53.5207387 46.9672193,53.2319512 L45.2815836,52.2649012 C45.1724312,52.2022387 45.0554659,52.1705137 44.9339715,52.1705137 M47.0841845,61.0648762 L47.0839581,61.0648762 C46.8791274,61.0648762 46.6750892,61.0098637 46.4938101,60.9059137 L44.8081744,59.9389762 C44.1550713,59.5643512 43.7493729,58.8661762 43.7493729,58.1167012 L43.7493729,52.8656512 C43.7493729,52.2166387 44.2807552,51.6886762 44.9339715,51.6886762 C45.1388022,51.6886762 45.3428404,51.7435762 45.5241195,51.8475262 L47.2097552,52.8145762 C47.8628583,53.1892012 48.26867,53.8873762 48.26867,54.6366262 L48.26867,59.8879012 C48.26867,60.2119012 48.1402686,60.5123887 47.9071307,60.7344637 C47.6866744,60.9443887 47.3866184,61.0648762 47.0841845,61.0648762" id="Fill-14" fill="#4A4A4A"></path>
                    <path d="M39.1469546,48.8508863 C38.8105521,48.8508863 38.4474277,49.1166113 38.4474277,49.5460238 L38.4474277,54.7971863 C38.4474277,55.3748738 38.7601654,55.9130738 39.2636934,56.2019738 L40.949329,57.1689113 C41.0583683,57.2314613 41.1754467,57.2631863 41.2970544,57.2631863 L41.2971676,57.2631863 C41.4758425,57.2631863 41.6534983,57.1917488 41.7845039,57.0668738 C41.9212842,56.9365988 41.9965813,56.7595238 41.9965813,56.5682738 L41.9965813,51.3169988 C41.9965813,50.7393113 41.6837304,50.2011113 41.1802024,49.9123238 L39.4945667,48.9452738 C39.3854142,48.8826113 39.268449,48.8508863 39.1469546,48.8508863 M41.2971676,57.7452488 L41.2969411,57.7452488 C41.0921104,57.7452488 40.8880723,57.6902363 40.7067932,57.5862863 L39.0211575,56.6193488 C38.3680544,56.2447238 37.9623559,55.5465488 37.9623559,54.7971863 L37.9623559,49.5460238 C37.9623559,48.8970113 38.4937382,48.3689363 39.1469546,48.3689363 C39.3517853,48.3689363 39.5558234,48.4238363 39.7371026,48.5278988 L41.4227382,49.4949488 C42.0759546,49.8694613 42.481653,50.5677488 42.481653,51.3169988 L42.481653,56.5682738 C42.481653,56.8922738 42.3532517,57.1927613 42.1201138,57.4148363 C41.8996575,57.6247613 41.5996015,57.7452488 41.2971676,57.7452488" id="Fill-16" fill="#4A4A4A"></path>
                    <path d="M33.359949,45.5312587 C33.0235465,45.5312587 32.6604221,45.7969837 32.6604221,46.2262837 L32.6604221,51.4774462 C32.6604221,52.0552462 32.9731598,52.5934462 33.4766878,52.8823462 L35.1623234,53.8492837 C35.2713627,53.9118337 35.3884411,53.9435587 35.5100488,53.9435587 L35.510162,53.9435587 C35.6888369,53.9435587 35.8664927,53.8721212 35.9974983,53.7472462 C36.1342786,53.6169712 36.2095757,53.4398962 36.2095757,53.2486462 L36.2095757,47.9973712 C36.2095757,47.4196837 35.8967248,46.8813712 35.3931967,46.5925837 L33.7075611,45.6256462 C33.5984086,45.5629837 33.4814434,45.5312587 33.359949,45.5312587 M35.510162,54.4256212 L35.5099355,54.4256212 C35.3051048,54.4256212 35.1010667,54.3706087 34.9197876,54.2666587 L33.2341519,53.2997212 C32.5810488,52.9250962 32.1753503,52.2269212 32.1753503,51.4774462 L32.1753503,46.2262837 C32.1753503,45.5773837 32.7067326,45.0493087 33.359949,45.0493087 C33.5647797,45.0493087 33.7688178,45.1042087 33.950097,45.2082712 L35.6357326,46.1752087 C36.288949,46.5498337 36.6946474,47.2481212 36.6946474,47.9973712 L36.6946474,53.2486462 C36.6946474,53.5725337 36.5662461,53.8731337 36.3331082,54.0952087 C36.1126519,54.3051337 35.8125959,54.4256212 35.510162,54.4256212" id="Fill-18" fill="#4A4A4A"></path>
                    <path d="M21.5600465,38.7624713 C21.2236441,38.7624713 20.8605196,39.0281963 20.8605196,39.4574963 L20.8605196,44.7086588 C20.8605196,45.2864588 21.1732573,45.8246588 21.6767853,46.1135588 L23.362421,47.0804963 C23.4714602,47.1430463 23.5885387,47.1747713 23.7101463,47.1747713 L23.7102595,47.1747713 C23.8889344,47.1747713 24.0665902,47.1032213 24.1975959,46.9784588 C24.3343761,46.8481838 24.4096732,46.6711088 24.4096732,46.4797463 L24.4096732,41.2285838 C24.4096732,40.6508963 24.0969355,40.1125838 23.5934075,39.8237963 L21.9076586,38.8568588 C21.7985062,38.7941963 21.6815409,38.7624713 21.5600465,38.7624713 M23.7102595,47.6568338 L23.7100331,47.6568338 C23.5052024,47.6567213 23.3011642,47.6017088 23.1198851,47.4977588 L21.4342494,46.5309338 C20.7811463,46.1563088 20.3754479,45.4581338 20.3754479,44.7086588 L20.3754479,39.4574963 C20.3754479,38.8084838 20.9068302,38.2806338 21.5600465,38.2806338 C21.7648772,38.2806338 21.9689154,38.3354213 22.1501945,38.4394838 L23.8359434,39.4064213 C24.4890465,39.7810463 24.894745,40.4792213 24.894745,41.2285838 L24.894745,46.4797463 C24.894745,46.8037463 24.7663436,47.1043463 24.5332057,47.3263088 C24.3127494,47.5362338 24.0126934,47.6568338 23.7102595,47.6568338" id="Fill-20" fill="#4A4A4A"></path>
                    <path d="M15.7730296,35.4428437 C15.4366271,35.4428437 15.0735027,35.7085687 15.0735027,36.1378687 L15.0735027,41.3891437 C15.0735027,41.9667187 15.3862404,42.5050312 15.8897684,42.7939312 L17.575404,43.7608687 C17.6845565,43.8234187 17.8015217,43.8551437 17.9231294,43.8551437 C18.1019175,43.8551437 18.2795733,43.7837062 18.4105789,43.6588312 C18.5473592,43.5285562 18.6226563,43.3514812 18.6226563,43.1602312 L18.6226563,37.9089562 C18.6226563,37.3312687 18.3098054,36.7929562 17.8063906,36.5041687 L16.1206417,35.5372312 C16.0114892,35.4745687 15.894524,35.4428437 15.7730296,35.4428437 M17.9231294,44.3372062 L17.9231294,44.3372062 C17.7181854,44.3372062 17.5141473,44.2821937 17.3328682,44.1782437 L15.6472325,43.2113062 C14.9941294,42.8366812 14.5884309,42.1383937 14.5884309,41.3891437 L14.5884309,36.1378687 C14.5884309,35.4888562 15.1198132,34.9608937 15.7730296,34.9608937 C15.9778603,34.9608937 16.1818984,35.0157937 16.3631776,35.1198562 L18.0489265,36.0867937 C18.7020296,36.4615312 19.107728,37.1597062 19.107728,37.9089562 L19.107728,43.1602312 C19.107728,43.4841187 18.9793267,43.7847187 18.7461888,44.0066812 C18.5257325,44.2167187 18.2256765,44.3372062 17.9231294,44.3372062" id="Fill-22" fill="#4A4A4A"></path>
                    <path d="M9.98603531,32.123205 C9.64963285,32.123205 9.28650841,32.38893 9.28650841,32.81823 L9.28650841,38.069505 C9.28650841,38.64708 9.59924608,39.1853925 10.1027741,39.4742925 L11.7884098,40.4413425 C11.897449,40.50378 12.0144142,40.535505 12.1361351,40.535505 L12.1362483,40.535505 C12.3149232,40.535505 12.492579,40.463955 12.6235846,40.3391925 C12.7603649,40.2089175 12.835662,40.0318425 12.835662,39.84048 L12.835662,34.5893175 C12.835662,34.0115175 12.5228111,33.4733175 12.0192831,33.18453 L10.3336474,32.2175925 C10.224495,32.15493 10.1075297,32.123205 9.98603531,32.123205 M12.1362483,41.0175675 L12.1361351,41.0175675 C11.9311911,41.017455 11.727153,40.9624425 11.5458739,40.858605 L9.86023823,39.8916675 C9.20713509,39.5170425 8.80143666,38.8188675 8.80143666,38.069505 L8.80143666,32.81823 C8.80143666,32.1692175 9.33281895,31.641255 9.98603531,31.641255 C10.190866,31.641255 10.3949041,31.696155 10.5761833,31.800105 L12.2618189,32.767155 C12.9149221,33.14178 13.3207337,33.839955 13.3207337,34.5893175 L13.3207337,39.84048 C13.3207337,40.16448 13.1923324,40.46508 12.9591945,40.6870425 C12.7387382,40.89708 12.4386822,41.0175675 12.1362483,41.0175675" id="Fill-24" fill="#4A4A4A"></path>
                    <polygon id="Fill-26" fill="#FDE51C" points="72.5914401 132.268759 72.5914401 102.502384 13.1861161 68.4254587 13.1861161 98.1918337"></polygon>
                    <polygon id="Fill-28" fill="#C4AB1A" points="77.8488411 122.602444 77.8488411 99.4866187 72.5914062 102.502406 72.5914062 132.268781 83.7132952 125.888906"></polygon>
                    <polygon id="Fill-30" fill="#FFF099" points="13.1861501 68.4254475 18.4435851 65.40966 77.8487959 99.4866975 72.5914741 102.502372"></polygon>
                    <polygon id="Fill-32" fill="#C4AB1A" points="90.7556674 129.928669 83.7132952 125.888906 67.3760923 135.260606 67.3760923 152.890819 90.7556674 139.479469"></polygon>
                    <polygon id="Fill-34" fill="#FFF099" points="67.3761262 135.260561 7.97080224 101.183636 13.1861161 98.1918113 72.5914401 132.268736"></polygon>
                    <polygon id="Fill-36" fill="#FDE51C" points="7.9707796 101.183602 7.9707796 118.813927 67.3761036 152.890852 67.3761036 135.260527"></polygon>
                    <polygon id="Fill-38" fill="#666666" points="77.8488411 99.4866525 83.277025 108.827865 83.277025 125.638627 77.8488411 122.602477"></polygon>
                </g>
            </g>
        </g>
    </g>
</svg>