<?xml version="1.0" encoding="UTF-8"?>
<svg width="107px" height="126px" viewBox="0 0 107 126" version="1.1" xmlns="http://www.w3.org/2000/svg" xmlns:xlink="http://www.w3.org/1999/xlink">
    <!-- Generator: Sketch 47 (45396) - http://www.bohemiancoding.com/sketch -->
    <title>Group 17</title>
    <desc>Created with Sketch.</desc>
    <defs>
        <polygon id="path-1" points="74.8108681 0.0224547969 0 0.0224547969 0 98.4001036 74.8108681 98.4001036 74.8108681 0.0224547969"></polygon>
    </defs>
    <g id="Page-1" stroke="none" stroke-width="1" fill="none" fill-rule="evenodd">
        <g id="Lalaland_1" transform="translate(-149.000000, -3884.000000)">
            <g id="Group-17" transform="translate(149.000000, 3884.000000)">
                <g id="Page-1">
                    <path d="M88.3676076,85.7488705 C86.6919699,89.2059469 87.3958581,93.0062609 89.9397771,94.2370243 C92.4836961,95.4677076 95.9043248,93.6628231 97.5799624,90.2056665 C99.2556001,86.74851 98.5517119,82.948196 96.0077929,81.7175127 C93.4637936,80.4868295 90.0432452,82.291714 88.3676076,85.7488705" id="Fill-1" fill="#545454"></path>
                    <path d="M92.0222476,87.6030834 C91.1541268,89.3943346 91.5187937,91.3634599 92.8369085,92.0011762 C94.1550233,92.6388122 95.9273863,91.7036501 96.7955874,89.9123187 C97.6637884,88.1210675 97.2990413,86.1519422 95.9809265,85.5142259 C94.6628117,84.8765899 92.8904486,85.811752 92.0222476,87.6030834" id="Fill-3" fill="#FC99FF"></path>
                    <path d="M34.7091785,116.769411 C33.0336212,120.226567 33.7375094,124.026881 36.2814284,125.257564 C38.8252671,126.488248 42.245976,124.683443 43.9216137,121.226207 C45.5972513,117.76913 44.8932828,113.968816 42.3494441,112.738053 C39.8054449,111.507369 36.3848965,113.312334 34.7091785,116.769411" id="Fill-5" fill="#545454"></path>
                    <path d="M38.3638988,118.623623 C37.4956977,120.414955 37.8604449,122.38408 39.1784794,123.021716 C40.4965942,123.659352 42.2689573,122.72419 43.1372386,120.932939 C44.0054397,119.141607 43.6406925,117.172482 42.3225777,116.534846 C41.0044629,115.89713 39.2320998,116.832372 38.3638988,118.623623" id="Fill-7" fill="#FC99FF"></path>
                    <polygon id="Fill-9" fill="#AA02AF" points="5.8585189 98.4578525 8.31093001 103.464069 9.87764119 104.367714 12.8256397 94.4391656"></polygon>
                    <polygon id="Fill-11" fill="#ACACAC" points="7.42519797 99.3615378 9.87768935 104.367755 11.9735408 103.158885 14.392399 95.3428509"></polygon>
                    <polygon id="Fill-13" fill="#920B99" points="36.3213226 116.029324 38.773814 121.035541 40.4983361 122.030209 43.2885236 112.010557"></polygon>
                    <path d="M6.76853263,100.519997 C5.09289497,103.977073 5.79686347,107.777387 8.34070218,109.008151 C10.8846212,110.238754 14.3053301,108.433949 15.9809677,104.976793 C17.6566054,101.519636 16.9526369,97.7193223 14.4087982,96.4885588 C11.8647989,95.2579557 8.44417029,97.0628402 6.76853263,100.519997" id="Fill-15" fill="#545454"></path>
                    <path d="M10.4232529,102.374202 C9.55505184,104.165453 9.91979902,106.134578 11.2378335,106.772214 C12.5559483,107.40993 14.3283114,106.474768 15.1965927,104.683437 C16.0647135,102.892105 15.7000466,100.92306 14.3819318,100.285344 C13.063817,99.6477081 11.2913737,100.58287 10.4232529,102.374202" id="Fill-17" fill="#FC99FF"></path>
                    <g id="Group-21" transform="translate(0.000000, 0.057741)">
                        <mask id="mask-2" fill="white">
                            <use xlink:href="#path-1"></use>
                        </mask>
                        <g id="Clip-20"></g>
                        <path d="M54.3768381,57.7144175 L61.2041284,55.4945203 L61.2041284,61.972649 L54.3768381,65.9940625 L54.3768381,57.7144175 Z M61.0520969,53.0227283 L54.3768381,55.216562 L54.3768381,44.2087394 L61.0520969,40.3583031 L61.0520969,53.0227283 Z M61.0520969,38.2512412 L54.3768381,42.1015973 L54.3768381,33.4131948 L61.0520969,29.5628387 L61.0520969,38.2512412 Z M61.0520969,27.4556164 L54.3768381,31.3060527 L54.3768381,22.6175701 L61.0520969,18.7672942 L61.0520969,27.4556164 Z M52.5270144,55.8244454 L45.8519161,58.0181187 L45.8519161,49.1260993 L52.5270144,45.2757432 L52.5270144,55.8244454 Z M52.5270144,43.1686011 L45.8519161,47.0189572 L45.8519161,38.330635 L52.5270144,34.4801987 L52.5270144,43.1686011 Z M52.5270144,32.3730566 L45.8519161,36.2234127 L45.8519161,27.5350102 L52.5270144,23.6846541 L52.5270144,32.3730566 Z M44.0099589,58.623516 L37.3346198,60.8171091 L37.3346198,54.0389683 L44.0099589,50.188532 L44.0099589,58.623516 Z M44.0099589,48.0813899 L37.3346198,51.9318262 L37.3346198,43.2434237 L44.0099589,39.3929874 L44.0099589,48.0813899 Z M44.0099589,37.2859255 L37.3346198,41.1362816 L37.3346198,32.447799 L44.0099589,28.5975231 L44.0099589,37.2859255 Z M35.4928231,61.4225065 L28.8175643,63.6162599 L28.8175643,58.9517571 L35.4928231,55.101401 L35.4928231,61.4225065 Z M35.4928231,52.9943391 L28.8175643,56.844615 L28.8175643,48.1562125 L35.4928231,44.3058564 L35.4928231,52.9943391 Z M35.4928231,42.1987143 L28.8175643,46.0490704 L28.8175643,37.3606679 L35.4928231,33.5103118 L35.4928231,42.1987143 Z M26.9756071,64.2215771 L20.3003482,66.4152504 L20.3003482,63.864626 L26.9756071,60.0142699 L26.9756071,64.2215771 Z M26.9756071,57.9070476 L20.3003482,61.7574839 L20.3003482,53.0690815 L26.9756071,49.2186452 L26.9756071,57.9070476 Z M26.9756071,47.1115833 L20.3003482,50.9619394 L20.3003482,42.2735369 L26.9756071,38.4231006 L26.9756071,47.1115833 Z M18.4584713,67.0205675 L11.7832125,69.214321 L11.7832125,68.7774148 L18.4584713,64.9270587 L18.4584713,67.0205675 Z M18.4584713,62.8199166 L11.7832125,66.6703529 L11.7832125,57.9818702 L18.4584713,54.1315141 L18.4584713,62.8199166 Z M18.4584713,52.0244522 L11.7832125,55.8748083 L11.7832125,47.1864058 L18.4584713,43.3359696 L18.4584713,52.0244522 Z M9.94125521,67.7327856 L3.2659964,71.5832218 L3.2659964,62.8947392 L9.94125521,59.0443831 L9.94125521,67.7327856 Z M9.94125521,56.937241 L3.2659964,60.7875971 L3.2659964,52.0991144 L9.94125521,48.2488385 L9.94125521,56.937241 Z M52.5286198,58.315324 L52.5286198,67.082639 L5.85855904,94.5723627 L5.85855904,98.4001036 L64.3409221,64.6666632 L64.3409221,54.4745913 L64.3409221,9.54903869 L74.8108681,3.50990128 L74.8108681,1.48608251 C74.8108681,0.361016996 73.5918066,-0.342138928 72.6165253,0.220353733 L61.0122027,6.91396828 L61.0122027,15.85202 L-3.2108027e-05,51.0448617 L-3.2108027e-05,75.3951642 L52.5286198,58.315324 Z" id="Fill-19" fill="#FC99FF" mask="url(#mask-2)"></path>
                    </g>
                    <path d="M55.9435894,58.675932 L62.7708797,56.4559545 L62.7708797,62.9341634 L55.9435894,66.9554967 L55.9435894,58.675932 Z M62.6188482,53.9841625 L55.9435894,56.1779962 L55.9435894,45.1701736 L62.6188482,41.3197373 L62.6188482,53.9841625 Z M62.6188482,39.2126754 L55.9435894,43.0630315 L55.9435894,34.3747092 L62.6188482,30.5242729 L62.6188482,39.2126754 Z M62.6188482,28.4170506 L55.9435894,32.2674869 L55.9435894,23.5790043 L62.6188482,19.7287284 L62.6188482,28.4170506 Z M54.0936854,56.7859598 L47.4186674,58.9795529 L47.4186674,50.0875335 L54.0936854,46.2371774 L54.0936854,56.7859598 Z M54.0936854,44.1300353 L47.4186674,47.9804716 L47.4186674,39.2920692 L54.0936854,35.4416329 L54.0936854,44.1300353 Z M54.0936854,33.334571 L47.4186674,37.1849271 L47.4186674,28.4964444 L54.0936854,24.6460883 L54.0936854,33.334571 Z M45.5766299,59.5849502 L38.9012908,61.7786235 L38.9012908,55.0004025 L45.5766299,51.1499662 L45.5766299,59.5849502 Z M45.5766299,49.0428241 L38.9012908,52.8933406 L38.9012908,44.2048579 L45.5766299,40.3544216 L45.5766299,49.0428241 Z M45.5766299,38.2473597 L38.9012908,42.0977158 L38.9012908,33.4093134 L45.5766299,29.5589573 L45.5766299,38.2473597 Z M37.0595744,62.3839407 L30.3843156,64.5776941 L30.3843156,59.9131913 L37.0595744,56.0628352 L37.0595744,62.3839407 Z M37.0595744,53.9557733 L30.3843156,57.8061294 L30.3843156,49.1176467 L37.0595744,45.2672906 L37.0595744,53.9557733 Z M37.0595744,43.1601485 L30.3843156,47.0105046 L30.3843156,38.3221021 L37.0595744,34.471746 L37.0595744,43.1601485 Z M28.5423584,65.1830113 L21.8670193,67.3766846 L21.8670193,64.8260602 L28.5423584,60.9757041 L28.5423584,65.1830113 Z M28.5423584,58.868562 L21.8670193,62.7189181 L21.8670193,54.0305157 L28.5423584,50.1801596 L28.5423584,58.868562 Z M28.5423584,48.0730175 L21.8670193,51.9234538 L21.8670193,43.2349711 L28.5423584,39.3845348 L28.5423584,48.0730175 Z M20.0252226,67.9820819 L13.3499638,70.1757552 L13.3499638,69.738849 L20.0252226,65.8885731 L20.0252226,67.9820819 Z M20.0252226,63.7813508 L13.3499638,67.6317871 L13.3499638,58.9433846 L20.0252226,55.0929483 L20.0252226,63.7813508 Z M20.0252226,52.9858864 L13.3499638,56.8362425 L13.3499638,48.1478401 L20.0252226,44.2974038 L20.0252226,52.9858864 Z M11.5079263,68.6942198 L4.83274771,72.5446561 L4.83274771,63.8561734 L11.5079263,60.0058173 L11.5079263,68.6942198 Z M11.5079263,57.8986752 L4.83274771,61.7490313 L4.83274771,53.0605486 L11.5079263,49.2102727 L11.5079263,57.8986752 Z M54.0952908,59.2767582 L54.0952908,68.0440732 L7.42523008,95.5337969 L7.42523008,99.3615378 L65.9076734,65.6280974 L65.9076734,55.4361057 L65.9076734,10.5104729 L76.3775392,4.47133548 L76.3775392,2.44751672 C76.3775392,1.3225314 75.1585579,0.619295278 74.1832766,1.18186813 L62.578954,7.87540249 L62.578954,16.8135344 L1.5667192,52.0062959 L1.5667192,76.3565984 L54.0952908,59.2767582 Z" id="Fill-22" fill="#AA02AF"></path>
                    <path d="M76.3880786,2.27038847 L102.730708,17.4652287 C103.752225,18.0544265 104.077078,19.3750894 103.445192,20.3702379 C102.849508,21.3084474 101.619289,21.6104644 100.656208,21.0548686 L74.3136593,5.86018873 C73.280744,5.26433465 72.9622324,3.92314171 73.6170756,2.92727147 C74.2206263,2.00943165 75.4361559,1.7212083 76.3880786,2.27038847" id="Fill-24" fill="#FDE51C"></path>
                    <polygon id="Fill-26" fill="#FDE51C" points="5.61890473e-05 75.4528891 65.9153473 54.5858067 95.7330284 70.7430756 30.6207591 93.1153511"></polygon>
                    <path d="M3.40220668,54.3986941 L8.98065529,57.6165467 L8.98065529,66.1763955 L3.40220668,62.9586231 L3.40220668,54.3986941 Z M3.40220668,65.6636241 L8.98065529,68.8814767 L8.98065529,76.2845827 L3.40220668,73.0668905 L3.40220668,65.6636241 Z M10.9914205,58.7762568 L16.5698691,61.9940292 L16.5698691,70.5539581 L10.9914205,67.3361857 L10.9914205,58.7762568 Z M10.9914205,70.0411868 L16.5698691,73.2589592 L16.5698691,80.6622255 L10.9914205,77.4444531 L10.9914205,70.0411868 Z M18.580554,63.1538996 L24.1590829,66.3715918 L24.1590829,74.9315208 L18.580554,71.7137484 L18.580554,63.1538996 Z M18.580554,74.4188296 L24.1590829,77.6365218 L24.1590829,85.0397882 L18.580554,81.8220158 L18.580554,74.4188296 Z M26.1697678,67.5313821 L31.7482967,70.7491545 L31.7482967,79.3090834 L26.1697678,76.091311 L26.1697678,67.5313821 Z M26.1697678,78.7963121 L31.7482967,82.0140845 L31.7482967,89.4173508 L26.1697678,86.1995784 L26.1697678,78.7963121 Z M1.4815045,50.2480051 L1.4815045,74.5983076 L33.6689186,93.1645752 L33.6689186,68.8142727 L1.4815045,50.2480051 Z" id="Fill-28" fill="#FC99FF"></path>
                    <path d="M84.9975972,75.4347167 L91.8248875,73.2147393 L91.8248875,79.6929482 L84.9975972,83.7142815 L84.9975972,75.4347167 Z M91.672856,70.7430275 L84.9975972,72.936781 L84.9975972,61.9289584 L91.672856,58.0785221 L91.672856,70.7430275 Z M91.672856,55.9714602 L84.9975972,59.8218163 L84.9975972,51.133494 L91.672856,47.2830577 L91.672856,55.9714602 Z M91.672856,45.1759156 L84.9975972,49.0262717 L84.9975972,40.337789 L91.672856,36.4875131 L91.672856,45.1759156 Z M83.1476932,73.5447446 L76.4726752,75.7383377 L76.4726752,66.8463183 L83.1476932,62.9959622 L83.1476932,73.5447446 Z M83.1476932,60.8888201 L76.4726752,64.7392564 L76.4726752,56.0508539 L83.1476932,52.2004176 L83.1476932,60.8888201 Z M83.1476932,50.0932755 L76.4726752,53.9437118 L76.4726752,45.2552292 L83.1476932,41.4048731 L83.1476932,50.0932755 Z M74.6306377,76.343735 L67.9552986,78.5374083 L67.9552986,71.7591873 L74.6306377,67.908751 L74.6306377,76.343735 Z M74.6306377,65.8016891 L67.9552986,69.6520452 L67.9552986,60.9636427 L74.6306377,57.1132866 L74.6306377,65.8016891 Z M74.6306377,55.0061445 L67.9552986,58.8565006 L67.9552986,50.1680981 L74.6306377,46.317742 L74.6306377,55.0061445 Z M66.1135822,79.1427254 L59.4383234,81.3364789 L59.4383234,76.671976 L66.1135822,72.8216199 L66.1135822,79.1427254 Z M66.1135822,70.714558 L59.4383234,74.5649141 L59.4383234,65.8764315 L66.1135822,62.0260754 L66.1135822,70.714558 Z M66.1135822,59.9189333 L59.4383234,63.7692894 L59.4383234,55.0808869 L66.1135822,51.230611 L66.1135822,59.9189333 Z M57.5962859,81.9417961 L50.9210271,84.1354693 L50.9210271,81.584845 L57.5962859,77.7344889 L57.5962859,81.9417961 Z M57.5962859,75.6272666 L50.9210271,79.4777029 L50.9210271,70.7893004 L57.5962859,66.9389443 L57.5962859,75.6272666 Z M57.5962859,64.8318022 L50.9210271,68.6822385 L50.9210271,59.9937559 L57.5962859,56.1433196 L57.5962859,64.8318022 Z M49.0792304,84.7408667 L42.4039716,86.9345399 L42.4039716,86.4976338 L49.0792304,82.6473579 L49.0792304,84.7408667 Z M49.0792304,80.5401356 L42.4039716,84.3905719 L42.4039716,75.7021694 L49.0792304,71.8517331 L49.0792304,80.5401356 Z M49.0792304,69.7446712 L42.4039716,73.5950273 L42.4039716,64.9066248 L49.0792304,61.0561885 L49.0792304,69.7446712 Z M40.5619341,85.4530045 L33.8866752,89.3034408 L33.8866752,80.6149582 L40.5619341,76.7646021 L40.5619341,85.4530045 Z M40.5619341,74.65746 L33.8866752,78.5078161 L33.8866752,69.8194136 L40.5619341,65.9690575 L40.5619341,74.65746 Z M83.1492986,76.0356231 L83.1492986,84.802858 L36.4792379,112.292582 L36.4792379,116.120323 L94.961601,82.3868822 L94.961601,72.1948103 L94.961601,27.2692577 L105.431547,21.2301203 L105.431547,19.0536089 C105.431547,17.9963889 104.286093,17.3356565 103.36973,17.8642264 L91.6328815,24.6341873 L91.6328815,33.5722389 L30.620727,68.7650807 L30.620727,93.1153832 L83.1492986,76.0356231 Z" id="Fill-30" fill="#FC99FF"></path>
                    <path d="M86.5642683,76.33841 L93.3915586,74.1184326 L93.3915586,80.5966415 L86.5642683,84.6179748 L86.5642683,76.33841 Z M93.2395271,71.6467208 L86.5642683,73.8404743 L86.5642683,62.8326517 L93.2395271,58.9822154 L93.2395271,71.6467208 Z M93.2395271,56.8751535 L86.5642683,60.7255096 L86.5642683,52.0371873 L93.2395271,48.186751 L93.2395271,56.8751535 Z M93.2395271,46.0796089 L86.5642683,49.929965 L86.5642683,41.2414823 L93.2395271,37.3912064 L93.2395271,46.0796089 Z M84.7144446,74.4484379 L78.0393463,76.6421111 L78.0393463,67.7500116 L84.7144446,63.8996555 L84.7144446,74.4484379 Z M84.7144446,61.7925936 L78.0393463,65.6429497 L78.0393463,56.9545472 L84.7144446,53.1041109 L84.7144446,61.7925936 Z M84.7144446,50.997049 L78.0393463,54.8474051 L78.0393463,46.1589225 L84.7144446,42.3085664 L84.7144446,50.997049 Z M76.197389,77.2474283 L69.52205,79.4411016 L69.52205,72.6628806 L76.197389,68.8124443 L76.197389,77.2474283 Z M76.197389,66.7053824 L69.52205,70.5558187 L69.52205,61.867336 L76.197389,58.0169799 L76.197389,66.7053824 Z M76.197389,55.909918 L69.52205,59.7601939 L69.52205,51.0717914 L76.197389,47.2214353 L76.197389,55.909918 Z M67.6802533,80.0464187 L61.0049944,82.2401722 L61.0049944,77.5756693 L67.6802533,73.7253132 L67.6802533,80.0464187 Z M67.6802533,71.6182513 L61.0049944,75.4686074 L61.0049944,66.7801248 L67.6802533,62.9297687 L67.6802533,71.6182513 Z M67.6802533,60.8226266 L61.0049944,64.6729827 L61.0049944,55.9846604 L67.6802533,52.1343043 L67.6802533,60.8226266 Z M59.1630372,82.8454894 L52.4877784,85.0391626 L52.4877784,82.4885383 L59.1630372,78.6381822 L59.1630372,82.8454894 Z M59.1630372,76.5310401 L52.4877784,80.3813962 L52.4877784,71.6929937 L59.1630372,67.8426376 L59.1630372,76.5310401 Z M59.1630372,65.7354955 L52.4877784,69.5859318 L52.4877784,60.8974492 L59.1630372,57.0470129 L59.1630372,65.7354955 Z M50.6459014,85.64456 L43.9706426,87.8382332 L43.9706426,87.4013271 L50.6459014,83.5510512 L50.6459014,85.64456 Z M50.6459014,81.4439091 L43.9706426,85.2942652 L43.9706426,76.6058627 L50.6459014,72.7554264 L50.6459014,81.4439091 Z M50.6459014,70.6483645 L43.9706426,74.4988008 L43.9706426,65.8103983 L50.6459014,61.959962 L50.6459014,70.6483645 Z M42.1286854,86.3566978 L35.4534266,90.2071341 L35.4534266,81.5187317 L42.1286854,77.6682954 L42.1286854,86.3566978 Z M42.1286854,75.5611533 L35.4534266,79.4115094 L35.4534266,70.7231069 L42.1286854,66.8727508 L42.1286854,75.5611533 Z M84.71605,76.9393164 L84.71605,85.7065513 L38.0459089,113.196275 L38.0459089,117.024096 L96.5283523,83.2905755 L96.5283523,73.0985838 L96.5283523,28.1730312 L105.501021,22.9974411 C106.427498,22.4630169 106.998298,21.4754068 106.998298,20.4065585 L106.998298,19.9573022 C106.998298,18.9000822 105.852844,18.2393498 104.936401,18.7679999 L93.1996329,25.5378806 L93.1996329,34.4760124 L32.187398,69.668774 L32.187398,94.0190765 L84.71605,76.9393164 Z" id="Fill-32" fill="#AA02AF"></path>
                    <path d="M1.92066204,55.2532836 L7.49919092,58.471056 L7.49919092,67.0309047 L1.92066204,63.8131324 L1.92066204,55.2532836 Z M1.92066204,66.5182136 L7.49919092,69.735986 L7.49919092,77.1391721 L1.92066204,73.9213997 L1.92066204,66.5182136 Z M9.50987584,59.6308462 L15.0884047,62.8486186 L15.0884047,71.4084674 L9.50987584,68.1907752 L9.50987584,59.6308462 Z M9.50987584,70.8957763 L15.0884047,74.1135486 L15.0884047,81.5167348 L9.50987584,78.2989624 L9.50987584,70.8957763 Z M17.0990896,64.0084089 L22.6776185,67.2261813 L22.6776185,75.78603 L17.0990896,72.5683378 L17.0990896,64.0084089 Z M17.0990896,75.2733389 L22.6776185,78.4911113 L22.6776185,85.8942974 L17.0990896,82.6766052 L17.0990896,75.2733389 Z M24.6883035,68.3859715 L30.2667521,71.6037439 L30.2667521,80.1636729 L24.6883035,76.9459005 L24.6883035,68.3859715 Z M24.6883035,79.6509016 L30.2667521,82.8686739 L30.2667521,90.2718601 L24.6883035,87.0540877 L24.6883035,79.6509016 Z M4.01350338e-05,51.1025946 L4.01350338e-05,75.4528971 L32.1874542,94.0190845 L32.1874542,69.668782 L4.01350338e-05,51.1025946 Z" id="Fill-34" fill="#FF2FF3"></path>
                    <polygon id="Fill-36" fill="#FF2FF3" points="38.0458768 113.196243 5.85854299 94.6300555 5.85854299 98.4578766 38.0458768 117.024064"></polygon>
                    <polygon id="Fill-38" fill="#FC99FF" points="38.0458768 111.369754 38.0458768 113.196211 5.85854299 94.6301036 9.02503661 94.6301036"></polygon>
                    <polygon id="Fill-40" fill="#920B99" points="96.5283443 83.2906076 96.5283443 89.711236 94.9263143 90.6353311 90.7878304 86.601808"></polygon>
                    <polygon id="Fill-42" fill="#920B99" points="38.0458768 117.024096 40.4983682 122.030233 42.5942197 120.821363 45.0130779 113.005329"></polygon>
                </g>
            </g>
        </g>
    </g>
</svg>