<?xml version="1.0" encoding="UTF-8"?>
<svg width="67px" height="139px" viewBox="0 0 67 139" version="1.1" xmlns="http://www.w3.org/2000/svg" xmlns:xlink="http://www.w3.org/1999/xlink">
    <!-- Generator: Sketch 47 (45396) - http://www.bohemiancoding.com/sketch -->
    <title>Group 15</title>
    <desc>Created with Sketch.</desc>
    <defs>
        <polygon id="path-1" points="57.5489496 83.2902011 57.5489496 0.000881327223 0.0370474385 0.000881327223 0.0370474385 83.2902011 57.5489496 83.2902011"></polygon>
    </defs>
    <g id="Page-1" stroke="none" stroke-width="1" fill="none" fill-rule="evenodd">
        <g id="Lalaland_1" transform="translate(-538.000000, -3871.000000)">
            <g id="Group-15" transform="translate(538.000000, 3871.000000)">
                <g id="Page-1">
                    <path d="M13.6301889,122.351791 C15.7262147,119.379272 19.6919802,117.062265 24.5687158,116.011414 C25.4972963,115.811346 26.4591113,115.657838 27.4471431,115.553854 C28.4304083,115.450434 29.4388311,115.394702 30.4680419,115.394702 C31.5144659,115.394702 32.5397046,115.452268 33.5385939,115.559215 C34.5267582,115.665034 35.4887056,115.819812 36.4170212,116.021855 C41.2709826,117.077785 45.2168868,119.389289 47.3057625,122.351791 L48.9282957,122.351791 L48.9282957,127.19702 C48.9282957,132.383972 43.6923359,136.786032 36.4170212,138.36908 C35.4884407,138.571124 34.5272878,138.727594 33.5385939,138.833413 C32.5395721,138.940502 31.5145983,138.999055 30.4680419,138.999055 C29.4388311,138.999055 28.4305407,138.942759 27.4471431,138.839198 C26.4587141,138.735072 25.4976935,138.580295 24.5687158,138.379944 C17.2675815,136.806208 12.0075234,132.395824 12.0075234,127.19702 L12.0075234,122.351791 L13.6301889,122.351791 Z" id="Fill-1" fill="#AA02AF"></path>
                    <path d="M12.0076028,122.351791 C12.0076028,128.869943 20.2725383,134.153967 30.4678566,134.153967 C40.6633072,134.153967 48.9282427,128.869943 48.9282427,122.351791 C48.9282427,115.833639 40.6633072,110.549615 30.4678566,110.549615 C20.2725383,110.549615 12.0076028,115.833639 12.0076028,122.351791" id="Fill-3" fill="#FF2FF3"></path>
                    <polygon id="Fill-5" fill="#AA02AF" points="29.6832602 104.598301 35.151994 101.233829 58.6305281 73.9189073 30.9313423 72.8405438"></polygon>
                    <polygon id="Fill-7" fill="#FF2FF3" points="7.3599502 61.1558547 29.6832205 104.598258 51.2223679 80.316384 25.4625687 76.2049731"></polygon>
                    <g id="Group-11" transform="translate(8.738958, 0.140245)">
                        <mask id="mask-2" fill="white">
                            <use xlink:href="#path-1"></use>
                        </mask>
                        <g id="Clip-10"></g>
                        <path d="M37.3732252,81.836816 C25.028653,82.3482732 15.4571109,68.8508808 7.72207407,51.0477943 C-0.0145516887,33.2411805 -3.48087251,16.721887 4.86893678,7.00758527 L4.25932827,5.60400546 L9.83385645,2.52933605 C10.227904,2.29625263 10.6308229,2.07671401 11.04354,1.87269547 C24.6405638,-4.84877003 43.2235602,7.10324542 52.549617,28.5682248 C61.8758062,50.0332042 56.4877091,66.5512279 49.8915174,73.7786481 L38.0045487,83.2902011 L37.3732252,81.836816 Z" id="Fill-9" fill="#AA02AF" mask="url(#mask-2)"></path>
                    </g>
                    <g id="Group-14" transform="translate(0.000000, 3.808628)" fill="#FF2FF3">
                        <path d="M12.9706921,1.89034604 C-0.626331693,8.61181153 -4.08868026,31.4613234 5.23737653,52.9263028 C10.982844,66.1499773 20.2415049,75.7632575 29.6832867,79.6240896 C35.5675182,82.0304078 41.5229855,82.2025396 46.7434535,79.6218321 C60.3404773,72.9005077 63.8028258,50.0508548 54.476769,28.5858754 C45.1507122,7.12089598 26.5677159,-4.83111946 12.9706921,1.89034604" id="Fill-12"></path>
                    </g>
                    <path d="M16.7529395,14.38603 C6.17919784,19.6129115 3.486672,37.3818539 10.7392125,54.0741257 C17.9914881,70.7665387 32.4425464,80.0609517 43.0164204,74.8340701 C53.5900296,69.6071886 56.2825555,51.8381051 49.0301474,35.1458333 C41.7777394,18.4535614 27.3266811,9.15900731 16.7529395,14.38603" id="Fill-15" fill="#FFFFFF"></path>
                </g>
            </g>
        </g>
    </g>
</svg>