<svg width="318" height="287" viewBox="0 0 318 287" xmlns="http://www.w3.org/2000/svg"><title>Group 4</title><g fill="none" fill-rule="evenodd"><path fill="#000" opacity=".107" d="M126.511 206.63l-18.263 79.293 126.946.676 9.592-7.622 38.236.268 34.837-37.714-6.474-26.793-43.215 1.058-10.176-10.654z"/><path fill="#E6FFF3" d="M5.575 237.954l26.312 15.17v-41.966l26.236 15.126v42.085l26.99 15.56V145.562L5.575 99.706z"/><path fill="#DAEDEC" d="M5.575 99.706l79.538 45.855 8.757-5.048-79.538-45.856z"/><path fill="#E6FFF3" d="M80.6 50.815L27.068 19.951v40.816l-12.735-7.342v41.232l79.538 45.856V99.28l-13.27-7.65zM0 224.53l5.575 3.214V99.706L0 96.492z"/><path fill="#DAEDEC" d="M27.067 60.767V46.083l-12.735 7.342zM0 96.492l5.575 3.214 8.757-5.049V88.23zm80.6-4.862l13.27 7.651 34.606-19.952-13.269-7.65zM61.673 0L27.067 19.95 80.6 50.815l34.606-19.951z"/><path fill="#DAEDEC" d="M49.251 14.652L75.95 30.044l17.506-10.092L66.757 4.56z"/><path fill="#E6FFF3" d="M49.251 23.002L75.95 38.393v-8.349l-26.7-15.392z"/><path fill="#8FB6B6" d="M75.949 38.394L93.455 28.3v-8.35L75.949 30.044zM80.6 91.63l34.607-19.95V30.863L80.601 50.815zm13.27 48.883l34.606-19.952V79.329L93.87 99.281zm-8.757 143.416l52.536-30.289V115.273l-52.536 30.289z"/><path fill="#DAEDEC" d="M128.476 120.561l9.173-5.288-9.173-5.288zM93.207 151.61l13.736 7.92 35.27-20.334-13.737-7.92z"/><path fill="#E6FFF3" d="M93.207 279.262l13.736 7.634V159.529l-13.736-7.919z"/><path fill="#8FB6B6" d="M106.943 159.53v127.366l35.269-20.334V139.196zm-75.056 93.594l7.127-4.109v-33.748l-7.127-4.11z"/><path fill="#1EB476" d="M39.014 249.015l19.11 11.017v-33.748l-19.11-11.017zM11.04 100.224l18.52 10.678 6.474-3.733-18.52-10.677zm24.572 14.167l18.52 10.677 6.475-3.732-18.52-10.678zm24.573 14.167l18.52 10.677 6.474-3.733-18.52-10.677z"/></g></svg>