<svg width="67" height="139" viewBox="0 0 67 139" xmlns="http://www.w3.org/2000/svg" xmlns:xlink="http://www.w3.org/1999/xlink"><title>Group 15</title><defs><path id="a" d="M57.549 83.29V0H.037v83.29h57.512z"/></defs><g fill="none" fill-rule="evenodd"><path d="M13.63 122.352c2.096-2.973 6.062-5.29 10.939-6.34.928-.2 1.89-.354 2.878-.458a28.877 28.877 0 0 1 6.092.005c.988.106 1.95.26 2.878.463 4.854 1.056 8.8 3.367 10.889 6.33h1.622v4.845c0 5.187-5.236 9.589-12.511 11.172-.929.202-1.89.359-2.878.464a28.804 28.804 0 0 1-6.092.006 27.146 27.146 0 0 1-2.878-.46c-7.301-1.573-12.561-5.983-12.561-11.182v-4.845h1.622z" fill="#AA02AF"/><path d="M12.008 122.352c0 6.518 8.265 11.802 18.46 11.802s18.46-5.284 18.46-11.802-8.265-11.802-18.46-11.802-18.46 5.284-18.46 11.802" fill="#FF2FF3"/><path fill="#AA02AF" d="M29.683 104.598l5.469-3.364 23.479-27.315-27.7-1.078z"/><path fill="#FF2FF3" d="M7.36 61.156l22.323 43.442 21.54-24.282-25.76-4.111z"/><g transform="translate(8.739 .14)"><mask id="b" fill="#fff"><use xlink:href="#a"/></mask><path d="M37.373 81.837c-12.344.511-21.916-12.986-29.65-30.79C-.016 33.242-3.482 16.723 4.868 7.008l-.61-1.403L9.833 2.53c.394-.233.797-.452 1.21-.656C24.64-4.85 43.224 7.103 52.55 28.568s3.938 37.983-2.658 45.21L38.005 83.29l-.632-1.453z" fill="#AA02AF" mask="url(#b)"/></g><path d="M12.97 5.699C-.625 12.42-4.088 35.27 5.238 56.735c5.746 13.224 15.005 22.837 24.446 26.698 5.885 2.406 11.84 2.578 17.06-.003 13.597-6.72 17.06-29.57 7.734-51.035C45.15 10.93 26.567-1.022 12.97 5.699" fill="#FF2FF3"/><path d="M16.753 14.386C6.179 19.613 3.487 37.382 10.739 54.074c7.252 16.693 21.704 25.987 32.277 20.76 10.574-5.227 13.267-22.996 6.014-39.688-7.252-16.692-21.703-25.987-32.277-20.76" fill="#FFF"/></g></svg>