<svg width="107" height="126" viewBox="0 0 107 126" xmlns="http://www.w3.org/2000/svg" xmlns:xlink="http://www.w3.org/1999/xlink"><title>Group 17</title><defs><path id="a" d="M74.81.022H0V98.4h74.81V.022z"/></defs><g fill="none" fill-rule="evenodd"><path d="M88.368 85.749c-1.676 3.457-.972 7.257 1.572 8.488 2.544 1.23 5.964-.574 7.64-4.031 1.676-3.457.972-7.258-1.572-8.488-2.544-1.231-5.965.574-7.64 4.03" fill="#545454"/><path d="M92.022 87.603c-.868 1.791-.503 3.76.815 4.398 1.318.638 3.09-.297 3.959-2.089.868-1.79.503-3.76-.815-4.398-1.318-.637-3.09.298-3.959 2.09" fill="#FC99FF"/><path d="M34.71 116.77c-1.676 3.457-.972 7.257 1.571 8.488 2.544 1.23 5.965-.575 7.64-4.032 1.676-3.457.972-7.257-1.572-8.488-2.544-1.23-5.964.574-7.64 4.031" fill="#545454"/><path d="M38.364 118.624c-.868 1.791-.504 3.76.814 4.398 1.319.637 3.091-.298 3.96-2.09.867-1.79.503-3.76-.815-4.397-1.319-.638-3.09.297-3.96 2.089" fill="#FC99FF"/><path fill="#AA02AF" d="M5.859 98.458l2.452 5.006 1.567.904 2.948-9.929z"/><path fill="#ACACAC" d="M7.425 99.362l2.453 5.006 2.096-1.21 2.418-7.815z"/><path fill="#920B99" d="M36.321 116.03l2.453 5.006 1.724.994 2.79-10.02z"/><path d="M6.769 100.52c-1.676 3.457-.972 7.257 1.572 8.488 2.544 1.23 5.964-.574 7.64-4.031 1.676-3.457.972-7.258-1.572-8.488-2.544-1.231-5.965.574-7.64 4.031" fill="#545454"/><path d="M10.423 102.374c-.868 1.791-.503 3.76.815 4.398 1.318.638 3.09-.297 3.959-2.089.868-1.79.503-3.76-.815-4.398-1.318-.637-3.09.298-3.959 2.09" fill="#FC99FF"/><g transform="translate(0 .058)"><mask id="b" fill="#fff"><use xlink:href="#a"/></mask><path d="M54.377 57.714l6.827-2.22v6.479l-6.827 4.021v-8.28zm6.675-4.691l-6.675 2.194V44.209l6.675-3.85v12.664zm0-14.772l-6.675 3.85v-8.688l6.675-3.85v8.688zm0-10.795l-6.675 3.85v-8.688l6.675-3.85v8.688zm-8.525 28.368l-6.675 2.194v-8.892l6.675-3.85v10.548zm0-12.655l-6.675 3.85v-8.688l6.675-3.85v8.688zm0-10.796l-6.675 3.85v-8.688l6.675-3.85v8.688zm-8.517 26.25l-6.675 2.194V54.04l6.675-3.85v8.435zm0-10.542l-6.675 3.85v-8.688l6.675-3.85v8.688zm0-10.795l-6.675 3.85v-8.688l6.675-3.85v8.688zm-8.517 24.137l-6.675 2.193v-4.664l6.675-3.85v6.32zm0-8.429l-6.675 3.85v-8.688l6.675-3.85v8.688zm0-10.795l-6.675 3.85v-8.688l6.675-3.85v8.688zm-8.517 22.023L20.3 66.415v-2.55l6.676-3.85v4.207zm0-6.315l-6.676 3.85V53.07l6.676-3.85v8.688zm0-10.795l-6.676 3.85v-8.688l6.676-3.85v8.688zM18.458 67.02l-6.675 2.193v-.437l6.675-3.85v2.094zm0-4.201l-6.675 3.85v-8.688l6.675-3.85v8.688zm0-10.796l-6.675 3.85v-8.688l6.675-3.85v8.688zm-8.517 15.71l-6.675 3.85v-8.688l6.675-3.85v8.688zm0-10.796l-6.675 3.85V52.1l6.675-3.85v8.688zm42.588 1.378v8.768l-46.67 27.49V98.4L64.34 64.667V9.549l10.47-6.04V1.487A1.463 1.463 0 0 0 72.617.22L61.012 6.914v8.938L0 51.045v24.35l52.529-17.08z" fill="#FC99FF" mask="url(#b)"/></g><path d="M55.944 58.676l6.827-2.22v6.478l-6.827 4.021v-8.28zm6.675-4.692l-6.675 2.194V45.17l6.675-3.85v12.664zm0-14.771l-6.675 3.85v-8.688l6.675-3.85v8.688zm0-10.796l-6.675 3.85V23.58l6.675-3.85v8.688zm-8.525 28.369l-6.675 2.194v-8.892l6.675-3.85v10.548zm0-12.656l-6.675 3.85v-8.688l6.675-3.85v8.688zm0-10.795l-6.675 3.85v-8.689l6.675-3.85v8.689zm-8.517 26.25L38.9 61.779V55l6.676-3.85v8.435zm0-10.542l-6.676 3.85v-8.688l6.676-3.85v8.688zm0-10.796l-6.676 3.85V33.41l6.676-3.85v8.688zM37.06 62.384l-6.676 2.194v-4.665l6.676-3.85v6.32zm0-8.428l-6.676 3.85v-8.688l6.676-3.85v8.688zm0-10.796l-6.676 3.85v-8.688l6.676-3.85v8.688zm-8.518 22.023l-6.675 2.194v-2.55l6.675-3.851v4.207zm0-6.314l-6.675 3.85V54.03l6.675-3.85v8.688zm0-10.796l-6.675 3.85v-8.688l6.675-3.85v8.688zm-8.517 19.91l-6.675 2.193v-.437l6.675-3.85v2.093zm0-4.202l-6.675 3.85v-8.688l6.675-3.85v8.688zm0-10.795l-6.675 3.85v-8.688l6.675-3.85v8.688zm-8.517 15.708l-6.675 3.85v-8.688l6.675-3.85v8.688zm0-10.795l-6.675 3.85v-8.688l6.675-3.85v8.688zm42.587 1.378v8.767l-46.67 27.49v3.828l58.483-33.734V10.51l10.47-6.039V2.448a1.463 1.463 0 0 0-2.195-1.266L62.58 7.875v8.939L1.567 52.006v24.35l52.528-17.08z" fill="#AA02AF"/><path d="M76.388 2.27l26.343 15.195a2.071 2.071 0 0 1 .714 2.905 2.075 2.075 0 0 1-2.789.685L74.314 5.86a2.072 2.072 0 0 1-.697-2.933 2.076 2.076 0 0 1 2.771-.657M0 75.453l65.915-20.867 29.818 16.157-65.112 22.372z" fill="#FDE51C"/><path d="M3.402 54.399l5.579 3.218v8.56l-5.579-3.218v-8.56zm0 11.265l5.579 3.217v7.404l-5.579-3.218v-7.403zm7.59-6.888l5.578 3.218v8.56l-5.579-3.218v-8.56zm0 11.265l5.578 3.218v7.403l-5.579-3.218v-7.403zm7.589-6.887l5.578 3.218v8.56l-5.578-3.218v-8.56zm0 11.265l5.578 3.218v7.403l-5.578-3.218v-7.403zm7.589-6.888l5.578 3.218v8.56l-5.578-3.218v-8.56zm0 11.265l5.578 3.218v7.403L26.17 86.2v-7.404zM1.482 50.248v24.35l32.187 18.567v-24.35L1.482 50.247z" fill="#FC99FF"/><path d="M84.998 75.435l6.827-2.22v6.478l-6.827 4.021v-8.28zm6.675-4.692l-6.675 2.194V61.929l6.675-3.85v12.664zm0-14.772l-6.675 3.85v-8.688l6.675-3.85v8.688zm0-10.795l-6.675 3.85v-8.688l6.675-3.85v8.688zm-8.525 28.369l-6.675 2.193v-8.892l6.675-3.85v10.549zm0-12.656l-6.675 3.85v-8.688l6.675-3.85v8.688zm0-10.796l-6.675 3.85v-8.688l6.675-3.85v8.688zm-8.517 26.25l-6.676 2.194V71.76l6.676-3.85v8.435zm0-10.541l-6.676 3.85v-8.688l6.676-3.85v8.688zm0-10.796l-6.676 3.85v-8.688l6.676-3.85v8.688zm-8.517 24.137l-6.676 2.193v-4.664l6.676-3.85v6.32zm0-8.428l-6.676 3.85v-8.689l6.676-3.85v8.689zm0-10.796l-6.676 3.85v-8.688l6.676-3.85v8.688zm-8.518 22.023l-6.675 2.193v-2.55l6.675-3.85v4.207zm0-6.315l-6.675 3.85V70.79l6.675-3.85v8.688zm0-10.795l-6.675 3.85v-8.688l6.675-3.85v8.688zM49.08 84.74l-6.675 2.194v-.437l6.675-3.85v2.093zm0-4.2l-6.675 3.85v-8.689l6.675-3.85v8.688zm0-10.796l-6.675 3.85v-8.688l6.675-3.85v8.688zm-8.517 15.708l-6.675 3.85v-8.688l6.675-3.85v8.688zm0-10.796l-6.675 3.85V69.82l6.675-3.85v8.688zm42.587 1.379v8.767l-46.67 27.49v3.827l58.483-33.733V27.269l10.47-6.039v-2.176a1.375 1.375 0 0 0-2.062-1.19l-11.737 6.77v8.938L30.62 68.765v24.35l52.528-17.08z" fill="#FC99FF"/><path d="M86.564 76.338l6.828-2.22v6.479l-6.828 4.021v-8.28zm6.676-4.691l-6.676 2.193V62.833l6.676-3.85v12.664zm0-14.772l-6.676 3.85v-8.688l6.676-3.85v8.688zm0-10.795l-6.676 3.85v-8.689l6.676-3.85v8.689zm-8.526 28.368l-6.675 2.194V67.75l6.675-3.85v10.548zm0-12.655l-6.675 3.85v-8.688l6.675-3.85v8.688zm0-10.796l-6.675 3.85V46.16l6.675-3.85v8.688zm-8.517 26.25l-6.675 2.194v-6.778l6.675-3.85v8.434zm0-10.542l-6.675 3.85v-8.688l6.675-3.85v8.688zm0-10.795l-6.675 3.85v-8.688l6.675-3.85v8.688zM67.68 80.046l-6.675 2.194v-4.664l6.675-3.85v6.32zm0-8.428l-6.675 3.85V66.78l6.675-3.85v8.688zm0-10.795l-6.675 3.85v-8.688l6.675-3.85v8.688zm-8.517 22.022l-6.675 2.194v-2.55l6.675-3.85v4.206zm0-6.314l-6.675 3.85v-8.688l6.675-3.85v8.688zm0-10.796l-6.675 3.85v-8.688l6.675-3.85v8.688zm-8.517 19.91l-6.675 2.193v-.437l6.675-3.85v2.094zm0-4.201l-6.675 3.85v-8.688l6.675-3.85v8.688zm0-10.796l-6.675 3.85V65.81l6.675-3.85v8.688zm-8.517 15.709l-6.676 3.85V81.52l6.676-3.85v8.688zm0-10.796l-6.676 3.85v-8.688l6.676-3.85v8.688zm42.587 1.378v8.768l-46.67 27.49v3.827l58.482-33.733V28.173l8.973-5.176a2.991 2.991 0 0 0 1.497-2.59v-.45a1.375 1.375 0 0 0-2.062-1.189L93.2 25.538v8.938L32.187 69.669v24.35l52.529-17.08z" fill="#AA02AF"/><path d="M1.92 55.253l5.58 3.218v8.56l-5.58-3.218v-8.56zm0 11.265l5.58 3.218v7.403l-5.58-3.218v-7.403zm7.59-6.887l5.578 3.218v8.56L9.51 68.19v-8.56zm0 11.265l5.578 3.218v7.403L9.51 78.299v-7.403zm7.59-6.888l5.578 3.218v8.56l-5.579-3.218v-8.56zm0 11.265l5.578 3.218v7.403l-5.579-3.217v-7.404zm7.588-6.887l5.579 3.218v8.56l-5.579-3.218v-8.56zm0 11.265l5.579 3.218v7.403l-5.579-3.218v-7.403zM0 51.103v24.35l32.187 18.566V69.67L0 51.103zm38.046 62.093L5.859 94.63v3.828l32.187 18.566z" fill="#FF2FF3"/><path fill="#FC99FF" d="M38.046 111.37v1.826L5.859 94.63h3.166z"/><path fill="#920B99" d="M96.528 83.29v6.421l-1.602.924-4.138-4.033zm-58.482 33.734l2.452 5.006 2.096-1.209 2.42-7.816z"/></g></svg>