<svg width="100" height="147" viewBox="0 0 100 147" xmlns="http://www.w3.org/2000/svg"><title>Group 12</title><g fill="none" fill-rule="evenodd"><path fill="#FF2FF3" d="M.881.112l98.992 57.63.127 88.378L.881 88.984z"/><path fill="#FFF" d="M79.676 86.475v-11.82l13.166 7.665.017 11.754zm0 16.94v-11.82l13.166 7.665.017 11.754zm0 16.94v-11.82l13.166 7.665.017 11.754z"/><path fill="#480087" d="M.881.112L99.87 57.17l.016 8.98L.766 9.014z"/><path fill="#FDE51C" d="M99.885 66.15l.017 8.98L.782 17.994l.115-8.901z"/><path fill="#FFF" d="M81.619 62.365l.052-4.048 15.866 9.144.008 4.084z"/><path fill="#C6C6C6" d="M2.232 8.413l.076-5.894 4.796 2.764.008 5.943z"/><path fill="#FFF" d="M8.348 11.938l.076-5.894 4.795 2.764.009 5.943zm6.115 3.525l.076-5.894 4.796 2.764.008 5.943z"/><path fill="#FF2FF3" d="M14.74 80.43l-9.193 9.182 5.795-3.342 9.146-9.157z"/><path d="M71.091 69.26l-56.44-32.554a3.017 3.017 0 0 0-3.315.183l-4.694 2.705 3.892 4.385v24.938a5.798 5.798 0 0 0 2.903 5.022l48.561 28.01 7.011 7.897 4.234-2.434a3.21 3.21 0 0 0 .394-.226l.005-.004a2.997 2.997 0 0 0 1.323-2.503V75.962a7.737 7.737 0 0 0-3.874-6.702" fill="#AA02AF"/><path d="M66.54 71.87L10.1 39.317c-2.023-1.167-4.553.292-4.553 2.626V71.78a5.917 5.917 0 0 0 2.967 5.128l57.347 33.009c2.023 1.167 4.553-.292 4.553-2.626V78.573a7.737 7.737 0 0 0-3.873-6.702" fill="#FFF"/><path fill="#FF2FF3" d="M14.985 51.127v2.986L49.43 73.981v-2.986zm0 7.725v2.987L59.268 87.38v-2.986zm0 7.725v2.987l24.72 14.258v-2.986z"/></g></svg>