<svg width="101" height="153" viewBox="0 0 101 153" xmlns="http://www.w3.org/2000/svg"><title>Group 9</title><g fill="none" fill-rule="evenodd"><path d="M68.263 71.522L1.47 58.023v9.704c0 5.754 3.09 11.07 8.104 13.947L92.93 129.49c3.552 2.038 7.992-.509 7.992-4.584V62.592c0-3.028-.856-5.934-2.398-8.428l-30.26 17.358z" fill="#480087"/><path d="M98.523 54.164a16.15 16.15 0 0 0-5.706-5.52L9.462.83C5.91-1.208 1.47 1.34 1.47 5.414v52.61l66.793 13.498 30.26-17.358z" fill="#480087"/><path d="M7.992 1.672C4.44-.365 0 2.182 0 6.257V68.57c0 5.754 3.09 11.07 8.105 13.947l3.88 2.226 70.41-40.39L7.992 1.673zm91.46 124.076V63.435c0-5.754-3.09-11.07-8.105-13.947l-8.952-5.135-70.41 40.39 79.475 45.59c3.552 2.037 7.992-.51 7.992-4.585" fill="#FF2FF3"/><path fill="#480087" d="M0 51.119l99.452 57.049v15.894L0 67.013z"/><path fill="#FFF" d="M57.729 58.74v12.582l17.086 9.801V68.542z"/><path d="M44.934 52.17a.7.7 0 0 0-.7.696v5.25c0 .579.313 1.117.817 1.406l1.685.967a.692.692 0 0 0 .348.094.714.714 0 0 0 .488-.196.681.681 0 0 0 .212-.5v-5.25c0-.578-.313-1.116-.817-1.405l-1.685-.967a.69.69 0 0 0-.348-.094m2.15 8.894a1.19 1.19 0 0 1-.59-.16l-1.686-.966a2.107 2.107 0 0 1-1.059-1.822v-5.251a1.182 1.182 0 0 1 1.775-1.018l1.686.967a2.107 2.107 0 0 1 1.059 1.822v5.25c0 .325-.129.625-.362.847-.22.21-.52.33-.823.33M39.147 48.85a.7.7 0 0 0-.7.696v5.251c0 .578.313 1.116.817 1.405l1.685.967a.692.692 0 0 0 .348.094.714.714 0 0 0 .488-.196.682.682 0 0 0 .212-.499v-5.251c0-.578-.313-1.116-.817-1.405l-1.685-.967a.69.69 0 0 0-.348-.094m2.15 8.894a1.19 1.19 0 0 1-.59-.159l-1.686-.967a2.107 2.107 0 0 1-1.059-1.822v-5.251a1.182 1.182 0 0 1 1.775-1.018l1.686.967a2.107 2.107 0 0 1 1.059 1.822v5.251c0 .324-.129.625-.362.847-.22.21-.52.33-.823.33M33.36 45.531c-.336 0-.7.266-.7.695v5.251c0 .578.313 1.116.817 1.405l1.685.967a.692.692 0 0 0 .348.095.714.714 0 0 0 .487-.197.682.682 0 0 0 .213-.498v-5.252c0-.577-.313-1.116-.817-1.404l-1.685-.967a.69.69 0 0 0-.348-.095m2.15 8.895a1.19 1.19 0 0 1-.59-.16l-1.686-.966a2.107 2.107 0 0 1-1.059-1.823v-5.25a1.182 1.182 0 0 1 1.775-1.019l1.686.967a2.107 2.107 0 0 1 1.059 1.822v5.252c0 .324-.129.624-.362.846-.22.21-.52.33-.823.33M21.56 38.762c-.336 0-.7.266-.7.695v5.252c0 .577.313 1.116.817 1.405l1.685.966a.692.692 0 0 0 .348.095.714.714 0 0 0 .488-.197.682.682 0 0 0 .212-.498v-5.251c0-.578-.313-1.116-.817-1.405l-1.685-.967a.69.69 0 0 0-.348-.095m2.15 8.895a1.19 1.19 0 0 1-.59-.16l-1.686-.966a2.107 2.107 0 0 1-1.059-1.822v-5.252a1.182 1.182 0 0 1 1.775-1.018l1.686.967a2.107 2.107 0 0 1 1.059 1.823v5.25c0 .325-.129.625-.362.847-.22.21-.52.33-.823.33m-7.937-12.213c-.336 0-.7.266-.7.695v5.251c0 .578.313 1.116.817 1.405l1.685.967c.11.062.227.094.348.094a.714.714 0 0 0 .488-.196.682.682 0 0 0 .212-.499v-5.25c0-.578-.313-1.116-.817-1.405l-1.685-.967a.69.69 0 0 0-.348-.094m2.15 8.894a1.19 1.19 0 0 1-.59-.159l-1.686-.967a2.107 2.107 0 0 1-1.059-1.822v-5.251a1.182 1.182 0 0 1 1.775-1.018l1.686.967a2.108 2.108 0 0 1 1.059 1.822v5.251c0 .324-.129.625-.362.847-.22.21-.52.33-.823.33M9.986 32.123c-.336 0-.7.266-.7.695v5.252c0 .577.313 1.115.817 1.404l1.685.967a.692.692 0 0 0 .348.095.714.714 0 0 0 .488-.197.682.682 0 0 0 .212-.499v-5.25c0-.578-.313-1.117-.817-1.405l-1.685-.967a.69.69 0 0 0-.348-.095m2.15 8.895c-.205 0-.409-.056-.59-.16l-1.686-.966a2.107 2.107 0 0 1-1.059-1.822v-5.252a1.182 1.182 0 0 1 1.775-1.018l1.686.967a2.107 2.107 0 0 1 1.059 1.822v5.251c0 .324-.129.625-.362.847-.22.21-.52.33-.823.33" fill="#4A4A4A"/><path fill="#FDE51C" d="M72.591 132.269v-29.767L13.186 68.425v29.767z"/><path fill="#C4AB1A" d="M77.849 122.602V99.487l-5.258 3.015v29.767l11.122-6.38z"/><path fill="#FFF099" d="M13.186 68.425l5.258-3.015 59.405 34.077-5.258 3.015z"/><path fill="#C4AB1A" d="M90.756 129.929l-7.043-4.04-16.337 9.372v17.63l23.38-13.412z"/><path fill="#FFF099" d="M67.376 135.26L7.971 101.185l5.215-2.992 59.405 34.077z"/><path fill="#FDE51C" d="M7.97 101.184v17.63l59.406 34.077v-17.63z"/><path fill="#666" d="M77.849 99.487l5.428 9.34v16.812l-5.428-3.037z"/></g></svg>