<svg width="106" height="125" viewBox="0 0 106 125" xmlns="http://www.w3.org/2000/svg"><title>Group 16</title><g fill="none" fill-rule="evenodd"><path fill="#FF2FF3" d="M3.225 35.863l16.978 9.79v39.382l-16.978-9.79z"/><path fill="#AA02AF" d="M37.182 35.863l-16.979 9.79v39.382l16.979-9.79z"/><path fill="#FC99FF" d="M3.225 35.863l16.978 9.79 16.979-9.79-16.979-9.789z"/><path fill="#FF2FF3" d="M26.155 29.395l16.978 9.79v59.07l-16.978-9.789z"/><path fill="#AA02AF" d="M60.112 29.395l-16.979 9.79v59.07l16.979-9.789z"/><path fill="#FC99FF" d="M26.155 29.395l16.978 9.79 16.979-9.79-16.979-9.789z"/><path fill="#FF2FF3" d="M49.085 22.301l16.979 9.79v79.385l-16.979-9.789z"/><path fill="#AA02AF" d="M83.042 22.301l-16.978 9.79v79.385l16.978-9.789z"/><path fill="#FC99FF" d="M49.085 22.301l16.979 9.79 16.978-9.79-16.978-9.789z"/><path fill="#FF2FF3" d="M72.015 114.908l16.979 9.789V19.578L72.015 9.79z"/><path fill="#AA02AF" d="M88.994 19.578v105.119l16.978-9.79V9.79z"/><path fill="#FC99FF" d="M88.994 0L72.015 9.79l16.979 9.788 16.978-9.789z"/><g fill="#FFF"><path d="M4.762 64.396c.897 1.552.682 3.352-.48 4.022-1.162.67-2.83-.044-3.728-1.596-.897-1.551-.682-3.352.48-4.022 1.162-.67 2.83.045 3.728 1.596m17.545 1.699c.897 1.552.682 3.353-.48 4.022-1.162.67-2.83-.044-3.728-1.596-.897-1.551-.682-3.352.48-4.022 1.162-.67 2.831.045 3.728 1.596m22.93-10.853c.897 1.552.682 3.353-.48 4.022-1.161.67-2.83-.044-3.727-1.596-.897-1.551-.683-3.352.48-4.022 1.161-.67 2.83.045 3.727 1.596m22.931 11.573c.896 1.551.682 3.352-.48 4.022-1.162.67-2.831-.045-3.728-1.596-.897-1.552-.682-3.353.48-4.023 1.161-.67 2.83.045 3.728 1.597m22.93-42.627c.897 1.552.682 3.353-.48 4.023-1.162.67-2.831-.045-3.728-1.596-.897-1.552-.682-3.353.48-4.023 1.162-.67 2.83.045 3.728 1.596"/><path d="M66.198 68.455L43.13 56.812 20.261 67.636 2.627 65.928l.062-.638 17.457 1.69 22.992-10.882L65.928 67.6l22.783-42.35.566.303z"/></g></g></svg>